M48
; DRILL file {KiCad (5.1.4)-1} date 6/09/2020 8:16:25 pm
; FORMAT={-:-/ absolute / inch / decimal}
; #@! TF.CreationDate,2020-09-06T20:16:25+12:00
; #@! TF.GenerationSoftware,Kicad,Pcbnew,(5.1.4)-1
; #@! TF.FileFunction,Plated,1,2,PTH
FMAT,2
INCH
T1C0.0157
T2C0.0236
T3C0.0591
%
G90
G05
T1
X6.79Y-5.575
X6.79Y-5.635
X6.82Y-2.15
X6.9Y-2.07
X6.91Y-6.425
X6.94Y-6.375
X7.03Y-3.065
X7.0585Y-3.0928
X7.086Y-3.121
X7.115Y-3.15
X7.175Y-2.71
X7.205Y-2.64
X7.225Y-2.375
X7.2411Y-2.5589
X7.265Y-2.385
X7.34Y-2.46
X7.35Y-2.67
X7.4848Y-3.1302
X7.49Y-2.575
X7.5127Y-3.158
X7.53Y-2.405
X7.53Y-2.675
X7.5405Y-3.1859
X7.5683Y-3.2137
X7.6689Y-2.4989
X7.675Y-2.615
X7.7Y-4.75
X7.7Y-4.81
X7.725Y-2.04
X7.775Y-4.08
X7.775Y-4.145
X7.9027Y-2.71
X8.075Y-2.73
X8.0773Y-2.0477
X8.2078Y-3.2432
X8.24Y-3.31
X8.3962Y-2.0412
X8.445Y-2.01
X8.445Y-2.51
X8.4761Y-2.47
X8.98Y-2.29
T3
X9.1501Y-2.7371
X9.3738Y-2.5873
X9.2787Y-4.2433
X9.5024Y-4.0936
X10.4064Y-3.2368
X10.6302Y-3.087
X8.4164Y-2.893
X8.6402Y-2.7432
X10.6918Y-2.3816
X10.9418Y-2.2816
X9.6728Y-3.3927
X9.8965Y-3.2429
X6.6161Y-2.9866
X6.8814Y-2.9408
X1.7763Y-3.9408
X2.0263Y-3.8408
X4.6536Y-4.1027
X4.9189Y-4.0569
X14.2116Y-3.7531
X14.4616Y-3.6531
X3.6002Y-2.3815
X3.8502Y-2.2815
X12.9187Y-3.1908
X13.1687Y-3.0908
X1.7997Y-5.4407
X2.0497Y-5.3407
X13.4616Y-4.8783
X13.7116Y-4.7783
X4.8644Y-4.9143
X5.1298Y-4.8685
X8.1504Y-5.2498
X8.3742Y-5.1
X8.2056Y-3.7046
X8.4293Y-3.5548
X5.8825Y-2.8307
X6.1478Y-2.7848
X2.0574Y-3.9407
X2.3074Y-3.8407
X13.4616Y-5.6283
X13.7116Y-5.5283
X12.2427Y-4.6907
X12.4927Y-4.5907
X12.5668Y-2.4405
X12.8168Y-2.3405
X11.2116Y-4.6907
X11.4616Y-4.5907
X12.8054Y-3.9407
X13.0554Y-3.8407
X4.0665Y-5.5116
X4.3319Y-5.4658
X3.8925Y-3.1744
X4.1579Y-3.1286
X6.0934Y-3.6422
X6.3587Y-3.5964
X10.3513Y-4.782
X10.575Y-4.6322
X8.5817Y-5.9249
X8.8054Y-5.7751
X7.6828Y-3.0489
X7.9066Y-2.8991
X7.8115Y-4.5552
X8.0352Y-4.4054
X3.92Y-3.9468
X4.1853Y-3.901
X11.2311Y-3.1908
X11.4811Y-3.0908
X8.5451Y-4.3993
X8.7688Y-4.2495
X5.4422Y-5.804
X5.7075Y-5.7582
X10.1407Y-5.5935
X10.3644Y-5.4437
X14.2116Y-5.6283
X14.4616Y-5.5283
X2.0805Y-4.6906
X2.3305Y-4.5906
X5.3598Y-3.4863
X5.6251Y-3.4405
X6.3317Y-5.2262
X6.597Y-5.1804
X5.3872Y-4.2587
X5.6525Y-4.2128
X7.472Y-3.8605
X7.6957Y-3.7107
X12.9418Y-2.4405
X13.1918Y-2.3405
X2.1Y-2.4407
X2.35Y-2.3407
X2.1236Y-3.1905
X2.3736Y-3.0905
X4.4153Y-2.5188
X4.6806Y-2.473
X9.6176Y-4.938
X9.8414Y-4.7882
X12.7116Y-5.6283
X12.9616Y-5.5283
X9.8837Y-2.5811
X10.1074Y-2.4313
X12.1918Y-2.4405
X12.4418Y-2.3405
X10.0123Y-4.0874
X10.236Y-3.9376
X14.0436Y-3.0032
X14.2936Y-2.9032
X10.8366Y-3.9407
X11.0866Y-3.8407
X6.5426Y-6.0379
X6.8079Y-5.9921
X5.1489Y-2.6747
X5.4142Y-2.6289
X11.4418Y-2.4405
X11.6918Y-2.3405
X8.9392Y-3.5487
X9.1629Y-3.3989
X3.2991Y-4.6909
X3.5491Y-4.5909
X11.9811Y-3.1908
X12.2311Y-3.0908
X4.6262Y-3.3304
X4.8915Y-3.2845
X4.1308Y-4.7584
X4.3962Y-4.7126
X5.3504Y-5.7845
X5.6157Y-5.7387
X4.1582Y-5.5311
X4.4235Y-5.4853
X11.5866Y-3.9407
X11.8366Y-3.8407
X3.0887Y-3.9409
X3.3387Y-3.8409
X6.1208Y-4.4146
X6.3861Y-4.3688
X3.0611Y-3.1907
X3.3111Y-3.0907
X2.8501Y-2.4407
X3.1001Y-2.3407
X13.8792Y-2.253
X14.1292Y-2.153
X8.884Y-5.0939
X9.1078Y-4.9441
X5.5981Y-5.0703
X5.8634Y-5.0244
T2
G00X7.1261Y-2.0706
M15
G01X7.1261Y-2.0942
M16
G05
G00X7.1261Y-2.2253
M15
G01X7.1261Y-2.2686
M16
G05
G00X7.4663Y-2.0706
M15
G01X7.4663Y-2.0942
M16
G05
G00X7.4663Y-2.2253
M15
G01X7.4663Y-2.2686
M16
G05
T0
M30
