M48
; DRILL file {KiCad (5.1.4)-1} date 7/09/2020 9:46:32 pm
; FORMAT={-:-/ absolute / inch / decimal}
; #@! TF.CreationDate,2020-09-07T21:46:32+12:00
; #@! TF.GenerationSoftware,Kicad,Pcbnew,(5.1.4)-1
; #@! TF.FileFunction,NonPlated,1,2,NPTH
FMAT,2
INCH
T1C0.0256
T2C0.0669
T3C0.1201
T4C0.1575
%
G90
G05
T1
X7.1824Y-2.2261
X7.41Y-2.2261
T2
X3.5502Y-2.4815
X3.9502Y-2.4815
X12.7554Y-4.0407
X13.1554Y-4.0407
X8.517Y-4.5075
X8.9082Y-4.4243
X3.0387Y-4.0409
X3.4387Y-4.0409
X2.0305Y-4.7906
X2.4305Y-4.7906
X14.1616Y-3.8531
X14.5616Y-3.8531
X4.0885Y-5.6185
X4.4798Y-5.7017
X2.05Y-2.5407
X2.45Y-2.5407
X12.5168Y-2.5405
X12.9168Y-2.5405
X4.0611Y-4.8458
X4.4524Y-4.929
X10.3783Y-3.345
X10.7695Y-3.2618
X2.8001Y-2.5407
X3.2001Y-2.5407
X5.2901Y-3.5737
X5.6813Y-3.6569
X9.1219Y-2.8453
X9.5132Y-2.7621
X7.4438Y-3.9687
X7.8351Y-3.8856
X11.3918Y-2.5405
X11.7918Y-2.5405
X3.8228Y-3.2619
X4.2141Y-3.345
X9.2506Y-4.3516
X9.6418Y-4.2684
X5.2807Y-5.8719
X5.6719Y-5.9551
X1.7263Y-4.0408
X2.1263Y-4.0408
X5.8128Y-2.9181
X6.2041Y-3.0012
X5.5284Y-5.1577
X5.9196Y-5.2408
X2.0074Y-4.0407
X2.4074Y-4.0407
X5.0792Y-2.7622
X5.4705Y-2.8453
X3.9969Y-5.5991
X4.3881Y-5.6822
X11.1616Y-4.7907
X11.5616Y-4.7907
X8.9111Y-3.6569
X9.3023Y-3.5737
X11.9311Y-3.2908
X12.3311Y-3.2908
X9.9842Y-4.1956
X10.3754Y-4.1125
X10.6418Y-2.4816
X11.0418Y-2.4816
X4.7947Y-5.0017
X5.186Y-5.0849
X10.1125Y-5.7017
X10.5038Y-5.6185
X8.1223Y-5.358
X8.5136Y-5.2749
X8.8559Y-5.2021
X9.2472Y-5.1189
X9.8555Y-2.6894
X10.2468Y-2.6062
X8.3883Y-3.0012
X8.7796Y-2.9181
X14.1616Y-5.7283
X14.5616Y-5.7283
X11.5366Y-4.0407
X11.9366Y-4.0407
X10.7866Y-4.0407
X11.1866Y-4.0407
X8.1775Y-3.8128
X8.5687Y-3.7296
X6.262Y-5.3136
X6.6532Y-5.3968
X8.5535Y-6.0331
X8.9448Y-5.9499
X10.3231Y-4.8902
X10.7144Y-4.8071
X3.0111Y-3.2907
X3.4111Y-3.2907
X4.5565Y-3.4178
X4.9477Y-3.501
X13.8292Y-2.353
X14.2292Y-2.353
X13.4116Y-4.9783
X13.8116Y-4.9783
X6.4729Y-6.1253
X6.8641Y-6.2085
X4.3456Y-2.6062
X4.7368Y-2.6894
X12.6616Y-5.7283
X13.0616Y-5.7283
X9.5895Y-5.0462
X9.9808Y-4.963
X7.7834Y-4.6634
X8.1746Y-4.5803
X1.7497Y-5.5407
X2.1497Y-5.5407
X7.6547Y-3.1572
X8.046Y-3.074
X5.3175Y-4.3461
X5.7087Y-4.4293
X2.0736Y-3.2905
X2.4736Y-3.2905
X3.8503Y-4.0342
X4.2415Y-4.1174
X12.1927Y-4.7907
X12.5927Y-4.7907
X11.1811Y-3.2908
X11.5811Y-3.2908
X3.2491Y-4.7909
X3.6491Y-4.7909
X12.8918Y-2.5405
X13.2918Y-2.5405
X6.0237Y-3.7297
X6.4149Y-3.8128
X13.4116Y-5.7283
X13.8116Y-5.7283
X5.3725Y-5.8914
X5.7637Y-5.9746
X12.8687Y-3.2908
X13.2687Y-3.2908
X6.5464Y-3.074
X6.9377Y-3.1572
X13.9936Y-3.1032
X14.3936Y-3.1032
X4.5839Y-4.1902
X4.9751Y-4.2733
X12.1418Y-2.5405
X12.5418Y-2.5405
X9.6447Y-3.5009
X10.0359Y-3.4178
X6.0511Y-4.502
X6.4424Y-4.5852
T3
X8.3482Y-6.3585
X9.2647Y-6.1637
X5.0525Y-6.1052
X5.9691Y-6.3
X12.4869Y-4.3163
X13.4239Y-4.3163
X1.762Y-4.515
X2.699Y-4.515
X12.2483Y-2.2649
X13.1853Y-2.2649
X4.9608Y-6.0857
X5.8773Y-6.2805
T4
X14.3616Y-3.8531
X4.2841Y-5.6601
X2.25Y-2.5407
X12.2483Y-2.8649
X12.7168Y-2.5405
X13.1853Y-2.8649
X4.2568Y-4.8874
X10.5739Y-3.3034
X3.0001Y-2.5407
X5.4857Y-3.6153
X9.3176Y-2.8037
X7.6395Y-3.9271
X11.5918Y-2.5405
X4.0185Y-3.3034
X9.4462Y-4.31
X5.0855Y-5.4988
X5.4763Y-5.9135
X6.002Y-5.6936
X1.9263Y-4.0408
X6.0084Y-2.9597
X5.724Y-5.1993
X2.2074Y-4.0407
X5.2748Y-2.8037
X4.1925Y-5.6406
X11.3616Y-4.7907
X9.1067Y-3.6153
X12.1311Y-3.2908
X10.1798Y-4.154
X10.8418Y-2.4816
X4.9904Y-5.0433
X10.3082Y-5.6601
X8.3179Y-5.3165
X9.0515Y-5.1605
X10.0512Y-2.6478
X8.584Y-2.9596
X14.3616Y-5.7283
X11.7366Y-4.0407
X10.9866Y-4.0407
X8.3731Y-3.7712
X6.4576Y-5.3552
X8.2235Y-5.7716
X8.7492Y-5.9915
X9.14Y-5.5768
X10.5188Y-4.8487
X3.2111Y-3.2907
X4.7521Y-3.4594
X14.0292Y-2.353
X13.6116Y-4.9783
X6.6685Y-6.1669
X4.5412Y-2.6478
X12.8616Y-5.7283
X9.7852Y-5.0046
X7.979Y-4.6218
X1.9497Y-5.5407
X7.8503Y-3.1156
X5.5131Y-4.3877
X2.2736Y-3.2905
X4.0459Y-4.0758
X12.3927Y-4.7907
X11.3811Y-3.2908
X3.4491Y-4.7909
X13.0918Y-2.5405
X6.2193Y-3.7712
X13.6116Y-5.7283
X5.1773Y-5.5183
X5.5681Y-5.933
X6.0938Y-5.7131
X13.0687Y-3.2908
X6.742Y-3.1156
X14.1936Y-3.1032
X4.7795Y-4.2317
X12.3418Y-2.5405
X9.8403Y-3.4593
X6.2467Y-4.5436
X3.7502Y-2.4815
X12.4869Y-3.7163
X12.9554Y-4.0407
X13.4239Y-3.7163
X8.7126Y-4.4659
X3.2387Y-4.0409
X1.762Y-5.115
X2.2305Y-4.7906
X2.699Y-5.115
T0
M30
