%TF.GenerationSoftware,KiCad,Pcbnew,(5.1.4)-1*%
%TF.CreationDate,2020-09-06T20:16:22+12:00*%
%TF.ProjectId,puffazz-arisu-v2,70756666-617a-47a2-9d61-726973752d76,rev?*%
%TF.SameCoordinates,Original*%
%TF.FileFunction,Legend,Top*%
%TF.FilePolarity,Positive*%
%FSLAX46Y46*%
G04 Gerber Fmt 4.6, Leading zero omitted, Abs format (unit mm)*
G04 Created by KiCad (PCBNEW (5.1.4)-1) date 2020-09-06 20:16:22*
%MOMM*%
%LPD*%
G04 APERTURE LIST*
%ADD10C,0.120000*%
%ADD11C,0.010000*%
%ADD12C,0.150000*%
%ADD13C,0.254000*%
%ADD14C,2.300000*%
%ADD15C,4.100000*%
%ADD16C,1.800000*%
%ADD17C,3.150000*%
%ADD18C,0.750000*%
%ADD19O,1.100000X2.200000*%
%ADD20O,1.100000X1.700000*%
G04 APERTURE END LIST*
D10*
%TO.C,MX_#BKSP2*%
X316021461Y-57543248D02*
X329991461Y-57543248D01*
X329991461Y-57543248D02*
X329991461Y-71513248D01*
X329991461Y-71513248D02*
X316021461Y-71513248D01*
X316021461Y-71513248D02*
X316021461Y-57543248D01*
%TO.C,MX_RETURN1*%
X322081635Y-95648194D02*
X336051635Y-95648194D01*
X336051635Y-95648194D02*
X336051635Y-109618194D01*
X336051635Y-109618194D02*
X322081635Y-109618194D01*
X322081635Y-109618194D02*
X322081635Y-95648194D01*
%TO.C,MX_LSHIFT1*%
X49670547Y-114696100D02*
X63640547Y-114696100D01*
X63640547Y-114696100D02*
X63640547Y-128666100D01*
X63640547Y-128666100D02*
X49670547Y-128666100D01*
X49670547Y-128666100D02*
X49670547Y-114696100D01*
%TO.C,MX_SPACE2*%
X133718371Y-141918851D02*
X147383093Y-144823377D01*
X147383093Y-144823377D02*
X144478567Y-158488099D01*
X144478567Y-158488099D02*
X130813845Y-155583573D01*
X130813845Y-155583573D02*
X133718371Y-141918851D01*
%TO.C,MX_SPACE1*%
X136049297Y-142414305D02*
X149714019Y-145318831D01*
X149714019Y-145318831D02*
X146809493Y-158983553D01*
X146809493Y-158983553D02*
X133144771Y-156079027D01*
X133144771Y-156079027D02*
X136049297Y-142414305D01*
%TO.C,MX_SPACE3*%
X216848979Y-160468738D02*
X213944452Y-146804016D01*
X230513701Y-157564211D02*
X216848979Y-160468738D01*
X227609174Y-143899489D02*
X230513701Y-157564211D01*
X213944452Y-146804016D02*
X227609174Y-143899489D01*
D11*
%TO.C,G\002A\002A\002A*%
G36*
X385106333Y-183684334D02*
G01*
X25103667Y-183684334D01*
X25103667Y-40682334D01*
X385106333Y-40682334D01*
X385106333Y-183684334D01*
X385106333Y-183684334D01*
G37*
X385106333Y-183684334D02*
X25103667Y-183684334D01*
X25103667Y-40682334D01*
X385106333Y-40682334D01*
X385106333Y-183684334D01*
D10*
%TO.C,MX_#7*%
X194018702Y-87420116D02*
X191114175Y-73755394D01*
X207683424Y-84515589D02*
X194018702Y-87420116D01*
X204778897Y-70850867D02*
X207683424Y-84515589D01*
X191114175Y-73755394D02*
X204778897Y-70850867D01*
%TO.C,MX_#-1*%
X268397079Y-70016615D02*
X268397079Y-56046615D01*
X282367079Y-70016615D02*
X268397079Y-70016615D01*
X282367079Y-56046615D02*
X282367079Y-70016615D01*
X268397079Y-56046615D02*
X282367079Y-56046615D01*
%TO.C,MX_BCKSP1*%
X324959773Y-90570067D02*
X324959773Y-76600067D01*
X338929773Y-90570067D02*
X324959773Y-90570067D01*
X338929773Y-76600067D02*
X338929773Y-90570067D01*
X324959773Y-76600067D02*
X338929773Y-76600067D01*
%TO.C,MX_RALT1*%
X256447329Y-152051849D02*
X253542802Y-138387127D01*
X270112051Y-149147322D02*
X256447329Y-152051849D01*
X267207524Y-135482600D02*
X270112051Y-149147322D01*
X253542802Y-138387127D02*
X267207524Y-135482600D01*
%TO.C,MX_LCTRL1*%
X42538553Y-147718134D02*
X42538553Y-133748134D01*
X56508553Y-147718134D02*
X42538553Y-147718134D01*
X56508553Y-133748134D02*
X56508553Y-147718134D01*
X42538553Y-133748134D02*
X56508553Y-133748134D01*
%TO.C,MX_LALT2*%
X100532351Y-149147043D02*
X103436877Y-135482321D01*
X114197073Y-152051569D02*
X100532351Y-149147043D01*
X117101599Y-138386847D02*
X114197073Y-152051569D01*
X103436877Y-135482321D02*
X117101599Y-138386847D01*
%TO.C,MX_#TAB1*%
X50765104Y-90564603D02*
X50765104Y-76594603D01*
X64735104Y-90564603D02*
X50765104Y-90564603D01*
X64735104Y-76594603D02*
X64735104Y-90564603D01*
X50765104Y-76594603D02*
X64735104Y-76594603D01*
%TO.C,MX_CAPS2*%
X41942556Y-109621034D02*
X41942556Y-95651034D01*
X55912556Y-109621034D02*
X41942556Y-109621034D01*
X55912556Y-95651034D02*
X55912556Y-109621034D01*
X41942556Y-95651034D02*
X55912556Y-95651034D01*
%TO.C,MX_Z1*%
X80623103Y-128674963D02*
X80623103Y-114704963D01*
X94593103Y-128674963D02*
X80623103Y-128674963D01*
X94593103Y-114704963D02*
X94593103Y-128674963D01*
X80623103Y-114704963D02*
X94593103Y-114704963D01*
%TO.C,MX_Y1*%
X188662564Y-108034187D02*
X185758037Y-94369465D01*
X202327286Y-105129660D02*
X188662564Y-108034187D01*
X199422759Y-91464938D02*
X202327286Y-105129660D01*
X185758037Y-94369465D02*
X199422759Y-91464938D01*
%TO.C,MX_X1*%
X99837234Y-129519819D02*
X102741760Y-115855097D01*
X113501956Y-132424345D02*
X99837234Y-129519819D01*
X116406482Y-118759623D02*
X113501956Y-132424345D01*
X102741760Y-115855097D02*
X116406482Y-118759623D01*
%TO.C,MX_W1*%
X93784715Y-89287560D02*
X96689241Y-75622838D01*
X107449437Y-92192086D02*
X93784715Y-89287560D01*
X110353963Y-78527364D02*
X107449437Y-92192086D01*
X96689241Y-75622838D02*
X110353963Y-78527364D01*
%TO.C,MX_V1*%
X137104657Y-137441254D02*
X140009183Y-123776532D01*
X150769379Y-140345780D02*
X137104657Y-137441254D01*
X153673905Y-126681058D02*
X150769379Y-140345780D01*
X140009183Y-123776532D02*
X153673905Y-126681058D01*
%TO.C,MX_UP1*%
X338749687Y-133433250D02*
X338749687Y-119463250D01*
X352719687Y-133433250D02*
X338749687Y-133433250D01*
X352719687Y-119463250D02*
X352719687Y-133433250D01*
X338749687Y-119463250D02*
X352719687Y-119463250D01*
%TO.C,MX_U1*%
X207296276Y-104073469D02*
X204391749Y-90408747D01*
X220960998Y-101168942D02*
X207296276Y-104073469D01*
X218056471Y-87504220D02*
X220960998Y-101168942D01*
X204391749Y-90408747D02*
X218056471Y-87504220D01*
%TO.C,MX_T1*%
X149685850Y-101169713D02*
X152590376Y-87504991D01*
X163350572Y-104074239D02*
X149685850Y-101169713D01*
X166255098Y-90409517D02*
X163350572Y-104074239D01*
X152590376Y-87504991D02*
X166255098Y-90409517D01*
%TO.C,MX_S1*%
X94481096Y-108905748D02*
X97385622Y-95241026D01*
X108145818Y-111810274D02*
X94481096Y-108905748D01*
X111050344Y-98145552D02*
X108145818Y-111810274D01*
X97385622Y-95241026D02*
X111050344Y-98145552D01*
%TO.C,MX_RSHIFT1*%
X307790635Y-128668194D02*
X307790635Y-114698194D01*
X321760635Y-128668194D02*
X307790635Y-128668194D01*
X321760635Y-114698194D02*
X321760635Y-128668194D01*
X307790635Y-114698194D02*
X321760635Y-114698194D01*
%TO.C,MX_RIGHT1*%
X357799687Y-152483250D02*
X357799687Y-138513250D01*
X371769687Y-152483250D02*
X357799687Y-152483250D01*
X371769687Y-138513250D02*
X371769687Y-152483250D01*
X357799687Y-138513250D02*
X371769687Y-138513250D01*
%TO.C,MX_R1*%
X131052138Y-97208995D02*
X133956664Y-83544273D01*
X144716860Y-100113521D02*
X131052138Y-97208995D01*
X147621386Y-86448799D02*
X144716860Y-100113521D01*
X133956664Y-83544273D02*
X147621386Y-86448799D01*
%TO.C,MX_Q1*%
X74575794Y-90568458D02*
X74575794Y-76598458D01*
X88545794Y-90568458D02*
X74575794Y-90568458D01*
X88545794Y-76598458D02*
X88545794Y-90568458D01*
X74575794Y-76598458D02*
X88545794Y-76598458D01*
%TO.C,MX_PGDN1*%
X353531399Y-85806926D02*
X353531399Y-71836926D01*
X367501399Y-85806926D02*
X353531399Y-85806926D01*
X367501399Y-71836926D02*
X367501399Y-85806926D01*
X353531399Y-71836926D02*
X367501399Y-71836926D01*
%TO.C,MX_P1*%
X263197411Y-92191316D02*
X260292884Y-78526594D01*
X276862133Y-89286789D02*
X263197411Y-92191316D01*
X273957606Y-75622067D02*
X276862133Y-89286789D01*
X260292884Y-78526594D02*
X273957606Y-75622067D01*
%TO.C,MX_O1*%
X244563699Y-96152034D02*
X241659172Y-82487312D01*
X258228421Y-93247507D02*
X244563699Y-96152034D01*
X255323894Y-79582785D02*
X258228421Y-93247507D01*
X241659172Y-82487312D02*
X255323894Y-79582785D01*
%TO.C,MX_N1*%
X205895536Y-143322735D02*
X202991009Y-129658013D01*
X219560258Y-140418208D02*
X205895536Y-143322735D01*
X216655731Y-126753486D02*
X219560258Y-140418208D01*
X202991009Y-129658013D02*
X216655731Y-126753486D01*
%TO.C,MX_M1*%
X224529248Y-139362017D02*
X221624721Y-125697295D01*
X238193970Y-136457490D02*
X224529248Y-139362017D01*
X235289443Y-122792768D02*
X238193970Y-136457490D01*
X221624721Y-125697295D02*
X235289443Y-122792768D01*
%TO.C,MX_LWIN1*%
X161095338Y-162020103D02*
X163999864Y-148355381D01*
X174760060Y-164924629D02*
X161095338Y-162020103D01*
X177664586Y-151259907D02*
X174760060Y-164924629D01*
X163999864Y-148355381D02*
X177664586Y-151259907D01*
%TO.C,MX_LEFT1*%
X319699687Y-152483250D02*
X319699687Y-138513250D01*
X333669687Y-152483250D02*
X319699687Y-152483250D01*
X333669687Y-138513250D02*
X333669687Y-152483250D01*
X319699687Y-138513250D02*
X333669687Y-138513250D01*
%TO.C,MX_LALT1*%
X98204360Y-148652213D02*
X101108886Y-134987491D01*
X111869082Y-151556739D02*
X98204360Y-148652213D01*
X114773608Y-137892017D02*
X111869082Y-151556739D01*
X101108886Y-134987491D02*
X114773608Y-137892017D01*
%TO.C,MX_L1*%
X253187168Y-113797314D02*
X250282641Y-100132592D01*
X266851890Y-110892787D02*
X253187168Y-113797314D01*
X263947363Y-97228065D02*
X266851890Y-110892787D01*
X250282641Y-100132592D02*
X263947363Y-97228065D01*
%TO.C,MX_K1*%
X234553456Y-117758032D02*
X231648929Y-104093310D01*
X248218178Y-114853505D02*
X234553456Y-117758032D01*
X245313651Y-101188783D02*
X248218178Y-114853505D01*
X231648929Y-104093310D02*
X245313651Y-101188783D01*
%TO.C,MX_J1*%
X215919745Y-121718749D02*
X213015218Y-108054027D01*
X229584467Y-118814222D02*
X215919745Y-121718749D01*
X226679940Y-105149500D02*
X229584467Y-118814222D01*
X213015218Y-108054027D02*
X226679940Y-105149500D01*
%TO.C,MX_I1*%
X225929987Y-100112751D02*
X223025460Y-86448029D01*
X239594709Y-97208224D02*
X225929987Y-100112751D01*
X236690182Y-83543502D02*
X239594709Y-97208224D01*
X223025460Y-86448029D02*
X236690182Y-83543502D01*
%TO.C,MX_H1*%
X197286033Y-125679467D02*
X194381506Y-112014745D01*
X210950755Y-122774940D02*
X197286033Y-125679467D01*
X208046228Y-109110218D02*
X210950755Y-122774940D01*
X194381506Y-112014745D02*
X208046228Y-109110218D01*
%TO.C,MX_G1*%
X150382231Y-120787901D02*
X153286757Y-107123179D01*
X164046953Y-123692427D02*
X150382231Y-120787901D01*
X166951479Y-110027705D02*
X164046953Y-123692427D01*
X153286757Y-107123179D02*
X166951479Y-110027705D01*
%TO.C,MX_FN1*%
X357798522Y-104853865D02*
X357798522Y-90883865D01*
X371768522Y-104853865D02*
X357798522Y-104853865D01*
X371768522Y-90883865D02*
X371768522Y-104853865D01*
X357798522Y-90883865D02*
X371768522Y-90883865D01*
%TO.C,MX_F1*%
X131748520Y-116827184D02*
X134653046Y-103162462D01*
X145413242Y-119731710D02*
X131748520Y-116827184D01*
X148317768Y-106066988D02*
X145413242Y-119731710D01*
X134653046Y-103162462D02*
X148317768Y-106066988D01*
%TO.C,MX_ESC1*%
X50165073Y-71517918D02*
X50165073Y-57547918D01*
X64135073Y-71517918D02*
X50165073Y-71517918D01*
X64135073Y-57547918D02*
X64135073Y-71517918D01*
X50165073Y-57547918D02*
X64135073Y-57547918D01*
%TO.C,MX_E1*%
X112418427Y-93248277D02*
X115322953Y-79583555D01*
X126083149Y-96152803D02*
X112418427Y-93248277D01*
X128987675Y-82488081D02*
X126083149Y-96152803D01*
X115322953Y-79583555D02*
X128987675Y-82488081D01*
%TO.C,MX_DOWN1*%
X338749687Y-152483250D02*
X338749687Y-138513250D01*
X352719687Y-152483250D02*
X338749687Y-152483250D01*
X352719687Y-138513250D02*
X352719687Y-152483250D01*
X338749687Y-138513250D02*
X352719687Y-138513250D01*
%TO.C,MX_D1*%
X113114807Y-112866466D02*
X116019333Y-99201744D01*
X126779529Y-115770992D02*
X113114807Y-112866466D01*
X129684055Y-102106270D02*
X126779529Y-115770992D01*
X116019333Y-99201744D02*
X129684055Y-102106270D01*
%TO.C,MX_CAPS1*%
X49082691Y-109619495D02*
X49082691Y-95649495D01*
X63052691Y-109619495D02*
X49082691Y-109619495D01*
X63052691Y-95649495D02*
X63052691Y-109619495D01*
X49082691Y-95649495D02*
X63052691Y-95649495D01*
%TO.C,MX_C1*%
X118470945Y-133480536D02*
X121375471Y-119815814D01*
X132135667Y-136385062D02*
X118470945Y-133480536D01*
X135040193Y-122720340D02*
X132135667Y-136385062D01*
X121375471Y-119815814D02*
X135040193Y-122720340D01*
%TO.C,MX_B1*%
X155738369Y-141401972D02*
X158642895Y-127737250D01*
X169403091Y-144306498D02*
X155738369Y-141401972D01*
X172307617Y-130641776D02*
X169403091Y-144306498D01*
X158642895Y-127737250D02*
X172307617Y-130641776D01*
%TO.C,MX_A1*%
X75279249Y-109622839D02*
X75279249Y-95652839D01*
X89249249Y-109622839D02*
X75279249Y-109622839D01*
X89249249Y-95652839D02*
X89249249Y-109622839D01*
X75279249Y-95652839D02*
X89249249Y-95652839D01*
%TO.C,MX_]1*%
X301143773Y-90570067D02*
X301143773Y-76600067D01*
X315113773Y-90570067D02*
X301143773Y-90570067D01*
X315113773Y-76600067D02*
X315113773Y-90570067D01*
X301143773Y-76600067D02*
X315113773Y-76600067D01*
%TO.C,MX_[1*%
X282093773Y-90570067D02*
X282093773Y-76600067D01*
X296063773Y-90570067D02*
X282093773Y-90570067D01*
X296063773Y-76600067D02*
X296063773Y-90570067D01*
X282093773Y-76600067D02*
X296063773Y-76600067D01*
%TO.C,MX_?1*%
X281598635Y-128668194D02*
X281598635Y-114698194D01*
X295568635Y-128668194D02*
X281598635Y-128668194D01*
X295568635Y-114698194D02*
X295568635Y-128668194D01*
X281598635Y-114698194D02*
X295568635Y-114698194D01*
%TO.C,MX_>1*%
X261796671Y-131440582D02*
X258892144Y-117775860D01*
X275461393Y-128536055D02*
X261796671Y-131440582D01*
X272556866Y-114871333D02*
X275461393Y-128536055D01*
X258892144Y-117775860D02*
X272556866Y-114871333D01*
%TO.C,MX_<1*%
X243162959Y-135401300D02*
X240258432Y-121736578D01*
X256827681Y-132496773D02*
X243162959Y-135401300D01*
X253923154Y-118832051D02*
X256827681Y-132496773D01*
X240258432Y-121736578D02*
X253923154Y-118832051D01*
%TO.C,MX_:1*%
X272073635Y-109618194D02*
X272073635Y-95648194D01*
X286043635Y-109618194D02*
X272073635Y-109618194D01*
X286043635Y-95648194D02*
X286043635Y-109618194D01*
X272073635Y-95648194D02*
X286043635Y-95648194D01*
%TO.C,MX_#|1*%
X325546461Y-71513248D02*
X325546461Y-57543248D01*
X339516461Y-71513248D02*
X325546461Y-71513248D01*
X339516461Y-57543248D02*
X339516461Y-71513248D01*
X325546461Y-57543248D02*
X339516461Y-57543248D01*
%TO.C,MX_#PGUP1*%
X349356029Y-66752181D02*
X349356029Y-52782181D01*
X363326029Y-66752181D02*
X349356029Y-66752181D01*
X363326029Y-52782181D02*
X363326029Y-66752181D01*
X349356029Y-52782181D02*
X363326029Y-52782181D01*
%TO.C,MX_#`1*%
X306496461Y-71513248D02*
X306496461Y-57543248D01*
X320466461Y-71513248D02*
X306496461Y-71513248D01*
X320466461Y-57543248D02*
X320466461Y-71513248D01*
X306496461Y-57543248D02*
X320466461Y-57543248D01*
%TO.C,MX_#+1*%
X287446461Y-71513248D02*
X287446461Y-57543248D01*
X301416461Y-71513248D02*
X287446461Y-71513248D01*
X301416461Y-57543248D02*
X301416461Y-71513248D01*
X287446461Y-57543248D02*
X301416461Y-57543248D01*
%TO.C,MX_#9*%
X231286126Y-79498681D02*
X228381599Y-65833959D01*
X244950848Y-76594154D02*
X231286126Y-79498681D01*
X242046321Y-62929432D02*
X244950848Y-76594154D01*
X228381599Y-65833959D02*
X242046321Y-62929432D01*
%TO.C,MX_#8*%
X212652414Y-83459398D02*
X209747887Y-69794676D01*
X226317136Y-80554871D02*
X212652414Y-83459398D01*
X223412609Y-66890149D02*
X226317136Y-80554871D01*
X209747887Y-69794676D02*
X223412609Y-66890149D01*
%TO.C,MX_#6*%
X162963424Y-84516360D02*
X165867950Y-70851638D01*
X176628146Y-87420886D02*
X162963424Y-84516360D01*
X179532672Y-73756164D02*
X176628146Y-87420886D01*
X165867950Y-70851638D02*
X179532672Y-73756164D01*
%TO.C,MX_#5*%
X144329712Y-80555642D02*
X147234238Y-66890920D01*
X157994434Y-83460168D02*
X144329712Y-80555642D01*
X160898960Y-69795446D02*
X157994434Y-83460168D01*
X147234238Y-66890920D02*
X160898960Y-69795446D01*
%TO.C,MX_#4*%
X125696000Y-76594925D02*
X128600526Y-62930203D01*
X139360722Y-79499451D02*
X125696000Y-76594925D01*
X142265248Y-65834729D02*
X139360722Y-79499451D01*
X128600526Y-62930203D02*
X142265248Y-65834729D01*
%TO.C,MX_#3*%
X107062288Y-72634207D02*
X109966814Y-58969485D01*
X120727010Y-75538733D02*
X107062288Y-72634207D01*
X123631536Y-61874011D02*
X120727010Y-75538733D01*
X109966814Y-58969485D02*
X123631536Y-61874011D01*
%TO.C,MX_#2*%
X88271075Y-70015941D02*
X88271075Y-56045941D01*
X102241075Y-70015941D02*
X88271075Y-70015941D01*
X102241075Y-56045941D02*
X102241075Y-70015941D01*
X88271075Y-56045941D02*
X102241075Y-56045941D01*
%TO.C,MX_#1*%
X69217273Y-71518345D02*
X69217273Y-57548345D01*
X83187273Y-71518345D02*
X69217273Y-71518345D01*
X83187273Y-57548345D02*
X83187273Y-71518345D01*
X69217273Y-57548345D02*
X83187273Y-57548345D01*
%TO.C,MX_#0*%
X249919837Y-75537963D02*
X247015310Y-61873241D01*
X263584559Y-72633436D02*
X249919837Y-75537963D01*
X260680032Y-58968714D02*
X263584559Y-72633436D01*
X247015310Y-61873241D02*
X260680032Y-58968714D01*
%TO.C,MX_"1*%
X291123635Y-109618194D02*
X291123635Y-95648194D01*
X305093635Y-109618194D02*
X291123635Y-109618194D01*
X305093635Y-95648194D02*
X305093635Y-109618194D01*
X291123635Y-95648194D02*
X305093635Y-95648194D01*
%TO.C,MX_#BKSP2*%
D12*
X318863603Y-57106628D02*
X318863603Y-56106628D01*
X319196937Y-56820914D01*
X319530270Y-56106628D01*
X319530270Y-57106628D01*
X319911222Y-56106628D02*
X320577889Y-57106628D01*
X320577889Y-56106628D02*
X319911222Y-57106628D01*
X320720746Y-57201867D02*
X321482651Y-57201867D01*
X321673127Y-56439962D02*
X322387413Y-56439962D01*
X321958841Y-56011390D02*
X321673127Y-57297105D01*
X322292175Y-56868533D02*
X321577889Y-56868533D01*
X322006461Y-57297105D02*
X322292175Y-56011390D01*
X323054080Y-56582819D02*
X323196937Y-56630438D01*
X323244556Y-56678057D01*
X323292175Y-56773295D01*
X323292175Y-56916152D01*
X323244556Y-57011390D01*
X323196937Y-57059009D01*
X323101699Y-57106628D01*
X322720746Y-57106628D01*
X322720746Y-56106628D01*
X323054080Y-56106628D01*
X323149318Y-56154248D01*
X323196937Y-56201867D01*
X323244556Y-56297105D01*
X323244556Y-56392343D01*
X323196937Y-56487581D01*
X323149318Y-56535200D01*
X323054080Y-56582819D01*
X322720746Y-56582819D01*
X323720746Y-57106628D02*
X323720746Y-56106628D01*
X324292175Y-57106628D02*
X323863603Y-56535200D01*
X324292175Y-56106628D02*
X323720746Y-56678057D01*
X324673127Y-57059009D02*
X324815984Y-57106628D01*
X325054080Y-57106628D01*
X325149318Y-57059009D01*
X325196937Y-57011390D01*
X325244556Y-56916152D01*
X325244556Y-56820914D01*
X325196937Y-56725676D01*
X325149318Y-56678057D01*
X325054080Y-56630438D01*
X324863603Y-56582819D01*
X324768365Y-56535200D01*
X324720746Y-56487581D01*
X324673127Y-56392343D01*
X324673127Y-56297105D01*
X324720746Y-56201867D01*
X324768365Y-56154248D01*
X324863603Y-56106628D01*
X325101699Y-56106628D01*
X325244556Y-56154248D01*
X325673127Y-57106628D02*
X325673127Y-56106628D01*
X326054080Y-56106628D01*
X326149318Y-56154248D01*
X326196937Y-56201867D01*
X326244556Y-56297105D01*
X326244556Y-56439962D01*
X326196937Y-56535200D01*
X326149318Y-56582819D01*
X326054080Y-56630438D01*
X325673127Y-56630438D01*
X326625508Y-56201867D02*
X326673127Y-56154248D01*
X326768365Y-56106628D01*
X327006461Y-56106628D01*
X327101699Y-56154248D01*
X327149318Y-56201867D01*
X327196937Y-56297105D01*
X327196937Y-56392343D01*
X327149318Y-56535200D01*
X326577889Y-57106628D01*
X327196937Y-57106628D01*
%TO.C,MX_RETURN1*%
X324519015Y-95211574D02*
X324519015Y-94211574D01*
X324852349Y-94925860D01*
X325185682Y-94211574D01*
X325185682Y-95211574D01*
X325566635Y-94211574D02*
X326233301Y-95211574D01*
X326233301Y-94211574D02*
X325566635Y-95211574D01*
X326376158Y-95306813D02*
X327138063Y-95306813D01*
X327947587Y-95211574D02*
X327614254Y-94735384D01*
X327376158Y-95211574D02*
X327376158Y-94211574D01*
X327757111Y-94211574D01*
X327852349Y-94259194D01*
X327899968Y-94306813D01*
X327947587Y-94402051D01*
X327947587Y-94544908D01*
X327899968Y-94640146D01*
X327852349Y-94687765D01*
X327757111Y-94735384D01*
X327376158Y-94735384D01*
X328376158Y-94687765D02*
X328709492Y-94687765D01*
X328852349Y-95211574D02*
X328376158Y-95211574D01*
X328376158Y-94211574D01*
X328852349Y-94211574D01*
X329138063Y-94211574D02*
X329709492Y-94211574D01*
X329423777Y-95211574D02*
X329423777Y-94211574D01*
X330042825Y-94211574D02*
X330042825Y-95021098D01*
X330090444Y-95116336D01*
X330138063Y-95163955D01*
X330233301Y-95211574D01*
X330423777Y-95211574D01*
X330519015Y-95163955D01*
X330566635Y-95116336D01*
X330614254Y-95021098D01*
X330614254Y-94211574D01*
X331661873Y-95211574D02*
X331328539Y-94735384D01*
X331090444Y-95211574D02*
X331090444Y-94211574D01*
X331471396Y-94211574D01*
X331566635Y-94259194D01*
X331614254Y-94306813D01*
X331661873Y-94402051D01*
X331661873Y-94544908D01*
X331614254Y-94640146D01*
X331566635Y-94687765D01*
X331471396Y-94735384D01*
X331090444Y-94735384D01*
X332090444Y-95211574D02*
X332090444Y-94211574D01*
X332661873Y-95211574D01*
X332661873Y-94211574D01*
X333661873Y-95211574D02*
X333090444Y-95211574D01*
X333376158Y-95211574D02*
X333376158Y-94211574D01*
X333280920Y-94354432D01*
X333185682Y-94449670D01*
X333090444Y-94497289D01*
%TO.C,MX_LSHIFT1*%
X52536499Y-114259480D02*
X52536499Y-113259480D01*
X52869832Y-113973766D01*
X53203166Y-113259480D01*
X53203166Y-114259480D01*
X53584118Y-113259480D02*
X54250785Y-114259480D01*
X54250785Y-113259480D02*
X53584118Y-114259480D01*
X54393642Y-114354719D02*
X55155547Y-114354719D01*
X55869832Y-114259480D02*
X55393642Y-114259480D01*
X55393642Y-113259480D01*
X56155547Y-114211861D02*
X56298404Y-114259480D01*
X56536499Y-114259480D01*
X56631737Y-114211861D01*
X56679356Y-114164242D01*
X56726975Y-114069004D01*
X56726975Y-113973766D01*
X56679356Y-113878528D01*
X56631737Y-113830909D01*
X56536499Y-113783290D01*
X56346023Y-113735671D01*
X56250785Y-113688052D01*
X56203166Y-113640433D01*
X56155547Y-113545195D01*
X56155547Y-113449957D01*
X56203166Y-113354719D01*
X56250785Y-113307100D01*
X56346023Y-113259480D01*
X56584118Y-113259480D01*
X56726975Y-113307100D01*
X57155547Y-114259480D02*
X57155547Y-113259480D01*
X57155547Y-113735671D02*
X57726975Y-113735671D01*
X57726975Y-114259480D02*
X57726975Y-113259480D01*
X58203166Y-114259480D02*
X58203166Y-113259480D01*
X59012689Y-113735671D02*
X58679356Y-113735671D01*
X58679356Y-114259480D02*
X58679356Y-113259480D01*
X59155547Y-113259480D01*
X59393642Y-113259480D02*
X59965070Y-113259480D01*
X59679356Y-114259480D02*
X59679356Y-113259480D01*
X60822213Y-114259480D02*
X60250785Y-114259480D01*
X60536499Y-114259480D02*
X60536499Y-113259480D01*
X60441261Y-113402338D01*
X60346023Y-113497576D01*
X60250785Y-113545195D01*
%TO.C,MX_SPACE2*%
X136705630Y-142107439D02*
X136913541Y-141129291D01*
X137091082Y-141897272D01*
X137565640Y-141267899D01*
X137357728Y-142246047D01*
X137938267Y-141347103D02*
X138382454Y-142463859D01*
X138590366Y-141485711D02*
X137730356Y-142325251D01*
X138502388Y-142586717D02*
X139247644Y-142745126D01*
X139463659Y-142644993D02*
X139593494Y-142721273D01*
X139826386Y-142770776D01*
X139929444Y-142743999D01*
X139985923Y-142707321D01*
X140052302Y-142624064D01*
X140072103Y-142530908D01*
X140045326Y-142427850D01*
X140008648Y-142371371D01*
X139925392Y-142304992D01*
X139748979Y-142218811D01*
X139665722Y-142152431D01*
X139629044Y-142095952D01*
X139602267Y-141992895D01*
X139622068Y-141899738D01*
X139688448Y-141816482D01*
X139744927Y-141779804D01*
X139847984Y-141753026D01*
X140080876Y-141802529D01*
X140210711Y-141878809D01*
X140431906Y-142899483D02*
X140639818Y-141921336D01*
X141012446Y-142000540D01*
X141095702Y-142066920D01*
X141132380Y-142123399D01*
X141159157Y-142226456D01*
X141129455Y-142366192D01*
X141063076Y-142449448D01*
X141006597Y-142486126D01*
X140903539Y-142512903D01*
X140530912Y-142433699D01*
X141422879Y-142818024D02*
X141888663Y-142917029D01*
X141270318Y-143077693D02*
X141804279Y-142168850D01*
X141922417Y-143216301D01*
X142827209Y-143311255D02*
X142770730Y-143347933D01*
X142621094Y-143364810D01*
X142527937Y-143345008D01*
X142398102Y-143268728D01*
X142324746Y-143155770D01*
X142297969Y-143052713D01*
X142290993Y-142856498D01*
X142320694Y-142716763D01*
X142406875Y-142540350D01*
X142473254Y-142457093D01*
X142586212Y-142383738D01*
X142735848Y-142366861D01*
X142829005Y-142386662D01*
X142958840Y-142462942D01*
X142995518Y-142519421D01*
X143335520Y-142981154D02*
X143661569Y-143050458D01*
X143692398Y-143592522D02*
X143226614Y-143493517D01*
X143434525Y-142515369D01*
X143900310Y-142614375D01*
X144253136Y-142786736D02*
X144309615Y-142750058D01*
X144412673Y-142723281D01*
X144645565Y-142772784D01*
X144728822Y-142839163D01*
X144765499Y-142895642D01*
X144792277Y-142998700D01*
X144772476Y-143091857D01*
X144696196Y-143221691D01*
X144018447Y-143661826D01*
X144623967Y-143790533D01*
%TO.C,MX_SPACE1*%
X139036556Y-142602893D02*
X139244467Y-141624745D01*
X139422008Y-142392726D01*
X139896566Y-141763353D01*
X139688654Y-142741501D01*
X140269193Y-141842557D02*
X140713380Y-142959313D01*
X140921292Y-141981165D02*
X140061282Y-142820705D01*
X140833314Y-143082171D02*
X141578570Y-143240580D01*
X141794585Y-143140447D02*
X141924420Y-143216727D01*
X142157312Y-143266230D01*
X142260370Y-143239453D01*
X142316849Y-143202775D01*
X142383228Y-143119518D01*
X142403029Y-143026362D01*
X142376252Y-142923304D01*
X142339574Y-142866825D01*
X142256318Y-142800446D01*
X142079905Y-142714265D01*
X141996648Y-142647885D01*
X141959970Y-142591406D01*
X141933193Y-142488349D01*
X141952994Y-142395192D01*
X142019374Y-142311936D01*
X142075853Y-142275258D01*
X142178910Y-142248480D01*
X142411802Y-142297983D01*
X142541637Y-142374263D01*
X142762832Y-143394937D02*
X142970744Y-142416790D01*
X143343372Y-142495994D01*
X143426628Y-142562374D01*
X143463306Y-142618853D01*
X143490083Y-142721910D01*
X143460381Y-142861646D01*
X143394002Y-142944902D01*
X143337523Y-142981580D01*
X143234465Y-143008357D01*
X142861838Y-142929153D01*
X143753805Y-143313478D02*
X144219589Y-143412483D01*
X143601244Y-143573147D02*
X144135205Y-142664304D01*
X144253343Y-143711755D01*
X145158135Y-143806709D02*
X145101656Y-143843387D01*
X144952020Y-143860264D01*
X144858863Y-143840462D01*
X144729028Y-143764182D01*
X144655672Y-143651224D01*
X144628895Y-143548167D01*
X144621919Y-143351952D01*
X144651620Y-143212217D01*
X144737801Y-143035804D01*
X144804180Y-142952547D01*
X144917138Y-142879192D01*
X145066774Y-142862315D01*
X145159931Y-142882116D01*
X145289766Y-142958396D01*
X145326444Y-143014875D01*
X145666446Y-143476608D02*
X145992495Y-143545912D01*
X146023324Y-144087976D02*
X145557540Y-143988971D01*
X145765451Y-143010823D01*
X146231236Y-143109829D01*
X146954893Y-144285987D02*
X146395952Y-144167181D01*
X146675423Y-144226584D02*
X146883334Y-143248437D01*
X146760476Y-143368371D01*
X146647518Y-143441727D01*
X146544460Y-143468504D01*
%TO.C,MX_SPACE3*%
X216750155Y-145761271D02*
X216542243Y-144783123D01*
X217016801Y-145412496D01*
X217194342Y-144644515D01*
X217402254Y-145622663D01*
X217566970Y-144565311D02*
X218426980Y-145404851D01*
X218219068Y-144426703D02*
X217774881Y-145543459D01*
X218586516Y-145468306D02*
X219331771Y-145309897D01*
X219488384Y-145130560D02*
X219638020Y-145147436D01*
X219870912Y-145097934D01*
X219954168Y-145031554D01*
X219990846Y-144975075D01*
X220017623Y-144872018D01*
X219997822Y-144778861D01*
X219931443Y-144695604D01*
X219874964Y-144658926D01*
X219771906Y-144632149D01*
X219575692Y-144625173D01*
X219472634Y-144598395D01*
X219416155Y-144561718D01*
X219349776Y-144478461D01*
X219329975Y-144385304D01*
X219356752Y-144282247D01*
X219393430Y-144225768D01*
X219476686Y-144159388D01*
X219709579Y-144109885D01*
X219859214Y-144126762D01*
X220476432Y-144969226D02*
X220268520Y-143991079D01*
X220641148Y-143911874D01*
X220744205Y-143938652D01*
X220800684Y-143975330D01*
X220867064Y-144058586D01*
X220896765Y-144198321D01*
X220869988Y-144301379D01*
X220833310Y-144357858D01*
X220750054Y-144424237D01*
X220377426Y-144503442D01*
X221348598Y-144491744D02*
X221814382Y-144392739D01*
X221314844Y-144791016D02*
X221432981Y-143743565D01*
X221966942Y-144652409D01*
X222832132Y-144371141D02*
X222795454Y-144427620D01*
X222665619Y-144503900D01*
X222572462Y-144523701D01*
X222422826Y-144506825D01*
X222309868Y-144433469D01*
X222243489Y-144350212D01*
X222157308Y-144173799D01*
X222127606Y-144034064D01*
X222134583Y-143837849D01*
X222161360Y-143734792D01*
X222234716Y-143621834D01*
X222364551Y-143545554D01*
X222457708Y-143525753D01*
X222607343Y-143542629D01*
X222663822Y-143579307D01*
X223162233Y-143862830D02*
X223488282Y-143793526D01*
X223736924Y-144276187D02*
X223271139Y-144375193D01*
X223063227Y-143397045D01*
X223529012Y-143298040D01*
X223855061Y-143228736D02*
X224460581Y-143100029D01*
X224213736Y-143541960D01*
X224353472Y-143512259D01*
X224456529Y-143539036D01*
X224513008Y-143575714D01*
X224579388Y-143658970D01*
X224628891Y-143891862D01*
X224602113Y-143994920D01*
X224565435Y-144051399D01*
X224482179Y-144117778D01*
X224202708Y-144177182D01*
X224099651Y-144150404D01*
X224043172Y-144113727D01*
%TO.C,MX_#7*%
X195736438Y-72326527D02*
X195528526Y-71348380D01*
X196003084Y-71977753D01*
X196180625Y-71209772D01*
X196388536Y-72187919D01*
X196553252Y-71130567D02*
X197413262Y-71970107D01*
X197205351Y-70991960D02*
X196761164Y-72108715D01*
X197572799Y-72033562D02*
X198318054Y-71875153D01*
X198345959Y-71090296D02*
X199044636Y-70941788D01*
X198536325Y-70611686D02*
X198524169Y-71928708D01*
X199040584Y-71380795D02*
X198341907Y-71529303D01*
X198850218Y-71859404D02*
X198862374Y-70542383D01*
X199208224Y-70566236D02*
X199860323Y-70427628D01*
X199649028Y-71494880D01*
%TO.C,MX_#-1*%
X272596364Y-55609995D02*
X272596364Y-54609995D01*
X272929698Y-55324281D01*
X273263031Y-54609995D01*
X273263031Y-55609995D01*
X273643983Y-54609995D02*
X274310650Y-55609995D01*
X274310650Y-54609995D02*
X273643983Y-55609995D01*
X274453507Y-55705234D02*
X275215412Y-55705234D01*
X275405888Y-54943329D02*
X276120174Y-54943329D01*
X275691602Y-54514757D02*
X275405888Y-55800472D01*
X276024936Y-55371900D02*
X275310650Y-55371900D01*
X275739221Y-55800472D02*
X276024936Y-54514757D01*
X276453507Y-55229043D02*
X277215412Y-55229043D01*
X278215412Y-55609995D02*
X277643983Y-55609995D01*
X277929698Y-55609995D02*
X277929698Y-54609995D01*
X277834459Y-54752853D01*
X277739221Y-54848091D01*
X277643983Y-54895710D01*
%TO.C,MX_BCKSP1*%
X327801915Y-76163447D02*
X327801915Y-75163447D01*
X328135249Y-75877733D01*
X328468582Y-75163447D01*
X328468582Y-76163447D01*
X328849534Y-75163447D02*
X329516201Y-76163447D01*
X329516201Y-75163447D02*
X328849534Y-76163447D01*
X329659058Y-76258686D02*
X330420963Y-76258686D01*
X330992392Y-75639638D02*
X331135249Y-75687257D01*
X331182868Y-75734876D01*
X331230487Y-75830114D01*
X331230487Y-75972971D01*
X331182868Y-76068209D01*
X331135249Y-76115828D01*
X331040011Y-76163447D01*
X330659058Y-76163447D01*
X330659058Y-75163447D01*
X330992392Y-75163447D01*
X331087630Y-75211067D01*
X331135249Y-75258686D01*
X331182868Y-75353924D01*
X331182868Y-75449162D01*
X331135249Y-75544400D01*
X331087630Y-75592019D01*
X330992392Y-75639638D01*
X330659058Y-75639638D01*
X332230487Y-76068209D02*
X332182868Y-76115828D01*
X332040011Y-76163447D01*
X331944773Y-76163447D01*
X331801915Y-76115828D01*
X331706677Y-76020590D01*
X331659058Y-75925352D01*
X331611439Y-75734876D01*
X331611439Y-75592019D01*
X331659058Y-75401543D01*
X331706677Y-75306305D01*
X331801915Y-75211067D01*
X331944773Y-75163447D01*
X332040011Y-75163447D01*
X332182868Y-75211067D01*
X332230487Y-75258686D01*
X332659058Y-76163447D02*
X332659058Y-75163447D01*
X333230487Y-76163447D02*
X332801915Y-75592019D01*
X333230487Y-75163447D02*
X332659058Y-75734876D01*
X333611439Y-76115828D02*
X333754296Y-76163447D01*
X333992392Y-76163447D01*
X334087630Y-76115828D01*
X334135249Y-76068209D01*
X334182868Y-75972971D01*
X334182868Y-75877733D01*
X334135249Y-75782495D01*
X334087630Y-75734876D01*
X333992392Y-75687257D01*
X333801915Y-75639638D01*
X333706677Y-75592019D01*
X333659058Y-75544400D01*
X333611439Y-75449162D01*
X333611439Y-75353924D01*
X333659058Y-75258686D01*
X333706677Y-75211067D01*
X333801915Y-75163447D01*
X334040011Y-75163447D01*
X334182868Y-75211067D01*
X334611439Y-76163447D02*
X334611439Y-75163447D01*
X334992392Y-75163447D01*
X335087630Y-75211067D01*
X335135249Y-75258686D01*
X335182868Y-75353924D01*
X335182868Y-75496781D01*
X335135249Y-75592019D01*
X335087630Y-75639638D01*
X334992392Y-75687257D01*
X334611439Y-75687257D01*
X336135249Y-76163447D02*
X335563820Y-76163447D01*
X335849534Y-76163447D02*
X335849534Y-75163447D01*
X335754296Y-75306305D01*
X335659058Y-75401543D01*
X335563820Y-75449162D01*
%TO.C,MX_RALT1*%
X256977314Y-137210724D02*
X256769403Y-136232577D01*
X257243960Y-136861950D01*
X257421501Y-136093969D01*
X257629413Y-137072117D01*
X257794129Y-136014765D02*
X258654139Y-136854304D01*
X258446227Y-135876157D02*
X258002040Y-136992912D01*
X258813675Y-136917760D02*
X259558931Y-136759351D01*
X260330963Y-136497884D02*
X259905908Y-136101404D01*
X259772022Y-136616691D02*
X259564110Y-135638543D01*
X259936738Y-135559339D01*
X260039795Y-135586116D01*
X260096274Y-135622794D01*
X260162654Y-135706051D01*
X260192355Y-135845786D01*
X260165578Y-135948843D01*
X260128900Y-136005322D01*
X260045644Y-136071702D01*
X259673016Y-136150906D01*
X260644188Y-136139209D02*
X261109972Y-136040204D01*
X260610434Y-136438481D02*
X260728571Y-135391029D01*
X261262532Y-136299873D01*
X262054366Y-136131564D02*
X261588582Y-136230569D01*
X261380670Y-135252422D01*
X262032768Y-135113814D02*
X262591710Y-134995007D01*
X262520151Y-136032558D02*
X262312239Y-135054411D01*
X263638034Y-135794945D02*
X263079092Y-135913751D01*
X263358563Y-135854348D02*
X263150651Y-134876200D01*
X263087196Y-135035737D01*
X263013840Y-135148695D01*
X262930584Y-135215075D01*
%TO.C,MX_LCTRL1*%
X45666410Y-133311514D02*
X45666410Y-132311514D01*
X45999743Y-133025800D01*
X46333076Y-132311514D01*
X46333076Y-133311514D01*
X46714029Y-132311514D02*
X47380695Y-133311514D01*
X47380695Y-132311514D02*
X46714029Y-133311514D01*
X47523553Y-133406753D02*
X48285457Y-133406753D01*
X48999743Y-133311514D02*
X48523553Y-133311514D01*
X48523553Y-132311514D01*
X49904505Y-133216276D02*
X49856886Y-133263895D01*
X49714029Y-133311514D01*
X49618791Y-133311514D01*
X49475933Y-133263895D01*
X49380695Y-133168657D01*
X49333076Y-133073419D01*
X49285457Y-132882943D01*
X49285457Y-132740086D01*
X49333076Y-132549610D01*
X49380695Y-132454372D01*
X49475933Y-132359134D01*
X49618791Y-132311514D01*
X49714029Y-132311514D01*
X49856886Y-132359134D01*
X49904505Y-132406753D01*
X50190219Y-132311514D02*
X50761648Y-132311514D01*
X50475933Y-133311514D02*
X50475933Y-132311514D01*
X51666410Y-133311514D02*
X51333076Y-132835324D01*
X51094981Y-133311514D02*
X51094981Y-132311514D01*
X51475933Y-132311514D01*
X51571172Y-132359134D01*
X51618791Y-132406753D01*
X51666410Y-132501991D01*
X51666410Y-132644848D01*
X51618791Y-132740086D01*
X51571172Y-132787705D01*
X51475933Y-132835324D01*
X51094981Y-132835324D01*
X52571172Y-133311514D02*
X52094981Y-133311514D01*
X52094981Y-132311514D01*
X53428314Y-133311514D02*
X52856886Y-133311514D01*
X53142600Y-133311514D02*
X53142600Y-132311514D01*
X53047362Y-132454372D01*
X52952124Y-132549610D01*
X52856886Y-132597229D01*
%TO.C,MX_LALT2*%
X107146102Y-135824367D02*
X107354013Y-134846220D01*
X107531554Y-135614201D01*
X108006112Y-134984828D01*
X107798200Y-135962975D01*
X108378739Y-135064032D02*
X108822926Y-136180787D01*
X109030838Y-135202640D02*
X108170828Y-136042180D01*
X108942860Y-136303646D02*
X109688116Y-136462055D01*
X110406594Y-136517406D02*
X109940809Y-136418401D01*
X110148721Y-135440253D01*
X110745468Y-136297339D02*
X111211252Y-136396345D01*
X110592907Y-136557009D02*
X111126868Y-135648165D01*
X111245006Y-136695616D01*
X112036840Y-136863926D02*
X111571055Y-136764920D01*
X111778967Y-135786773D01*
X112431065Y-135925381D02*
X112990007Y-136044187D01*
X112502624Y-136962931D02*
X112710536Y-135984784D01*
X113249676Y-136196747D02*
X113306155Y-136160070D01*
X113409213Y-136133292D01*
X113642105Y-136182795D01*
X113725361Y-136249175D01*
X113762039Y-136305654D01*
X113788817Y-136408711D01*
X113769016Y-136501868D01*
X113692735Y-136631703D01*
X113014987Y-137071838D01*
X113620507Y-137200545D01*
%TO.C,MX_#TAB1*%
X54273913Y-76157983D02*
X54273913Y-75157983D01*
X54607246Y-75872269D01*
X54940580Y-75157983D01*
X54940580Y-76157983D01*
X55321532Y-75157983D02*
X55988199Y-76157983D01*
X55988199Y-75157983D02*
X55321532Y-76157983D01*
X56131056Y-76253222D02*
X56892961Y-76253222D01*
X57083437Y-75491317D02*
X57797723Y-75491317D01*
X57369151Y-75062745D02*
X57083437Y-76348460D01*
X57702484Y-75919888D02*
X56988199Y-75919888D01*
X57416770Y-76348460D02*
X57702484Y-75062745D01*
X57988199Y-75157983D02*
X58559627Y-75157983D01*
X58273913Y-76157983D02*
X58273913Y-75157983D01*
X58845342Y-75872269D02*
X59321532Y-75872269D01*
X58750104Y-76157983D02*
X59083437Y-75157983D01*
X59416770Y-76157983D01*
X60083437Y-75634174D02*
X60226294Y-75681793D01*
X60273913Y-75729412D01*
X60321532Y-75824650D01*
X60321532Y-75967507D01*
X60273913Y-76062745D01*
X60226294Y-76110364D01*
X60131056Y-76157983D01*
X59750104Y-76157983D01*
X59750104Y-75157983D01*
X60083437Y-75157983D01*
X60178675Y-75205603D01*
X60226294Y-75253222D01*
X60273913Y-75348460D01*
X60273913Y-75443698D01*
X60226294Y-75538936D01*
X60178675Y-75586555D01*
X60083437Y-75634174D01*
X59750104Y-75634174D01*
X61273913Y-76157983D02*
X60702484Y-76157983D01*
X60988199Y-76157983D02*
X60988199Y-75157983D01*
X60892961Y-75300841D01*
X60797723Y-75396079D01*
X60702484Y-75443698D01*
%TO.C,MX_CAPS2*%
X45356127Y-95214414D02*
X45356127Y-94214414D01*
X45689460Y-94928700D01*
X46022794Y-94214414D01*
X46022794Y-95214414D01*
X46403746Y-94214414D02*
X47070413Y-95214414D01*
X47070413Y-94214414D02*
X46403746Y-95214414D01*
X47213270Y-95309653D02*
X47975175Y-95309653D01*
X48784698Y-95119176D02*
X48737079Y-95166795D01*
X48594222Y-95214414D01*
X48498984Y-95214414D01*
X48356127Y-95166795D01*
X48260889Y-95071557D01*
X48213270Y-94976319D01*
X48165651Y-94785843D01*
X48165651Y-94642986D01*
X48213270Y-94452510D01*
X48260889Y-94357272D01*
X48356127Y-94262034D01*
X48498984Y-94214414D01*
X48594222Y-94214414D01*
X48737079Y-94262034D01*
X48784698Y-94309653D01*
X49165651Y-94928700D02*
X49641841Y-94928700D01*
X49070413Y-95214414D02*
X49403746Y-94214414D01*
X49737079Y-95214414D01*
X50070413Y-95214414D02*
X50070413Y-94214414D01*
X50451365Y-94214414D01*
X50546603Y-94262034D01*
X50594222Y-94309653D01*
X50641841Y-94404891D01*
X50641841Y-94547748D01*
X50594222Y-94642986D01*
X50546603Y-94690605D01*
X50451365Y-94738224D01*
X50070413Y-94738224D01*
X51022794Y-95166795D02*
X51165651Y-95214414D01*
X51403746Y-95214414D01*
X51498984Y-95166795D01*
X51546603Y-95119176D01*
X51594222Y-95023938D01*
X51594222Y-94928700D01*
X51546603Y-94833462D01*
X51498984Y-94785843D01*
X51403746Y-94738224D01*
X51213270Y-94690605D01*
X51118032Y-94642986D01*
X51070413Y-94595367D01*
X51022794Y-94500129D01*
X51022794Y-94404891D01*
X51070413Y-94309653D01*
X51118032Y-94262034D01*
X51213270Y-94214414D01*
X51451365Y-94214414D01*
X51594222Y-94262034D01*
X51975175Y-94309653D02*
X52022794Y-94262034D01*
X52118032Y-94214414D01*
X52356127Y-94214414D01*
X52451365Y-94262034D01*
X52498984Y-94309653D01*
X52546603Y-94404891D01*
X52546603Y-94500129D01*
X52498984Y-94642986D01*
X51927556Y-95214414D01*
X52546603Y-95214414D01*
%TO.C,MX_Z1*%
X85465245Y-114268343D02*
X85465245Y-113268343D01*
X85798579Y-113982629D01*
X86131912Y-113268343D01*
X86131912Y-114268343D01*
X86512864Y-113268343D02*
X87179531Y-114268343D01*
X87179531Y-113268343D02*
X86512864Y-114268343D01*
X87322388Y-114363582D02*
X88084293Y-114363582D01*
X88227150Y-113268343D02*
X88893817Y-113268343D01*
X88227150Y-114268343D01*
X88893817Y-114268343D01*
X89798579Y-114268343D02*
X89227150Y-114268343D01*
X89512864Y-114268343D02*
X89512864Y-113268343D01*
X89417626Y-113411201D01*
X89322388Y-113506439D01*
X89227150Y-113554058D01*
%TO.C,MX_Y1*%
X190450168Y-92925747D02*
X190242256Y-91947600D01*
X190716814Y-92576973D01*
X190894354Y-91808992D01*
X191102266Y-92787140D01*
X191266982Y-91729787D02*
X192126992Y-92569327D01*
X191919080Y-91591180D02*
X191474894Y-92707935D01*
X192286529Y-92632783D02*
X193031784Y-92474374D01*
X193332183Y-91826327D02*
X193431189Y-92292112D01*
X192897228Y-91383268D02*
X193332183Y-91826327D01*
X193549326Y-91244660D01*
X194595650Y-92044598D02*
X194036709Y-92163404D01*
X194316180Y-92104001D02*
X194108268Y-91125854D01*
X194044813Y-91285390D01*
X193971457Y-91398348D01*
X193888201Y-91464728D01*
%TO.C,MX_X1*%
X107568868Y-116434757D02*
X107776779Y-115456609D01*
X107954320Y-116224590D01*
X108428878Y-115595217D01*
X108220966Y-116573365D01*
X108801505Y-115674421D02*
X109245692Y-116791177D01*
X109453604Y-115813029D02*
X108593594Y-116652569D01*
X109365626Y-116914035D02*
X110110882Y-117072444D01*
X110478330Y-116030841D02*
X110922517Y-117147597D01*
X111130428Y-116169449D02*
X110270418Y-117008989D01*
X111807507Y-117335707D02*
X111248566Y-117216901D01*
X111528036Y-117276304D02*
X111735948Y-116298157D01*
X111613090Y-116418091D01*
X111500132Y-116491447D01*
X111397074Y-116518224D01*
%TO.C,MX_W1*%
X101423192Y-76182697D02*
X101631103Y-75204549D01*
X101808644Y-75972530D01*
X102283202Y-75343157D01*
X102075290Y-76321304D01*
X102655829Y-75422361D02*
X103100016Y-76539117D01*
X103307928Y-75560969D02*
X102447918Y-76400509D01*
X103219950Y-76661975D02*
X103965206Y-76820384D01*
X104332654Y-75778781D02*
X104357635Y-76806432D01*
X104692457Y-76147357D01*
X104730262Y-76885636D01*
X105171066Y-75956991D01*
X105848145Y-77123250D02*
X105289204Y-77004443D01*
X105568674Y-77063846D02*
X105776586Y-76085699D01*
X105653728Y-76205633D01*
X105540769Y-76278989D01*
X105437712Y-76305766D01*
%TO.C,MX_V1*%
X144882869Y-124366092D02*
X145090781Y-123387945D01*
X145268322Y-124155926D01*
X145742879Y-123526553D01*
X145534967Y-124504700D01*
X146115507Y-123605757D02*
X146559694Y-124722512D01*
X146767605Y-123744365D02*
X145907595Y-124583905D01*
X146679628Y-124845371D02*
X147424883Y-125003780D01*
X147745753Y-123952276D02*
X147863890Y-124999728D01*
X148397851Y-124090884D01*
X149028352Y-125247242D02*
X148469410Y-125128435D01*
X148748881Y-125187839D02*
X148956793Y-124209691D01*
X148833934Y-124329625D01*
X148720976Y-124402981D01*
X148617919Y-124429758D01*
%TO.C,MX_UP1*%
X343044210Y-119026630D02*
X343044210Y-118026630D01*
X343377544Y-118740916D01*
X343710877Y-118026630D01*
X343710877Y-119026630D01*
X344091829Y-118026630D02*
X344758496Y-119026630D01*
X344758496Y-118026630D02*
X344091829Y-119026630D01*
X344901353Y-119121869D02*
X345663258Y-119121869D01*
X345901353Y-118026630D02*
X345901353Y-118836154D01*
X345948972Y-118931392D01*
X345996591Y-118979011D01*
X346091829Y-119026630D01*
X346282306Y-119026630D01*
X346377544Y-118979011D01*
X346425163Y-118931392D01*
X346472782Y-118836154D01*
X346472782Y-118026630D01*
X346948972Y-119026630D02*
X346948972Y-118026630D01*
X347329925Y-118026630D01*
X347425163Y-118074250D01*
X347472782Y-118121869D01*
X347520401Y-118217107D01*
X347520401Y-118359964D01*
X347472782Y-118455202D01*
X347425163Y-118502821D01*
X347329925Y-118550440D01*
X346948972Y-118550440D01*
X348472782Y-119026630D02*
X347901353Y-119026630D01*
X348187067Y-119026630D02*
X348187067Y-118026630D01*
X348091829Y-118169488D01*
X347996591Y-118264726D01*
X347901353Y-118312345D01*
%TO.C,MX_U1*%
X208990723Y-88984830D02*
X208782811Y-88006683D01*
X209257369Y-88636056D01*
X209434909Y-87868075D01*
X209642821Y-88846223D01*
X209807537Y-87788871D02*
X210667547Y-88628410D01*
X210459636Y-87650263D02*
X210015449Y-88767018D01*
X210827084Y-88691866D02*
X211572339Y-88533457D01*
X211577518Y-87412649D02*
X211745828Y-88204483D01*
X211812208Y-88287740D01*
X211868687Y-88324417D01*
X211971744Y-88351195D01*
X212158058Y-88311593D01*
X212241314Y-88245213D01*
X212277992Y-88188734D01*
X212304769Y-88085677D01*
X212136460Y-87293843D01*
X213322519Y-88064079D02*
X212763578Y-88182885D01*
X213043049Y-88123482D02*
X212835137Y-87145334D01*
X212771682Y-87304871D01*
X212698326Y-87417829D01*
X212615069Y-87484209D01*
%TO.C,MX_T1*%
X157510641Y-88104452D02*
X157718552Y-87126304D01*
X157896093Y-87894285D01*
X158370651Y-87264912D01*
X158162739Y-88243060D01*
X158743278Y-87344117D02*
X159187465Y-88460872D01*
X159395377Y-87482724D02*
X158535367Y-88322264D01*
X159307399Y-88583731D02*
X160052655Y-88742139D01*
X160373524Y-87690636D02*
X160932466Y-87809443D01*
X160445083Y-88728187D02*
X160652995Y-87750039D01*
X161562966Y-88965800D02*
X161004025Y-88846994D01*
X161283496Y-88906397D02*
X161491407Y-87928249D01*
X161368549Y-88048184D01*
X161255591Y-88121539D01*
X161152533Y-88148317D01*
%TO.C,MX_S1*%
X102212730Y-95820686D02*
X102420641Y-94842538D01*
X102598182Y-95610519D01*
X103072740Y-94981146D01*
X102864828Y-95959294D01*
X103445367Y-95060350D02*
X103889554Y-96177106D01*
X104097466Y-95198958D02*
X103237456Y-96038498D01*
X104009488Y-96299964D02*
X104754744Y-96458373D01*
X104970759Y-96358240D02*
X105100594Y-96434520D01*
X105333486Y-96484023D01*
X105436544Y-96457246D01*
X105493023Y-96420568D01*
X105559402Y-96337311D01*
X105579203Y-96244155D01*
X105552426Y-96141097D01*
X105515748Y-96084618D01*
X105432492Y-96018239D01*
X105256079Y-95932058D01*
X105172822Y-95865678D01*
X105136144Y-95809199D01*
X105109367Y-95706142D01*
X105129168Y-95612985D01*
X105195548Y-95529729D01*
X105252027Y-95493051D01*
X105355084Y-95466273D01*
X105587976Y-95515776D01*
X105717811Y-95592056D01*
X106451369Y-96721636D02*
X105892428Y-96602830D01*
X106171898Y-96662233D02*
X106379810Y-95684086D01*
X106256952Y-95804020D01*
X106143994Y-95877376D01*
X106040936Y-95904153D01*
%TO.C,MX_RSHIFT1*%
X310561349Y-114261574D02*
X310561349Y-113261574D01*
X310894682Y-113975860D01*
X311228015Y-113261574D01*
X311228015Y-114261574D01*
X311608968Y-113261574D02*
X312275635Y-114261574D01*
X312275635Y-113261574D02*
X311608968Y-114261574D01*
X312418492Y-114356813D02*
X313180396Y-114356813D01*
X313989920Y-114261574D02*
X313656587Y-113785384D01*
X313418492Y-114261574D02*
X313418492Y-113261574D01*
X313799444Y-113261574D01*
X313894682Y-113309194D01*
X313942301Y-113356813D01*
X313989920Y-113452051D01*
X313989920Y-113594908D01*
X313942301Y-113690146D01*
X313894682Y-113737765D01*
X313799444Y-113785384D01*
X313418492Y-113785384D01*
X314370873Y-114213955D02*
X314513730Y-114261574D01*
X314751825Y-114261574D01*
X314847063Y-114213955D01*
X314894682Y-114166336D01*
X314942301Y-114071098D01*
X314942301Y-113975860D01*
X314894682Y-113880622D01*
X314847063Y-113833003D01*
X314751825Y-113785384D01*
X314561349Y-113737765D01*
X314466111Y-113690146D01*
X314418492Y-113642527D01*
X314370873Y-113547289D01*
X314370873Y-113452051D01*
X314418492Y-113356813D01*
X314466111Y-113309194D01*
X314561349Y-113261574D01*
X314799444Y-113261574D01*
X314942301Y-113309194D01*
X315370873Y-114261574D02*
X315370873Y-113261574D01*
X315370873Y-113737765D02*
X315942301Y-113737765D01*
X315942301Y-114261574D02*
X315942301Y-113261574D01*
X316418492Y-114261574D02*
X316418492Y-113261574D01*
X317228015Y-113737765D02*
X316894682Y-113737765D01*
X316894682Y-114261574D02*
X316894682Y-113261574D01*
X317370873Y-113261574D01*
X317608968Y-113261574D02*
X318180396Y-113261574D01*
X317894682Y-114261574D02*
X317894682Y-113261574D01*
X319037539Y-114261574D02*
X318466111Y-114261574D01*
X318751825Y-114261574D02*
X318751825Y-113261574D01*
X318656587Y-113404432D01*
X318561349Y-113499670D01*
X318466111Y-113547289D01*
%TO.C,MX_RIGHT1*%
X360975163Y-138076630D02*
X360975163Y-137076630D01*
X361308496Y-137790916D01*
X361641829Y-137076630D01*
X361641829Y-138076630D01*
X362022782Y-137076630D02*
X362689448Y-138076630D01*
X362689448Y-137076630D02*
X362022782Y-138076630D01*
X362832306Y-138171869D02*
X363594210Y-138171869D01*
X364403734Y-138076630D02*
X364070401Y-137600440D01*
X363832306Y-138076630D02*
X363832306Y-137076630D01*
X364213258Y-137076630D01*
X364308496Y-137124250D01*
X364356115Y-137171869D01*
X364403734Y-137267107D01*
X364403734Y-137409964D01*
X364356115Y-137505202D01*
X364308496Y-137552821D01*
X364213258Y-137600440D01*
X363832306Y-137600440D01*
X364832306Y-138076630D02*
X364832306Y-137076630D01*
X365832306Y-137124250D02*
X365737067Y-137076630D01*
X365594210Y-137076630D01*
X365451353Y-137124250D01*
X365356115Y-137219488D01*
X365308496Y-137314726D01*
X365260877Y-137505202D01*
X365260877Y-137648059D01*
X365308496Y-137838535D01*
X365356115Y-137933773D01*
X365451353Y-138029011D01*
X365594210Y-138076630D01*
X365689448Y-138076630D01*
X365832306Y-138029011D01*
X365879925Y-137981392D01*
X365879925Y-137648059D01*
X365689448Y-137648059D01*
X366308496Y-138076630D02*
X366308496Y-137076630D01*
X366308496Y-137552821D02*
X366879925Y-137552821D01*
X366879925Y-138076630D02*
X366879925Y-137076630D01*
X367213258Y-137076630D02*
X367784687Y-137076630D01*
X367498972Y-138076630D02*
X367498972Y-137076630D01*
X368641829Y-138076630D02*
X368070401Y-138076630D01*
X368356115Y-138076630D02*
X368356115Y-137076630D01*
X368260877Y-137219488D01*
X368165639Y-137314726D01*
X368070401Y-137362345D01*
%TO.C,MX_R1*%
X138760482Y-84118983D02*
X138968394Y-83140835D01*
X139145935Y-83908816D01*
X139620493Y-83279443D01*
X139412581Y-84257590D01*
X139993120Y-83358647D02*
X140437307Y-84475403D01*
X140645219Y-83497255D02*
X139785208Y-84336795D01*
X140557241Y-84598261D02*
X141302496Y-84756670D01*
X142114131Y-84831823D02*
X141887088Y-84296734D01*
X141555190Y-84713016D02*
X141763102Y-83734868D01*
X142135729Y-83814073D01*
X142218986Y-83880452D01*
X142255663Y-83936931D01*
X142282441Y-84039989D01*
X142252739Y-84179724D01*
X142186360Y-84262981D01*
X142129881Y-84299658D01*
X142026823Y-84326436D01*
X141654195Y-84247231D01*
X143045700Y-85029834D02*
X142486759Y-84911027D01*
X142766230Y-84970430D02*
X142974141Y-83992283D01*
X142851283Y-84112217D01*
X142738325Y-84185573D01*
X142635267Y-84212350D01*
%TO.C,MX_Q1*%
X79370317Y-76161838D02*
X79370317Y-75161838D01*
X79703651Y-75876124D01*
X80036984Y-75161838D01*
X80036984Y-76161838D01*
X80417936Y-75161838D02*
X81084603Y-76161838D01*
X81084603Y-75161838D02*
X80417936Y-76161838D01*
X81227460Y-76257077D02*
X81989365Y-76257077D01*
X82894127Y-76257077D02*
X82798889Y-76209458D01*
X82703651Y-76114219D01*
X82560794Y-75971362D01*
X82465555Y-75923743D01*
X82370317Y-75923743D01*
X82417936Y-76161838D02*
X82322698Y-76114219D01*
X82227460Y-76018981D01*
X82179841Y-75828505D01*
X82179841Y-75495172D01*
X82227460Y-75304696D01*
X82322698Y-75209458D01*
X82417936Y-75161838D01*
X82608413Y-75161838D01*
X82703651Y-75209458D01*
X82798889Y-75304696D01*
X82846508Y-75495172D01*
X82846508Y-75828505D01*
X82798889Y-76018981D01*
X82703651Y-76114219D01*
X82608413Y-76161838D01*
X82417936Y-76161838D01*
X83798889Y-76161838D02*
X83227460Y-76161838D01*
X83513174Y-76161838D02*
X83513174Y-75161838D01*
X83417936Y-75304696D01*
X83322698Y-75399934D01*
X83227460Y-75447553D01*
%TO.C,MX_PGDN1*%
X356825922Y-71400306D02*
X356825922Y-70400306D01*
X357159256Y-71114592D01*
X357492589Y-70400306D01*
X357492589Y-71400306D01*
X357873541Y-70400306D02*
X358540208Y-71400306D01*
X358540208Y-70400306D02*
X357873541Y-71400306D01*
X358683065Y-71495545D02*
X359444970Y-71495545D01*
X359683065Y-71400306D02*
X359683065Y-70400306D01*
X360064018Y-70400306D01*
X360159256Y-70447926D01*
X360206875Y-70495545D01*
X360254494Y-70590783D01*
X360254494Y-70733640D01*
X360206875Y-70828878D01*
X360159256Y-70876497D01*
X360064018Y-70924116D01*
X359683065Y-70924116D01*
X361206875Y-70447926D02*
X361111637Y-70400306D01*
X360968779Y-70400306D01*
X360825922Y-70447926D01*
X360730684Y-70543164D01*
X360683065Y-70638402D01*
X360635446Y-70828878D01*
X360635446Y-70971735D01*
X360683065Y-71162211D01*
X360730684Y-71257449D01*
X360825922Y-71352687D01*
X360968779Y-71400306D01*
X361064018Y-71400306D01*
X361206875Y-71352687D01*
X361254494Y-71305068D01*
X361254494Y-70971735D01*
X361064018Y-70971735D01*
X361683065Y-71400306D02*
X361683065Y-70400306D01*
X361921160Y-70400306D01*
X362064018Y-70447926D01*
X362159256Y-70543164D01*
X362206875Y-70638402D01*
X362254494Y-70828878D01*
X362254494Y-70971735D01*
X362206875Y-71162211D01*
X362159256Y-71257449D01*
X362064018Y-71352687D01*
X361921160Y-71400306D01*
X361683065Y-71400306D01*
X362683065Y-71400306D02*
X362683065Y-70400306D01*
X363254494Y-71400306D01*
X363254494Y-70400306D01*
X364254494Y-71400306D02*
X363683065Y-71400306D01*
X363968779Y-71400306D02*
X363968779Y-70400306D01*
X363873541Y-70543164D01*
X363778303Y-70638402D01*
X363683065Y-70686021D01*
%TO.C,MX_P1*%
X264915147Y-77097727D02*
X264707235Y-76119580D01*
X265181793Y-76748953D01*
X265359334Y-75980972D01*
X265567245Y-76959119D01*
X265731961Y-75901767D02*
X266591971Y-76741307D01*
X266384060Y-75763160D02*
X265939873Y-76879915D01*
X266751508Y-76804762D02*
X267496763Y-76646353D01*
X267709854Y-76503694D02*
X267501943Y-75525546D01*
X267874570Y-75446342D01*
X267977628Y-75473119D01*
X268034107Y-75509797D01*
X268100486Y-75593053D01*
X268130188Y-75732789D01*
X268103411Y-75835846D01*
X268066733Y-75892325D01*
X267983477Y-75958705D01*
X267610849Y-76037909D01*
X269200365Y-76186876D02*
X268641424Y-76305683D01*
X268920894Y-76246279D02*
X268712983Y-75268132D01*
X268649527Y-75427668D01*
X268576172Y-75540626D01*
X268492915Y-75607006D01*
%TO.C,MX_O1*%
X246258146Y-81063395D02*
X246050234Y-80085248D01*
X246524792Y-80714621D01*
X246702332Y-79946640D01*
X246910244Y-80924788D01*
X247074960Y-79867436D02*
X247934970Y-80706975D01*
X247727059Y-79728828D02*
X247282872Y-80845583D01*
X248094507Y-80770431D02*
X248839762Y-80612022D01*
X249031255Y-79451612D02*
X249217569Y-79412010D01*
X249320627Y-79438787D01*
X249433585Y-79512143D01*
X249519765Y-79688556D01*
X249589069Y-80014606D01*
X249582093Y-80210820D01*
X249508737Y-80323778D01*
X249425481Y-80390158D01*
X249239167Y-80429760D01*
X249136110Y-80402982D01*
X249023152Y-80329627D01*
X248936971Y-80153213D01*
X248867667Y-79827164D01*
X248874643Y-79630950D01*
X248947999Y-79517992D01*
X249031255Y-79451612D01*
X250589942Y-80142644D02*
X250031001Y-80261450D01*
X250310472Y-80202047D02*
X250102560Y-79223899D01*
X250039105Y-79383436D01*
X249965749Y-79496394D01*
X249882492Y-79562774D01*
%TO.C,MX_N1*%
X207589983Y-128234096D02*
X207382071Y-127255949D01*
X207856629Y-127885322D01*
X208034169Y-127117341D01*
X208242081Y-128095489D01*
X208406797Y-127038137D02*
X209266807Y-127877676D01*
X209058896Y-126899529D02*
X208614709Y-128016284D01*
X209426344Y-127941132D02*
X210171599Y-127782723D01*
X210384690Y-127640063D02*
X210176778Y-126661915D01*
X210943632Y-127521256D01*
X210735720Y-126543109D01*
X211921779Y-127313345D02*
X211362838Y-127432151D01*
X211642309Y-127372748D02*
X211434397Y-126394600D01*
X211370942Y-126554137D01*
X211297586Y-126667095D01*
X211214329Y-126733475D01*
%TO.C,MX_M1*%
X226177116Y-124283279D02*
X225969205Y-123305131D01*
X226443762Y-123934504D01*
X226621303Y-123166524D01*
X226829215Y-124144671D01*
X226993931Y-123087319D02*
X227853941Y-123926859D01*
X227646029Y-122948711D02*
X227201842Y-124065467D01*
X228013477Y-123990314D02*
X228758733Y-123831905D01*
X228971824Y-123689246D02*
X228763912Y-122711098D01*
X229238470Y-123340471D01*
X229416010Y-122572490D01*
X229623922Y-123550638D01*
X230602070Y-123342726D02*
X230043128Y-123461533D01*
X230322599Y-123402129D02*
X230114687Y-122423982D01*
X230051232Y-122583518D01*
X229977876Y-122696476D01*
X229894620Y-122762856D01*
%TO.C,MX_LWIN1*%
X167592643Y-148672676D02*
X167800554Y-147694528D01*
X167978095Y-148462509D01*
X168452653Y-147833136D01*
X168244741Y-148811284D01*
X168825280Y-147912341D02*
X169269467Y-149029096D01*
X169477379Y-148050948D02*
X168617369Y-148890488D01*
X169389401Y-149151955D02*
X170134657Y-149310364D01*
X170853135Y-149365715D02*
X170387350Y-149266709D01*
X170595262Y-148288562D01*
X171293939Y-148437070D02*
X171318919Y-149464721D01*
X171653741Y-148805646D01*
X171691547Y-149543925D01*
X172132351Y-148615280D01*
X172297067Y-149672632D02*
X172504978Y-148694485D01*
X172762851Y-149771638D02*
X172970763Y-148793490D01*
X173321793Y-149890445D01*
X173529704Y-148912297D01*
X174299940Y-150098356D02*
X173740999Y-149979550D01*
X174020470Y-150038953D02*
X174228381Y-149060805D01*
X174105523Y-149180740D01*
X173992565Y-149254095D01*
X173889507Y-149280873D01*
%TO.C,MX_LEFT1*%
X323351353Y-138076630D02*
X323351353Y-137076630D01*
X323684687Y-137790916D01*
X324018020Y-137076630D01*
X324018020Y-138076630D01*
X324398972Y-137076630D02*
X325065639Y-138076630D01*
X325065639Y-137076630D02*
X324398972Y-138076630D01*
X325208496Y-138171869D02*
X325970401Y-138171869D01*
X326684687Y-138076630D02*
X326208496Y-138076630D01*
X326208496Y-137076630D01*
X327018020Y-137552821D02*
X327351353Y-137552821D01*
X327494210Y-138076630D02*
X327018020Y-138076630D01*
X327018020Y-137076630D01*
X327494210Y-137076630D01*
X328256115Y-137552821D02*
X327922782Y-137552821D01*
X327922782Y-138076630D02*
X327922782Y-137076630D01*
X328398972Y-137076630D01*
X328637067Y-137076630D02*
X329208496Y-137076630D01*
X328922782Y-138076630D02*
X328922782Y-137076630D01*
X330065639Y-138076630D02*
X329494210Y-138076630D01*
X329779925Y-138076630D02*
X329779925Y-137076630D01*
X329684687Y-137219488D01*
X329589448Y-137314726D01*
X329494210Y-137362345D01*
%TO.C,MX_LALT1*%
X104818111Y-135329537D02*
X105026022Y-134351390D01*
X105203563Y-135119371D01*
X105678121Y-134489998D01*
X105470209Y-135468145D01*
X106050748Y-134569202D02*
X106494935Y-135685957D01*
X106702847Y-134707810D02*
X105842837Y-135547350D01*
X106614869Y-135808816D02*
X107360125Y-135967225D01*
X108078603Y-136022576D02*
X107612818Y-135923571D01*
X107820730Y-134945423D01*
X108417477Y-135802509D02*
X108883261Y-135901515D01*
X108264916Y-136062179D02*
X108798877Y-135153335D01*
X108917015Y-136200786D01*
X109708849Y-136369096D02*
X109243064Y-136270090D01*
X109450976Y-135291943D01*
X110103074Y-135430551D02*
X110662016Y-135549357D01*
X110174633Y-136468101D02*
X110382545Y-135489954D01*
X111292516Y-136705715D02*
X110733575Y-136586908D01*
X111013045Y-136646311D02*
X111220957Y-135668164D01*
X111098099Y-135788098D01*
X110985141Y-135861454D01*
X110882083Y-135888231D01*
%TO.C,MX_L1*%
X254998061Y-98683924D02*
X254790149Y-97705776D01*
X255264707Y-98335149D01*
X255442248Y-97567169D01*
X255650159Y-98545316D01*
X255814875Y-97487964D02*
X256674885Y-98327504D01*
X256466974Y-97349356D02*
X256022787Y-98466112D01*
X256834422Y-98390959D02*
X257579677Y-98232550D01*
X258258553Y-97990885D02*
X257792768Y-98089891D01*
X257584857Y-97111743D01*
X259096965Y-97812675D02*
X258538024Y-97931482D01*
X258817494Y-97872078D02*
X258609583Y-96893931D01*
X258546127Y-97053467D01*
X258472772Y-97166425D01*
X258389515Y-97232805D01*
%TO.C,MX_K1*%
X236271192Y-102664443D02*
X236063280Y-101686296D01*
X236537838Y-102315669D01*
X236715379Y-101547688D01*
X236923290Y-102525835D01*
X237088006Y-101468483D02*
X237948016Y-102308023D01*
X237740105Y-101329876D02*
X237295918Y-102446631D01*
X238107553Y-102371478D02*
X238852808Y-102213069D01*
X239065899Y-102070410D02*
X238857988Y-101092262D01*
X239624841Y-101951603D02*
X239086828Y-101481767D01*
X239416929Y-100973455D02*
X238976794Y-101651204D01*
X240556410Y-101753592D02*
X239997469Y-101872399D01*
X240276939Y-101812995D02*
X240069028Y-100834848D01*
X240005572Y-100994384D01*
X239932217Y-101107342D01*
X239848960Y-101173722D01*
%TO.C,MX_J1*%
X217753927Y-106600409D02*
X217546015Y-105622261D01*
X218020573Y-106251634D01*
X218198114Y-105483653D01*
X218406026Y-106461801D01*
X218570741Y-105404449D02*
X219430752Y-106243989D01*
X219222840Y-105265841D02*
X218778653Y-106382597D01*
X219590288Y-106307444D02*
X220335543Y-106149035D01*
X220620194Y-104968824D02*
X220768702Y-105667501D01*
X220751825Y-105817137D01*
X220678469Y-105930095D01*
X220548635Y-106006375D01*
X220455478Y-106026176D01*
X221806253Y-105739060D02*
X221247311Y-105857867D01*
X221526782Y-105798464D02*
X221318870Y-104820316D01*
X221255415Y-104979853D01*
X221182059Y-105092811D01*
X221098803Y-105159190D01*
%TO.C,MX_I1*%
X227903905Y-84964709D02*
X227695993Y-83986562D01*
X228170550Y-84615934D01*
X228348091Y-83847954D01*
X228556003Y-84826101D01*
X228720719Y-83768749D02*
X229580729Y-84608289D01*
X229372817Y-83630141D02*
X228928631Y-84746897D01*
X229740265Y-84671744D02*
X230485521Y-84513335D01*
X230698612Y-84370676D02*
X230490700Y-83392528D01*
X231676760Y-84162764D02*
X231117818Y-84281571D01*
X231397289Y-84222167D02*
X231189377Y-83244020D01*
X231125922Y-83403556D01*
X231052566Y-83516514D01*
X230969310Y-83582894D01*
%TO.C,MX_H1*%
X198980480Y-110590828D02*
X198772568Y-109612681D01*
X199247126Y-110242054D01*
X199424666Y-109474073D01*
X199632578Y-110452221D01*
X199797294Y-109394869D02*
X200657304Y-110234408D01*
X200449393Y-109256261D02*
X200005206Y-110373016D01*
X200816841Y-110297864D02*
X201562096Y-110139455D01*
X201775187Y-109996795D02*
X201567275Y-109018647D01*
X201666281Y-109484432D02*
X202225223Y-109365625D01*
X202334129Y-109877988D02*
X202126217Y-108899841D01*
X203312276Y-109670077D02*
X202753335Y-109788883D01*
X203032806Y-109729480D02*
X202824894Y-108751332D01*
X202761439Y-108910869D01*
X202688083Y-109023827D01*
X202604826Y-109090207D01*
%TO.C,MX_G1*%
X158090575Y-107697889D02*
X158298487Y-106719741D01*
X158476028Y-107487722D01*
X158950586Y-106858349D01*
X158742674Y-107836496D01*
X159323213Y-106937553D02*
X159767400Y-108054309D01*
X159975312Y-107076161D02*
X159115301Y-107915701D01*
X159887334Y-108177167D02*
X160632589Y-108335576D01*
X161595657Y-107469259D02*
X161512401Y-107402879D01*
X161372665Y-107373178D01*
X161223029Y-107390054D01*
X161110071Y-107463410D01*
X161043692Y-107546667D01*
X160957511Y-107723080D01*
X160927809Y-107862815D01*
X160934786Y-108059030D01*
X160961563Y-108162087D01*
X161034919Y-108275045D01*
X161164754Y-108351325D01*
X161257910Y-108371126D01*
X161407546Y-108354250D01*
X161464025Y-108317572D01*
X161533329Y-107991522D01*
X161347016Y-107951920D01*
X162375793Y-108608740D02*
X161816852Y-108489933D01*
X162096323Y-108549336D02*
X162304234Y-107571189D01*
X162181376Y-107691123D01*
X162068418Y-107764479D01*
X161965360Y-107791256D01*
%TO.C,MX_FN1*%
X362164474Y-90447245D02*
X362164474Y-89447245D01*
X362497807Y-90161531D01*
X362831141Y-89447245D01*
X362831141Y-90447245D01*
X363212093Y-89447245D02*
X363878760Y-90447245D01*
X363878760Y-89447245D02*
X363212093Y-90447245D01*
X364021617Y-90542484D02*
X364783522Y-90542484D01*
X365354950Y-89923436D02*
X365021617Y-89923436D01*
X365021617Y-90447245D02*
X365021617Y-89447245D01*
X365497807Y-89447245D01*
X365878760Y-90447245D02*
X365878760Y-89447245D01*
X366450188Y-90447245D01*
X366450188Y-89447245D01*
X367450188Y-90447245D02*
X366878760Y-90447245D01*
X367164474Y-90447245D02*
X367164474Y-89447245D01*
X367069236Y-89590103D01*
X366973998Y-89685341D01*
X366878760Y-89732960D01*
%TO.C,MX_F1*%
X139526732Y-103752022D02*
X139734644Y-102773875D01*
X139912185Y-103541856D01*
X140386742Y-102912483D01*
X140178830Y-103890630D01*
X140759370Y-102991687D02*
X141203557Y-104108442D01*
X141411468Y-103130295D02*
X140551458Y-103969835D01*
X141323491Y-104231301D02*
X142068746Y-104389710D01*
X142756395Y-103902997D02*
X142430346Y-103833693D01*
X142321440Y-104346056D02*
X142529351Y-103367908D01*
X142995136Y-103466914D01*
X143672215Y-104633172D02*
X143113273Y-104514365D01*
X143392744Y-104573769D02*
X143600656Y-103595621D01*
X143477797Y-103715555D01*
X143364839Y-103788911D01*
X143261782Y-103815688D01*
%TO.C,MX_ESC1*%
X54054834Y-57111298D02*
X54054834Y-56111298D01*
X54388168Y-56825584D01*
X54721501Y-56111298D01*
X54721501Y-57111298D01*
X55102453Y-56111298D02*
X55769120Y-57111298D01*
X55769120Y-56111298D02*
X55102453Y-57111298D01*
X55911977Y-57206537D02*
X56673882Y-57206537D01*
X56911977Y-56587489D02*
X57245311Y-56587489D01*
X57388168Y-57111298D02*
X56911977Y-57111298D01*
X56911977Y-56111298D01*
X57388168Y-56111298D01*
X57769120Y-57063679D02*
X57911977Y-57111298D01*
X58150073Y-57111298D01*
X58245311Y-57063679D01*
X58292930Y-57016060D01*
X58340549Y-56920822D01*
X58340549Y-56825584D01*
X58292930Y-56730346D01*
X58245311Y-56682727D01*
X58150073Y-56635108D01*
X57959596Y-56587489D01*
X57864358Y-56539870D01*
X57816739Y-56492251D01*
X57769120Y-56397013D01*
X57769120Y-56301775D01*
X57816739Y-56206537D01*
X57864358Y-56158918D01*
X57959596Y-56111298D01*
X58197692Y-56111298D01*
X58340549Y-56158918D01*
X59340549Y-57016060D02*
X59292930Y-57063679D01*
X59150073Y-57111298D01*
X59054834Y-57111298D01*
X58911977Y-57063679D01*
X58816739Y-56968441D01*
X58769120Y-56873203D01*
X58721501Y-56682727D01*
X58721501Y-56539870D01*
X58769120Y-56349394D01*
X58816739Y-56254156D01*
X58911977Y-56158918D01*
X59054834Y-56111298D01*
X59150073Y-56111298D01*
X59292930Y-56158918D01*
X59340549Y-56206537D01*
X60292930Y-57111298D02*
X59721501Y-57111298D01*
X60007215Y-57111298D02*
X60007215Y-56111298D01*
X59911977Y-56254156D01*
X59816739Y-56349394D01*
X59721501Y-56397013D01*
%TO.C,MX_E1*%
X120173350Y-80168165D02*
X120381262Y-79190017D01*
X120558802Y-79957998D01*
X121033360Y-79328625D01*
X120825448Y-80306773D01*
X121405988Y-79407830D02*
X121850174Y-80524585D01*
X122058086Y-79546438D02*
X121198076Y-80385977D01*
X121970109Y-80647444D02*
X122715364Y-80805853D01*
X123076963Y-80249835D02*
X123403013Y-80319139D01*
X123433842Y-80861204D02*
X122968057Y-80762198D01*
X123175969Y-79784051D01*
X123641754Y-79883056D01*
X124365411Y-81059215D02*
X123806470Y-80940408D01*
X124085940Y-80999812D02*
X124293852Y-80021664D01*
X124170993Y-80141598D01*
X124058035Y-80214954D01*
X123954978Y-80241732D01*
%TO.C,MX_DOWN1*%
X341948972Y-138076630D02*
X341948972Y-137076630D01*
X342282306Y-137790916D01*
X342615639Y-137076630D01*
X342615639Y-138076630D01*
X342996591Y-137076630D02*
X343663258Y-138076630D01*
X343663258Y-137076630D02*
X342996591Y-138076630D01*
X343806115Y-138171869D02*
X344568020Y-138171869D01*
X344806115Y-138076630D02*
X344806115Y-137076630D01*
X345044210Y-137076630D01*
X345187067Y-137124250D01*
X345282306Y-137219488D01*
X345329925Y-137314726D01*
X345377544Y-137505202D01*
X345377544Y-137648059D01*
X345329925Y-137838535D01*
X345282306Y-137933773D01*
X345187067Y-138029011D01*
X345044210Y-138076630D01*
X344806115Y-138076630D01*
X345996591Y-137076630D02*
X346187067Y-137076630D01*
X346282306Y-137124250D01*
X346377544Y-137219488D01*
X346425163Y-137409964D01*
X346425163Y-137743297D01*
X346377544Y-137933773D01*
X346282306Y-138029011D01*
X346187067Y-138076630D01*
X345996591Y-138076630D01*
X345901353Y-138029011D01*
X345806115Y-137933773D01*
X345758496Y-137743297D01*
X345758496Y-137409964D01*
X345806115Y-137219488D01*
X345901353Y-137124250D01*
X345996591Y-137076630D01*
X346758496Y-137076630D02*
X346996591Y-138076630D01*
X347187067Y-137362345D01*
X347377544Y-138076630D01*
X347615639Y-137076630D01*
X347996591Y-138076630D02*
X347996591Y-137076630D01*
X348568020Y-138076630D01*
X348568020Y-137076630D01*
X349568020Y-138076630D02*
X348996591Y-138076630D01*
X349282306Y-138076630D02*
X349282306Y-137076630D01*
X349187067Y-137219488D01*
X349091829Y-137314726D01*
X348996591Y-137362345D01*
%TO.C,MX_D1*%
X120823151Y-99776454D02*
X121031063Y-98798306D01*
X121208604Y-99566287D01*
X121683162Y-98936914D01*
X121475250Y-99915061D01*
X122055789Y-99016118D02*
X122499976Y-100132874D01*
X122707888Y-99154726D02*
X121847877Y-99994266D01*
X122619910Y-100255732D02*
X123365165Y-100414141D01*
X123617859Y-100370487D02*
X123825771Y-99392339D01*
X124058663Y-99441842D01*
X124188498Y-99518122D01*
X124261853Y-99631080D01*
X124288631Y-99734138D01*
X124295607Y-99930352D01*
X124265905Y-100070087D01*
X124179725Y-100246501D01*
X124113345Y-100329757D01*
X124000387Y-100403113D01*
X123850751Y-100419990D01*
X123617859Y-100370487D01*
X125108369Y-100687305D02*
X124549428Y-100568498D01*
X124828899Y-100627901D02*
X125036810Y-99649754D01*
X124913952Y-99769688D01*
X124800994Y-99843044D01*
X124697936Y-99869821D01*
%TO.C,MX_CAPS1*%
X52496262Y-95212875D02*
X52496262Y-94212875D01*
X52829595Y-94927161D01*
X53162929Y-94212875D01*
X53162929Y-95212875D01*
X53543881Y-94212875D02*
X54210548Y-95212875D01*
X54210548Y-94212875D02*
X53543881Y-95212875D01*
X54353405Y-95308114D02*
X55115310Y-95308114D01*
X55924833Y-95117637D02*
X55877214Y-95165256D01*
X55734357Y-95212875D01*
X55639119Y-95212875D01*
X55496262Y-95165256D01*
X55401024Y-95070018D01*
X55353405Y-94974780D01*
X55305786Y-94784304D01*
X55305786Y-94641447D01*
X55353405Y-94450971D01*
X55401024Y-94355733D01*
X55496262Y-94260495D01*
X55639119Y-94212875D01*
X55734357Y-94212875D01*
X55877214Y-94260495D01*
X55924833Y-94308114D01*
X56305786Y-94927161D02*
X56781976Y-94927161D01*
X56210548Y-95212875D02*
X56543881Y-94212875D01*
X56877214Y-95212875D01*
X57210548Y-95212875D02*
X57210548Y-94212875D01*
X57591500Y-94212875D01*
X57686738Y-94260495D01*
X57734357Y-94308114D01*
X57781976Y-94403352D01*
X57781976Y-94546209D01*
X57734357Y-94641447D01*
X57686738Y-94689066D01*
X57591500Y-94736685D01*
X57210548Y-94736685D01*
X58162929Y-95165256D02*
X58305786Y-95212875D01*
X58543881Y-95212875D01*
X58639119Y-95165256D01*
X58686738Y-95117637D01*
X58734357Y-95022399D01*
X58734357Y-94927161D01*
X58686738Y-94831923D01*
X58639119Y-94784304D01*
X58543881Y-94736685D01*
X58353405Y-94689066D01*
X58258167Y-94641447D01*
X58210548Y-94593828D01*
X58162929Y-94498590D01*
X58162929Y-94403352D01*
X58210548Y-94308114D01*
X58258167Y-94260495D01*
X58353405Y-94212875D01*
X58591500Y-94212875D01*
X58734357Y-94260495D01*
X59686738Y-95212875D02*
X59115310Y-95212875D01*
X59401024Y-95212875D02*
X59401024Y-94212875D01*
X59305786Y-94355733D01*
X59210548Y-94450971D01*
X59115310Y-94498590D01*
%TO.C,MX_C1*%
X126179289Y-120390524D02*
X126387201Y-119412376D01*
X126564742Y-120180357D01*
X127039300Y-119550984D01*
X126831388Y-120529131D01*
X127411927Y-119630188D02*
X127856114Y-120746944D01*
X128064026Y-119768796D02*
X127204015Y-120608336D01*
X127976048Y-120869802D02*
X128721303Y-121028211D01*
X129552739Y-121010207D02*
X129496260Y-121046885D01*
X129346624Y-121063761D01*
X129253468Y-121043960D01*
X129123633Y-120967680D01*
X129050277Y-120854722D01*
X129023500Y-120751665D01*
X129016523Y-120555450D01*
X129046225Y-120415715D01*
X129132406Y-120239302D01*
X129198785Y-120156045D01*
X129311743Y-120082689D01*
X129461379Y-120065813D01*
X129554536Y-120085614D01*
X129684371Y-120161894D01*
X129721049Y-120218373D01*
X130464507Y-121301375D02*
X129905566Y-121182568D01*
X130185037Y-121241971D02*
X130392948Y-120263824D01*
X130270090Y-120383758D01*
X130157132Y-120457114D01*
X130054074Y-120483891D01*
%TO.C,MX_B1*%
X163446713Y-128311960D02*
X163654625Y-127333812D01*
X163832166Y-128101793D01*
X164306724Y-127472420D01*
X164098812Y-128450567D01*
X164679351Y-127551624D02*
X165123538Y-128668380D01*
X165331450Y-127690232D02*
X164471439Y-128529772D01*
X165243472Y-128791238D02*
X165988727Y-128949647D01*
X166676376Y-128462934D02*
X166806211Y-128539214D01*
X166842889Y-128595693D01*
X166869666Y-128698750D01*
X166839965Y-128838486D01*
X166773585Y-128921742D01*
X166717106Y-128958420D01*
X166614048Y-128985197D01*
X166241421Y-128905993D01*
X166449333Y-127927845D01*
X166775382Y-127997149D01*
X166858638Y-128063529D01*
X166895316Y-128120008D01*
X166922093Y-128223065D01*
X166902292Y-128316222D01*
X166835913Y-128399479D01*
X166779434Y-128436156D01*
X166676376Y-128462934D01*
X166350327Y-128393630D01*
X167731931Y-129222811D02*
X167172990Y-129104004D01*
X167452461Y-129163407D02*
X167660372Y-128185260D01*
X167537514Y-128305194D01*
X167424556Y-128378550D01*
X167321498Y-128405327D01*
%TO.C,MX_A1*%
X80169010Y-95216219D02*
X80169010Y-94216219D01*
X80502344Y-94930505D01*
X80835677Y-94216219D01*
X80835677Y-95216219D01*
X81216629Y-94216219D02*
X81883296Y-95216219D01*
X81883296Y-94216219D02*
X81216629Y-95216219D01*
X82026153Y-95311458D02*
X82788058Y-95311458D01*
X82978534Y-94930505D02*
X83454725Y-94930505D01*
X82883296Y-95216219D02*
X83216629Y-94216219D01*
X83549963Y-95216219D01*
X84407106Y-95216219D02*
X83835677Y-95216219D01*
X84121391Y-95216219D02*
X84121391Y-94216219D01*
X84026153Y-94359077D01*
X83930915Y-94454315D01*
X83835677Y-94501934D01*
%TO.C,MX_]1*%
X306128773Y-76163447D02*
X306128773Y-75163447D01*
X306462106Y-75877733D01*
X306795439Y-75163447D01*
X306795439Y-76163447D01*
X307176392Y-75163447D02*
X307843058Y-76163447D01*
X307843058Y-75163447D02*
X307176392Y-76163447D01*
X307985915Y-76258686D02*
X308747820Y-76258686D01*
X308890677Y-76496781D02*
X309128773Y-76496781D01*
X309128773Y-75068209D01*
X308890677Y-75068209D01*
X310176392Y-76163447D02*
X309604963Y-76163447D01*
X309890677Y-76163447D02*
X309890677Y-75163447D01*
X309795439Y-75306305D01*
X309700201Y-75401543D01*
X309604963Y-75449162D01*
%TO.C,MX_[1*%
X287078773Y-76163447D02*
X287078773Y-75163447D01*
X287412106Y-75877733D01*
X287745439Y-75163447D01*
X287745439Y-76163447D01*
X288126392Y-75163447D02*
X288793058Y-76163447D01*
X288793058Y-75163447D02*
X288126392Y-76163447D01*
X288935915Y-76258686D02*
X289697820Y-76258686D01*
X290221630Y-76496781D02*
X289983534Y-76496781D01*
X289983534Y-75068209D01*
X290221630Y-75068209D01*
X291126392Y-76163447D02*
X290554963Y-76163447D01*
X290840677Y-76163447D02*
X290840677Y-75163447D01*
X290745439Y-75306305D01*
X290650201Y-75401543D01*
X290554963Y-75449162D01*
%TO.C,MX_?1*%
X286488396Y-114261574D02*
X286488396Y-113261574D01*
X286821730Y-113975860D01*
X287155063Y-113261574D01*
X287155063Y-114261574D01*
X287536015Y-113261574D02*
X288202682Y-114261574D01*
X288202682Y-113261574D02*
X287536015Y-114261574D01*
X288345539Y-114356813D02*
X289107444Y-114356813D01*
X289488396Y-114166336D02*
X289536015Y-114213955D01*
X289488396Y-114261574D01*
X289440777Y-114213955D01*
X289488396Y-114166336D01*
X289488396Y-114261574D01*
X289297920Y-113309194D02*
X289393158Y-113261574D01*
X289631254Y-113261574D01*
X289726492Y-113309194D01*
X289774111Y-113404432D01*
X289774111Y-113499670D01*
X289726492Y-113594908D01*
X289678873Y-113642527D01*
X289583635Y-113690146D01*
X289536015Y-113737765D01*
X289488396Y-113833003D01*
X289488396Y-113880622D01*
X290726492Y-114261574D02*
X290155063Y-114261574D01*
X290440777Y-114261574D02*
X290440777Y-113261574D01*
X290345539Y-113404432D01*
X290250301Y-113499670D01*
X290155063Y-113547289D01*
%TO.C,MX_>1*%
X263397961Y-116371745D02*
X263190049Y-115393597D01*
X263664607Y-116022970D01*
X263842148Y-115254989D01*
X264050059Y-116233137D01*
X264214775Y-115175785D02*
X265074785Y-116015325D01*
X264866874Y-115037177D02*
X264422687Y-116153932D01*
X265234322Y-116078780D02*
X265979577Y-115920371D01*
X266054060Y-115125613D02*
X266858719Y-115246675D01*
X266172867Y-115684554D01*
X267916071Y-115411391D02*
X267357130Y-115530197D01*
X267636600Y-115470794D02*
X267428689Y-114492646D01*
X267365234Y-114652183D01*
X267291878Y-114765141D01*
X267208621Y-114831520D01*
%TO.C,MX_<1*%
X244764249Y-120332463D02*
X244556337Y-119354315D01*
X245030895Y-119983688D01*
X245208436Y-119215707D01*
X245416347Y-120193855D01*
X245581063Y-119136503D02*
X246441073Y-119976043D01*
X246233162Y-118997895D02*
X245788975Y-120114650D01*
X246600610Y-120039498D02*
X247345865Y-119881089D01*
X248165604Y-118927922D02*
X247479752Y-119365802D01*
X248284410Y-119486863D01*
X249282359Y-119372109D02*
X248723418Y-119490915D01*
X249002888Y-119431512D02*
X248794977Y-118453364D01*
X248731522Y-118612901D01*
X248658166Y-118725859D01*
X248574909Y-118792238D01*
%TO.C,MX_:1*%
X277153873Y-95211574D02*
X277153873Y-94211574D01*
X277487206Y-94925860D01*
X277820539Y-94211574D01*
X277820539Y-95211574D01*
X278201492Y-94211574D02*
X278868158Y-95211574D01*
X278868158Y-94211574D02*
X278201492Y-95211574D01*
X279011015Y-95306813D02*
X279772920Y-95306813D01*
X280011015Y-95116336D02*
X280058635Y-95163955D01*
X280011015Y-95211574D01*
X279963396Y-95163955D01*
X280011015Y-95116336D01*
X280011015Y-95211574D01*
X280011015Y-94592527D02*
X280058635Y-94640146D01*
X280011015Y-94687765D01*
X279963396Y-94640146D01*
X280011015Y-94592527D01*
X280011015Y-94687765D01*
X281011015Y-95211574D02*
X280439587Y-95211574D01*
X280725301Y-95211574D02*
X280725301Y-94211574D01*
X280630063Y-94354432D01*
X280534825Y-94449670D01*
X280439587Y-94497289D01*
%TO.C,MX_#|1*%
X329888603Y-57106628D02*
X329888603Y-56106628D01*
X330221937Y-56820914D01*
X330555270Y-56106628D01*
X330555270Y-57106628D01*
X330936222Y-56106628D02*
X331602889Y-57106628D01*
X331602889Y-56106628D02*
X330936222Y-57106628D01*
X331745746Y-57201867D02*
X332507651Y-57201867D01*
X332698127Y-56439962D02*
X333412413Y-56439962D01*
X332983841Y-56011390D02*
X332698127Y-57297105D01*
X333317175Y-56868533D02*
X332602889Y-56868533D01*
X333031461Y-57297105D02*
X333317175Y-56011390D01*
X333983841Y-57439962D02*
X333983841Y-56011390D01*
X335221937Y-57106628D02*
X334650508Y-57106628D01*
X334936222Y-57106628D02*
X334936222Y-56106628D01*
X334840984Y-56249486D01*
X334745746Y-56344724D01*
X334650508Y-56392343D01*
%TO.C,MX_#PGUP1*%
X352150552Y-52345561D02*
X352150552Y-51345561D01*
X352483886Y-52059847D01*
X352817219Y-51345561D01*
X352817219Y-52345561D01*
X353198171Y-51345561D02*
X353864838Y-52345561D01*
X353864838Y-51345561D02*
X353198171Y-52345561D01*
X354007695Y-52440800D02*
X354769600Y-52440800D01*
X354960076Y-51678895D02*
X355674362Y-51678895D01*
X355245790Y-51250323D02*
X354960076Y-52536038D01*
X355579124Y-52107466D02*
X354864838Y-52107466D01*
X355293409Y-52536038D02*
X355579124Y-51250323D01*
X356007695Y-52345561D02*
X356007695Y-51345561D01*
X356388648Y-51345561D01*
X356483886Y-51393181D01*
X356531505Y-51440800D01*
X356579124Y-51536038D01*
X356579124Y-51678895D01*
X356531505Y-51774133D01*
X356483886Y-51821752D01*
X356388648Y-51869371D01*
X356007695Y-51869371D01*
X357531505Y-51393181D02*
X357436267Y-51345561D01*
X357293409Y-51345561D01*
X357150552Y-51393181D01*
X357055314Y-51488419D01*
X357007695Y-51583657D01*
X356960076Y-51774133D01*
X356960076Y-51916990D01*
X357007695Y-52107466D01*
X357055314Y-52202704D01*
X357150552Y-52297942D01*
X357293409Y-52345561D01*
X357388648Y-52345561D01*
X357531505Y-52297942D01*
X357579124Y-52250323D01*
X357579124Y-51916990D01*
X357388648Y-51916990D01*
X358007695Y-51345561D02*
X358007695Y-52155085D01*
X358055314Y-52250323D01*
X358102933Y-52297942D01*
X358198171Y-52345561D01*
X358388648Y-52345561D01*
X358483886Y-52297942D01*
X358531505Y-52250323D01*
X358579124Y-52155085D01*
X358579124Y-51345561D01*
X359055314Y-52345561D02*
X359055314Y-51345561D01*
X359436267Y-51345561D01*
X359531505Y-51393181D01*
X359579124Y-51440800D01*
X359626743Y-51536038D01*
X359626743Y-51678895D01*
X359579124Y-51774133D01*
X359531505Y-51821752D01*
X359436267Y-51869371D01*
X359055314Y-51869371D01*
X360579124Y-52345561D02*
X360007695Y-52345561D01*
X360293409Y-52345561D02*
X360293409Y-51345561D01*
X360198171Y-51488419D01*
X360102933Y-51583657D01*
X360007695Y-51631276D01*
%TO.C,MX_#`1*%
X311124318Y-57106628D02*
X311124318Y-56106628D01*
X311457651Y-56820914D01*
X311790984Y-56106628D01*
X311790984Y-57106628D01*
X312171937Y-56106628D02*
X312838603Y-57106628D01*
X312838603Y-56106628D02*
X312171937Y-57106628D01*
X312981461Y-57201867D02*
X313743365Y-57201867D01*
X313933841Y-56439962D02*
X314648127Y-56439962D01*
X314219556Y-56011390D02*
X313933841Y-57297105D01*
X314552889Y-56868533D02*
X313838603Y-56868533D01*
X314267175Y-57297105D02*
X314552889Y-56011390D01*
X314838603Y-56059009D02*
X314981461Y-56201867D01*
X315886222Y-57106628D02*
X315314794Y-57106628D01*
X315600508Y-57106628D02*
X315600508Y-56106628D01*
X315505270Y-56249486D01*
X315410032Y-56344724D01*
X315314794Y-56392343D01*
%TO.C,MX_#+1*%
X291645746Y-57106628D02*
X291645746Y-56106628D01*
X291979080Y-56820914D01*
X292312413Y-56106628D01*
X292312413Y-57106628D01*
X292693365Y-56106628D02*
X293360032Y-57106628D01*
X293360032Y-56106628D02*
X292693365Y-57106628D01*
X293502889Y-57201867D02*
X294264794Y-57201867D01*
X294455270Y-56439962D02*
X295169556Y-56439962D01*
X294740984Y-56011390D02*
X294455270Y-57297105D01*
X295074318Y-56868533D02*
X294360032Y-56868533D01*
X294788603Y-57297105D02*
X295074318Y-56011390D01*
X295502889Y-56725676D02*
X296264794Y-56725676D01*
X295883841Y-57106628D02*
X295883841Y-56344724D01*
X297264794Y-57106628D02*
X296693365Y-57106628D01*
X296979080Y-57106628D02*
X296979080Y-56106628D01*
X296883841Y-56249486D01*
X296788603Y-56344724D01*
X296693365Y-56392343D01*
%TO.C,MX_#9*%
X233003862Y-64405092D02*
X232795950Y-63426945D01*
X233270508Y-64056318D01*
X233448049Y-63288337D01*
X233655960Y-64266484D01*
X233820676Y-63209132D02*
X234680686Y-64048672D01*
X234472775Y-63070525D02*
X234028588Y-64187280D01*
X234840223Y-64112127D02*
X235585478Y-63953718D01*
X235613383Y-63168861D02*
X236312060Y-63020353D01*
X235803749Y-62690251D02*
X235791593Y-64007273D01*
X236308008Y-63459360D02*
X235609331Y-63607868D01*
X236117642Y-63937969D02*
X236129798Y-62620948D01*
X236823295Y-63593247D02*
X237009609Y-63553644D01*
X237092866Y-63487265D01*
X237129544Y-63430786D01*
X237192999Y-63271249D01*
X237199975Y-63075035D01*
X237120771Y-62702407D01*
X237054391Y-62619151D01*
X236997912Y-62582473D01*
X236894855Y-62555696D01*
X236708541Y-62595298D01*
X236625284Y-62661677D01*
X236588606Y-62718156D01*
X236561829Y-62821214D01*
X236611332Y-63054106D01*
X236677711Y-63137363D01*
X236734190Y-63174040D01*
X236837248Y-63200818D01*
X237023562Y-63161216D01*
X237106818Y-63094836D01*
X237143496Y-63038357D01*
X237170273Y-62935299D01*
%TO.C,MX_#8*%
X214370150Y-68365809D02*
X214162238Y-67387662D01*
X214636796Y-68017035D01*
X214814337Y-67249054D01*
X215022248Y-68227201D01*
X215186964Y-67169849D02*
X216046974Y-68009389D01*
X215839063Y-67031242D02*
X215394876Y-68147997D01*
X216206511Y-68072844D02*
X216951766Y-67914435D01*
X216979671Y-67129578D02*
X217678348Y-66981070D01*
X217170037Y-66650968D02*
X217157881Y-67967990D01*
X217674296Y-67420077D02*
X216975619Y-67568585D01*
X217483930Y-67898686D02*
X217496086Y-66581665D01*
X218163934Y-66975221D02*
X218060876Y-66948444D01*
X218004397Y-66911766D01*
X217938018Y-66828509D01*
X217928117Y-66781931D01*
X217954894Y-66678873D01*
X217991572Y-66622394D01*
X218074829Y-66556015D01*
X218261143Y-66516413D01*
X218364200Y-66543190D01*
X218420679Y-66579868D01*
X218487059Y-66663124D01*
X218496959Y-66709703D01*
X218470182Y-66812760D01*
X218433504Y-66869239D01*
X218350248Y-66935619D01*
X218163934Y-66975221D01*
X218080677Y-67041600D01*
X218043999Y-67098080D01*
X218017222Y-67201137D01*
X218056824Y-67387451D01*
X218123204Y-67470707D01*
X218179683Y-67507385D01*
X218282740Y-67534162D01*
X218469054Y-67494560D01*
X218552311Y-67428181D01*
X218588988Y-67371702D01*
X218615766Y-67268644D01*
X218576164Y-67082330D01*
X218509784Y-66999074D01*
X218453305Y-66962396D01*
X218350248Y-66935619D01*
%TO.C,MX_#6*%
X170671768Y-71426348D02*
X170879680Y-70448200D01*
X171057221Y-71216181D01*
X171531779Y-70586808D01*
X171323867Y-71564955D01*
X171904406Y-70666012D02*
X172348593Y-71782768D01*
X172556505Y-70804620D02*
X171696494Y-71644160D01*
X172468527Y-71905626D02*
X173213782Y-72064035D01*
X173558505Y-71358382D02*
X174257182Y-71506890D01*
X173927081Y-70998579D02*
X173380295Y-72196794D01*
X174074920Y-71906295D02*
X173376243Y-71757787D01*
X173706344Y-72266098D02*
X174253130Y-71067883D01*
X175071741Y-71339250D02*
X174885427Y-71299648D01*
X174782370Y-71326425D01*
X174725891Y-71363103D01*
X174603032Y-71483037D01*
X174516852Y-71659451D01*
X174437647Y-72032078D01*
X174464425Y-72135136D01*
X174501102Y-72191615D01*
X174584359Y-72257994D01*
X174770673Y-72297597D01*
X174873730Y-72270819D01*
X174930209Y-72234141D01*
X174996589Y-72150885D01*
X175046091Y-71917993D01*
X175019314Y-71814935D01*
X174982636Y-71758456D01*
X174899380Y-71692077D01*
X174713066Y-71652474D01*
X174610009Y-71679252D01*
X174553530Y-71715930D01*
X174487150Y-71799186D01*
%TO.C,MX_#5*%
X152038056Y-67465630D02*
X152245968Y-66487482D01*
X152423509Y-67255463D01*
X152898067Y-66626090D01*
X152690155Y-67604237D01*
X153270694Y-66705294D02*
X153714881Y-67822050D01*
X153922793Y-66843902D02*
X153062782Y-67683442D01*
X153834815Y-67944908D02*
X154580070Y-68103317D01*
X154924793Y-67397664D02*
X155623470Y-67546172D01*
X155293369Y-67037861D02*
X154746583Y-68236076D01*
X155441208Y-67945577D02*
X154742531Y-67797069D01*
X155072632Y-68305380D02*
X155619418Y-67107165D01*
X156484608Y-67388433D02*
X156018823Y-67289427D01*
X155873239Y-67745311D01*
X155929718Y-67708633D01*
X156032776Y-67681856D01*
X156265668Y-67731359D01*
X156348924Y-67797738D01*
X156385602Y-67854217D01*
X156412379Y-67957275D01*
X156362877Y-68190167D01*
X156296497Y-68273423D01*
X156240018Y-68310101D01*
X156136961Y-68336879D01*
X155904068Y-68287376D01*
X155820812Y-68220996D01*
X155784134Y-68164517D01*
%TO.C,MX_#4*%
X133404344Y-63504913D02*
X133612256Y-62526765D01*
X133789797Y-63294746D01*
X134264355Y-62665373D01*
X134056443Y-63643520D01*
X134636982Y-62744577D02*
X135081169Y-63861333D01*
X135289081Y-62883185D02*
X134429070Y-63722725D01*
X135201103Y-63984191D02*
X135946358Y-64142600D01*
X136291081Y-63436947D02*
X136989758Y-63585455D01*
X136659657Y-63077144D02*
X136112871Y-64275359D01*
X136807496Y-63984860D02*
X136108819Y-63836352D01*
X136438920Y-64344663D02*
X136985706Y-63146448D01*
X137735013Y-63743864D02*
X137596406Y-64395963D01*
X137581326Y-63321734D02*
X137199925Y-63970908D01*
X137805445Y-64099615D01*
%TO.C,MX_#3*%
X114770632Y-59544195D02*
X114978544Y-58566047D01*
X115156085Y-59334028D01*
X115630643Y-58704655D01*
X115422731Y-59682802D01*
X116003270Y-58783859D02*
X116447457Y-59900615D01*
X116655369Y-58922467D02*
X115795358Y-59762007D01*
X116567391Y-60023473D02*
X117312646Y-60181882D01*
X117657369Y-59476229D02*
X118356046Y-59624737D01*
X118025945Y-59116426D02*
X117479159Y-60314641D01*
X118173784Y-60024142D02*
X117475107Y-59875634D01*
X117805208Y-60383945D02*
X118351994Y-59185730D01*
X118658242Y-59348191D02*
X119263762Y-59476898D01*
X118858509Y-59780222D01*
X118998244Y-59809924D01*
X119081500Y-59876303D01*
X119118178Y-59932782D01*
X119144955Y-60035840D01*
X119095453Y-60268732D01*
X119029073Y-60351988D01*
X118972594Y-60388666D01*
X118869537Y-60415444D01*
X118590066Y-60356040D01*
X118506810Y-60289661D01*
X118470132Y-60233182D01*
%TO.C,MX_#2*%
X93089408Y-55609321D02*
X93089408Y-54609321D01*
X93422741Y-55323607D01*
X93756075Y-54609321D01*
X93756075Y-55609321D01*
X94137027Y-54609321D02*
X94803694Y-55609321D01*
X94803694Y-54609321D02*
X94137027Y-55609321D01*
X94946551Y-55704560D02*
X95708455Y-55704560D01*
X95898932Y-54942655D02*
X96613217Y-54942655D01*
X96184646Y-54514083D02*
X95898932Y-55799798D01*
X96517979Y-55371226D02*
X95803694Y-55371226D01*
X96232265Y-55799798D02*
X96517979Y-54514083D01*
X96898932Y-54704560D02*
X96946551Y-54656941D01*
X97041789Y-54609321D01*
X97279884Y-54609321D01*
X97375122Y-54656941D01*
X97422741Y-54704560D01*
X97470360Y-54799798D01*
X97470360Y-54895036D01*
X97422741Y-55037893D01*
X96851313Y-55609321D01*
X97470360Y-55609321D01*
%TO.C,MX_#1*%
X74035606Y-57111725D02*
X74035606Y-56111725D01*
X74368939Y-56826011D01*
X74702273Y-56111725D01*
X74702273Y-57111725D01*
X75083225Y-56111725D02*
X75749892Y-57111725D01*
X75749892Y-56111725D02*
X75083225Y-57111725D01*
X75892749Y-57206964D02*
X76654653Y-57206964D01*
X76845130Y-56445059D02*
X77559415Y-56445059D01*
X77130844Y-56016487D02*
X76845130Y-57302202D01*
X77464177Y-56873630D02*
X76749892Y-56873630D01*
X77178463Y-57302202D02*
X77464177Y-56016487D01*
X78416558Y-57111725D02*
X77845130Y-57111725D01*
X78130844Y-57111725D02*
X78130844Y-56111725D01*
X78035606Y-56254583D01*
X77940368Y-56349821D01*
X77845130Y-56397440D01*
%TO.C,MX_#0*%
X251637573Y-60444374D02*
X251429661Y-59466227D01*
X251904219Y-60095600D01*
X252081760Y-59327619D01*
X252289671Y-60305766D01*
X252454387Y-59248414D02*
X253314397Y-60087954D01*
X253106486Y-59109807D02*
X252662299Y-60226562D01*
X253473934Y-60151409D02*
X254219189Y-59993000D01*
X254247094Y-59208143D02*
X254945771Y-59059635D01*
X254437460Y-58729533D02*
X254425304Y-60046555D01*
X254941719Y-59498642D02*
X254243042Y-59647150D01*
X254751353Y-59977251D02*
X254763509Y-58660230D01*
X255388830Y-58624679D02*
X255481987Y-58604878D01*
X255585045Y-58631655D01*
X255641524Y-58668333D01*
X255707903Y-58751590D01*
X255794084Y-58928003D01*
X255843587Y-59160895D01*
X255836610Y-59357110D01*
X255809833Y-59460167D01*
X255773155Y-59516646D01*
X255689899Y-59583026D01*
X255596742Y-59602827D01*
X255493684Y-59576050D01*
X255437205Y-59539372D01*
X255370826Y-59456115D01*
X255284645Y-59279702D01*
X255235142Y-59046810D01*
X255242119Y-58850595D01*
X255268896Y-58747538D01*
X255305574Y-58691059D01*
X255388830Y-58624679D01*
%TO.C,MX_"1*%
X296061015Y-95211574D02*
X296061015Y-94211574D01*
X296394349Y-94925860D01*
X296727682Y-94211574D01*
X296727682Y-95211574D01*
X297108635Y-94211574D02*
X297775301Y-95211574D01*
X297775301Y-94211574D02*
X297108635Y-95211574D01*
X297918158Y-95306813D02*
X298680063Y-95306813D01*
X298870539Y-94211574D02*
X298870539Y-94402051D01*
X299251492Y-94211574D02*
X299251492Y-94402051D01*
X300203873Y-95211574D02*
X299632444Y-95211574D01*
X299918158Y-95211574D02*
X299918158Y-94211574D01*
X299822920Y-94354432D01*
X299727682Y-94449670D01*
X299632444Y-94497289D01*
%TD*%
D13*
G36*
X373431768Y-50777374D02*
G01*
X373789308Y-51134914D01*
X374021209Y-51482766D01*
X374142000Y-52207511D01*
X374142000Y-153400366D01*
X374025012Y-153868317D01*
X373670286Y-154341286D01*
X373195562Y-154697328D01*
X372346211Y-154940000D01*
X257683000Y-154940000D01*
X257656605Y-154942773D01*
X192518656Y-168783000D01*
X178448294Y-168783000D01*
X113056297Y-154942752D01*
X113030000Y-154940000D01*
X37226634Y-154940000D01*
X36738538Y-154817976D01*
X36378294Y-154697895D01*
X36021914Y-154460308D01*
X35664374Y-154102768D01*
X35427199Y-153628418D01*
X35306000Y-153022423D01*
X35306000Y-52334511D01*
X35428133Y-51601714D01*
X35664374Y-51129232D01*
X35894914Y-50898692D01*
X36254441Y-50659008D01*
X36854460Y-50419000D01*
X372715020Y-50419000D01*
X373431768Y-50777374D01*
X373431768Y-50777374D01*
G37*
X373431768Y-50777374D02*
X373789308Y-51134914D01*
X374021209Y-51482766D01*
X374142000Y-52207511D01*
X374142000Y-153400366D01*
X374025012Y-153868317D01*
X373670286Y-154341286D01*
X373195562Y-154697328D01*
X372346211Y-154940000D01*
X257683000Y-154940000D01*
X257656605Y-154942773D01*
X192518656Y-168783000D01*
X178448294Y-168783000D01*
X113056297Y-154942752D01*
X113030000Y-154940000D01*
X37226634Y-154940000D01*
X36738538Y-154817976D01*
X36378294Y-154697895D01*
X36021914Y-154460308D01*
X35664374Y-154102768D01*
X35427199Y-153628418D01*
X35306000Y-153022423D01*
X35306000Y-52334511D01*
X35428133Y-51601714D01*
X35664374Y-51129232D01*
X35894914Y-50898692D01*
X36254441Y-50659008D01*
X36854460Y-50419000D01*
X372715020Y-50419000D01*
X373431768Y-50777374D01*
%LPC*%
D11*
%TO.C,G\002A\002A\002A*%
G36*
X292564806Y-145516643D02*
G01*
X292650245Y-145626667D01*
X292879467Y-146068953D01*
X293112225Y-146425470D01*
X293389572Y-146763097D01*
X293622563Y-147052830D01*
X293879404Y-147415072D01*
X294105258Y-147772392D01*
X294109164Y-147779097D01*
X294288224Y-148073449D01*
X294451002Y-148317262D01*
X294568066Y-148467024D01*
X294586123Y-148484167D01*
X294734449Y-148534651D01*
X295009681Y-148569038D01*
X295370129Y-148586991D01*
X295774101Y-148588177D01*
X296179906Y-148572258D01*
X296545852Y-148538901D01*
X296771374Y-148501742D01*
X296978981Y-148467792D01*
X297192415Y-148463094D01*
X297453671Y-148491672D01*
X297804745Y-148557547D01*
X298153667Y-148634172D01*
X298659385Y-148735770D01*
X299221569Y-148828185D01*
X299754816Y-148898166D01*
X300016334Y-148923188D01*
X300425212Y-148965515D01*
X300804821Y-149024026D01*
X301101684Y-149089557D01*
X301220114Y-149129425D01*
X301481315Y-149220193D01*
X301718867Y-149265997D01*
X301752095Y-149267334D01*
X302006851Y-149322014D01*
X302363603Y-149478108D01*
X302798533Y-149723692D01*
X303233667Y-150008974D01*
X303582434Y-150294423D01*
X303834080Y-150618831D01*
X303942728Y-150815886D01*
X304107755Y-151107106D01*
X304254603Y-151269465D01*
X304394945Y-151296722D01*
X304540455Y-151182636D01*
X304702807Y-150920966D01*
X304893675Y-150505472D01*
X304997970Y-150251749D01*
X305147510Y-149862350D01*
X305230026Y-149574502D01*
X305247918Y-149335310D01*
X305203588Y-149091877D01*
X305099437Y-148791310D01*
X305067943Y-148710246D01*
X304949488Y-148371975D01*
X304852602Y-148031945D01*
X304811585Y-147839035D01*
X304656770Y-147327634D01*
X304379990Y-146898654D01*
X304014785Y-146593117D01*
X303816779Y-146456302D01*
X303708625Y-146341930D01*
X303702281Y-146299230D01*
X303841520Y-146224232D01*
X304079700Y-146254389D01*
X304387116Y-146384748D01*
X304459609Y-146425514D01*
X304791371Y-146714063D01*
X305077833Y-147164537D01*
X305319226Y-147777407D01*
X305515783Y-148553143D01*
X305522393Y-148585951D01*
X305699183Y-149470903D01*
X305387279Y-150346347D01*
X305208419Y-150828128D01*
X305059711Y-151169105D01*
X304924911Y-151391327D01*
X304787774Y-151516843D01*
X304632056Y-151567703D01*
X304486023Y-151569649D01*
X304191228Y-151609292D01*
X304004042Y-151749280D01*
X303934651Y-151951457D01*
X303993240Y-152177668D01*
X304189996Y-152389756D01*
X304255701Y-152432430D01*
X304458155Y-152530501D01*
X304637357Y-152539981D01*
X304843217Y-152484375D01*
X305024444Y-152435693D01*
X305190831Y-152430647D01*
X305395409Y-152476457D01*
X305691208Y-152580348D01*
X305771313Y-152610767D01*
X306169495Y-152793836D01*
X306426523Y-152980928D01*
X306533965Y-153163018D01*
X306483388Y-153331084D01*
X306464071Y-153352130D01*
X306323526Y-153417161D01*
X306045381Y-153486620D01*
X305661127Y-153555806D01*
X305202250Y-153620017D01*
X304700239Y-153674552D01*
X304186583Y-153714708D01*
X303952184Y-153727185D01*
X303556741Y-153741398D01*
X303287251Y-153738097D01*
X303100721Y-153711245D01*
X302954161Y-153654803D01*
X302810735Y-153566891D01*
X302534013Y-153285203D01*
X302335966Y-152884138D01*
X302233041Y-152401805D01*
X302222271Y-152203410D01*
X302143881Y-151748123D01*
X301914491Y-151292737D01*
X301527230Y-150824881D01*
X301373159Y-150674546D01*
X300957541Y-150285784D01*
X299534437Y-150302731D01*
X298945265Y-150301264D01*
X298341047Y-150285027D01*
X297778250Y-150256372D01*
X297313344Y-150217649D01*
X297214565Y-150206108D01*
X296805009Y-150157406D01*
X296525830Y-150135051D01*
X296340046Y-150139619D01*
X296210672Y-150171687D01*
X296113898Y-150223252D01*
X296008971Y-150277018D01*
X295877750Y-150306751D01*
X295686821Y-150313036D01*
X295402769Y-150296461D01*
X294992178Y-150257612D01*
X294871348Y-150245065D01*
X293832695Y-150136165D01*
X293326181Y-149624915D01*
X293094466Y-149377307D01*
X292918454Y-149163087D01*
X292826640Y-149017942D01*
X292819667Y-148990544D01*
X292786313Y-148856180D01*
X292698566Y-148618660D01*
X292574899Y-148327679D01*
X292565667Y-148307237D01*
X292389580Y-147835305D01*
X292313691Y-147430152D01*
X292311667Y-147365408D01*
X292287994Y-147025697D01*
X292229658Y-146678662D01*
X292215867Y-146622715D01*
X292179256Y-146352163D01*
X292197792Y-146076561D01*
X292258546Y-145825558D01*
X292348586Y-145628804D01*
X292454983Y-145515949D01*
X292564806Y-145516643D01*
X292564806Y-145516643D01*
G37*
X292564806Y-145516643D02*
X292650245Y-145626667D01*
X292879467Y-146068953D01*
X293112225Y-146425470D01*
X293389572Y-146763097D01*
X293622563Y-147052830D01*
X293879404Y-147415072D01*
X294105258Y-147772392D01*
X294109164Y-147779097D01*
X294288224Y-148073449D01*
X294451002Y-148317262D01*
X294568066Y-148467024D01*
X294586123Y-148484167D01*
X294734449Y-148534651D01*
X295009681Y-148569038D01*
X295370129Y-148586991D01*
X295774101Y-148588177D01*
X296179906Y-148572258D01*
X296545852Y-148538901D01*
X296771374Y-148501742D01*
X296978981Y-148467792D01*
X297192415Y-148463094D01*
X297453671Y-148491672D01*
X297804745Y-148557547D01*
X298153667Y-148634172D01*
X298659385Y-148735770D01*
X299221569Y-148828185D01*
X299754816Y-148898166D01*
X300016334Y-148923188D01*
X300425212Y-148965515D01*
X300804821Y-149024026D01*
X301101684Y-149089557D01*
X301220114Y-149129425D01*
X301481315Y-149220193D01*
X301718867Y-149265997D01*
X301752095Y-149267334D01*
X302006851Y-149322014D01*
X302363603Y-149478108D01*
X302798533Y-149723692D01*
X303233667Y-150008974D01*
X303582434Y-150294423D01*
X303834080Y-150618831D01*
X303942728Y-150815886D01*
X304107755Y-151107106D01*
X304254603Y-151269465D01*
X304394945Y-151296722D01*
X304540455Y-151182636D01*
X304702807Y-150920966D01*
X304893675Y-150505472D01*
X304997970Y-150251749D01*
X305147510Y-149862350D01*
X305230026Y-149574502D01*
X305247918Y-149335310D01*
X305203588Y-149091877D01*
X305099437Y-148791310D01*
X305067943Y-148710246D01*
X304949488Y-148371975D01*
X304852602Y-148031945D01*
X304811585Y-147839035D01*
X304656770Y-147327634D01*
X304379990Y-146898654D01*
X304014785Y-146593117D01*
X303816779Y-146456302D01*
X303708625Y-146341930D01*
X303702281Y-146299230D01*
X303841520Y-146224232D01*
X304079700Y-146254389D01*
X304387116Y-146384748D01*
X304459609Y-146425514D01*
X304791371Y-146714063D01*
X305077833Y-147164537D01*
X305319226Y-147777407D01*
X305515783Y-148553143D01*
X305522393Y-148585951D01*
X305699183Y-149470903D01*
X305387279Y-150346347D01*
X305208419Y-150828128D01*
X305059711Y-151169105D01*
X304924911Y-151391327D01*
X304787774Y-151516843D01*
X304632056Y-151567703D01*
X304486023Y-151569649D01*
X304191228Y-151609292D01*
X304004042Y-151749280D01*
X303934651Y-151951457D01*
X303993240Y-152177668D01*
X304189996Y-152389756D01*
X304255701Y-152432430D01*
X304458155Y-152530501D01*
X304637357Y-152539981D01*
X304843217Y-152484375D01*
X305024444Y-152435693D01*
X305190831Y-152430647D01*
X305395409Y-152476457D01*
X305691208Y-152580348D01*
X305771313Y-152610767D01*
X306169495Y-152793836D01*
X306426523Y-152980928D01*
X306533965Y-153163018D01*
X306483388Y-153331084D01*
X306464071Y-153352130D01*
X306323526Y-153417161D01*
X306045381Y-153486620D01*
X305661127Y-153555806D01*
X305202250Y-153620017D01*
X304700239Y-153674552D01*
X304186583Y-153714708D01*
X303952184Y-153727185D01*
X303556741Y-153741398D01*
X303287251Y-153738097D01*
X303100721Y-153711245D01*
X302954161Y-153654803D01*
X302810735Y-153566891D01*
X302534013Y-153285203D01*
X302335966Y-152884138D01*
X302233041Y-152401805D01*
X302222271Y-152203410D01*
X302143881Y-151748123D01*
X301914491Y-151292737D01*
X301527230Y-150824881D01*
X301373159Y-150674546D01*
X300957541Y-150285784D01*
X299534437Y-150302731D01*
X298945265Y-150301264D01*
X298341047Y-150285027D01*
X297778250Y-150256372D01*
X297313344Y-150217649D01*
X297214565Y-150206108D01*
X296805009Y-150157406D01*
X296525830Y-150135051D01*
X296340046Y-150139619D01*
X296210672Y-150171687D01*
X296113898Y-150223252D01*
X296008971Y-150277018D01*
X295877750Y-150306751D01*
X295686821Y-150313036D01*
X295402769Y-150296461D01*
X294992178Y-150257612D01*
X294871348Y-150245065D01*
X293832695Y-150136165D01*
X293326181Y-149624915D01*
X293094466Y-149377307D01*
X292918454Y-149163087D01*
X292826640Y-149017942D01*
X292819667Y-148990544D01*
X292786313Y-148856180D01*
X292698566Y-148618660D01*
X292574899Y-148327679D01*
X292565667Y-148307237D01*
X292389580Y-147835305D01*
X292313691Y-147430152D01*
X292311667Y-147365408D01*
X292287994Y-147025697D01*
X292229658Y-146678662D01*
X292215867Y-146622715D01*
X292179256Y-146352163D01*
X292197792Y-146076561D01*
X292258546Y-145825558D01*
X292348586Y-145628804D01*
X292454983Y-145515949D01*
X292564806Y-145516643D01*
G36*
X295039685Y-144994308D02*
G01*
X295155547Y-145078084D01*
X295240719Y-145246391D01*
X295306593Y-145530110D01*
X295349954Y-145835278D01*
X295394538Y-146076125D01*
X295451928Y-146227822D01*
X295486667Y-146255493D01*
X295563163Y-146182485D01*
X295689656Y-145994566D01*
X295841688Y-145728911D01*
X295876602Y-145662826D01*
X296037982Y-145380759D01*
X296188680Y-145165317D01*
X296300571Y-145055737D01*
X296315896Y-145049961D01*
X296489161Y-145091531D01*
X296657717Y-145243501D01*
X296773991Y-145452454D01*
X296799000Y-145592430D01*
X296749620Y-145819964D01*
X296638450Y-146037665D01*
X296506897Y-146277368D01*
X296447466Y-146501342D01*
X296468850Y-146660855D01*
X296519601Y-146703942D01*
X296633061Y-146670280D01*
X296821015Y-146547275D01*
X296985268Y-146411816D01*
X297360030Y-146110889D01*
X297654531Y-145954476D01*
X297873472Y-145940614D01*
X297970726Y-146000107D01*
X298047671Y-146172094D01*
X297971826Y-146386048D01*
X297740541Y-146646323D01*
X297417506Y-146908893D01*
X297079434Y-147167021D01*
X296707349Y-147463265D01*
X296448837Y-147677163D01*
X296156501Y-147907106D01*
X295932043Y-148033668D01*
X295730979Y-148080154D01*
X295676037Y-148082000D01*
X295453573Y-148053769D01*
X295305884Y-147984922D01*
X295298063Y-147976167D01*
X295112823Y-147660959D01*
X294961058Y-147263780D01*
X294879550Y-146896667D01*
X294823573Y-146616842D01*
X294742176Y-146380362D01*
X294714535Y-146328146D01*
X294617679Y-146078801D01*
X294589315Y-145787550D01*
X294619964Y-145493275D01*
X294700147Y-145234861D01*
X294820386Y-145051190D01*
X294971202Y-144981148D01*
X295039685Y-144994308D01*
X295039685Y-144994308D01*
G37*
X295039685Y-144994308D02*
X295155547Y-145078084D01*
X295240719Y-145246391D01*
X295306593Y-145530110D01*
X295349954Y-145835278D01*
X295394538Y-146076125D01*
X295451928Y-146227822D01*
X295486667Y-146255493D01*
X295563163Y-146182485D01*
X295689656Y-145994566D01*
X295841688Y-145728911D01*
X295876602Y-145662826D01*
X296037982Y-145380759D01*
X296188680Y-145165317D01*
X296300571Y-145055737D01*
X296315896Y-145049961D01*
X296489161Y-145091531D01*
X296657717Y-145243501D01*
X296773991Y-145452454D01*
X296799000Y-145592430D01*
X296749620Y-145819964D01*
X296638450Y-146037665D01*
X296506897Y-146277368D01*
X296447466Y-146501342D01*
X296468850Y-146660855D01*
X296519601Y-146703942D01*
X296633061Y-146670280D01*
X296821015Y-146547275D01*
X296985268Y-146411816D01*
X297360030Y-146110889D01*
X297654531Y-145954476D01*
X297873472Y-145940614D01*
X297970726Y-146000107D01*
X298047671Y-146172094D01*
X297971826Y-146386048D01*
X297740541Y-146646323D01*
X297417506Y-146908893D01*
X297079434Y-147167021D01*
X296707349Y-147463265D01*
X296448837Y-147677163D01*
X296156501Y-147907106D01*
X295932043Y-148033668D01*
X295730979Y-148080154D01*
X295676037Y-148082000D01*
X295453573Y-148053769D01*
X295305884Y-147984922D01*
X295298063Y-147976167D01*
X295112823Y-147660959D01*
X294961058Y-147263780D01*
X294879550Y-146896667D01*
X294823573Y-146616842D01*
X294742176Y-146380362D01*
X294714535Y-146328146D01*
X294617679Y-146078801D01*
X294589315Y-145787550D01*
X294619964Y-145493275D01*
X294700147Y-145234861D01*
X294820386Y-145051190D01*
X294971202Y-144981148D01*
X295039685Y-144994308D01*
G36*
X302850467Y-142993093D02*
G01*
X302946239Y-143192992D01*
X303052594Y-143475957D01*
X303156256Y-143800919D01*
X303243945Y-144126805D01*
X303302384Y-144412544D01*
X303319162Y-144589500D01*
X303305350Y-144808999D01*
X303271594Y-144935663D01*
X303254834Y-144948091D01*
X303193889Y-144874792D01*
X303098083Y-144684964D01*
X303000704Y-144451268D01*
X302905224Y-144156226D01*
X302825223Y-143824215D01*
X302766427Y-143494795D01*
X302734567Y-143207525D01*
X302735372Y-143001964D01*
X302774570Y-142917673D01*
X302778558Y-142917334D01*
X302850467Y-142993093D01*
X302850467Y-142993093D01*
G37*
X302850467Y-142993093D02*
X302946239Y-143192992D01*
X303052594Y-143475957D01*
X303156256Y-143800919D01*
X303243945Y-144126805D01*
X303302384Y-144412544D01*
X303319162Y-144589500D01*
X303305350Y-144808999D01*
X303271594Y-144935663D01*
X303254834Y-144948091D01*
X303193889Y-144874792D01*
X303098083Y-144684964D01*
X303000704Y-144451268D01*
X302905224Y-144156226D01*
X302825223Y-143824215D01*
X302766427Y-143494795D01*
X302734567Y-143207525D01*
X302735372Y-143001964D01*
X302774570Y-142917673D01*
X302778558Y-142917334D01*
X302850467Y-142993093D01*
G36*
X292445272Y-144616149D02*
G01*
X292523646Y-144733751D01*
X292517405Y-144789593D01*
X292398948Y-144861675D01*
X292275740Y-144789779D01*
X292269334Y-144780000D01*
X292246498Y-144643426D01*
X292329301Y-144575667D01*
X292445272Y-144616149D01*
X292445272Y-144616149D01*
G37*
X292445272Y-144616149D02*
X292523646Y-144733751D01*
X292517405Y-144789593D01*
X292398948Y-144861675D01*
X292275740Y-144789779D01*
X292269334Y-144780000D01*
X292246498Y-144643426D01*
X292329301Y-144575667D01*
X292445272Y-144616149D01*
G36*
X288586289Y-137411086D02*
G01*
X288586334Y-137414000D01*
X288522018Y-137496208D01*
X288501822Y-137498667D01*
X288413913Y-137564898D01*
X288275948Y-137735717D01*
X288164764Y-137900834D01*
X288036844Y-138122055D01*
X287960878Y-138320162D01*
X287923500Y-138553325D01*
X287911342Y-138879715D01*
X287910609Y-139006830D01*
X287919164Y-139399036D01*
X287955777Y-139690391D01*
X288033680Y-139948726D01*
X288141834Y-140192163D01*
X288340963Y-140520353D01*
X288640612Y-140912303D01*
X289005762Y-141330267D01*
X289401395Y-141736498D01*
X289792493Y-142093251D01*
X290144038Y-142362779D01*
X290173408Y-142382027D01*
X290437113Y-142574542D01*
X290656605Y-142774546D01*
X290757045Y-142898496D01*
X290913671Y-143147113D01*
X291053008Y-143357329D01*
X291156067Y-143541111D01*
X291137988Y-143611299D01*
X291002668Y-143568493D01*
X290754006Y-143413289D01*
X290575444Y-143284057D01*
X290298584Y-143062317D01*
X289953121Y-142764545D01*
X289589546Y-142435083D01*
X289348334Y-142206466D01*
X289031488Y-141905562D01*
X288726502Y-141626951D01*
X288471605Y-141404950D01*
X288325457Y-141288259D01*
X288160504Y-141148250D01*
X288040339Y-140981678D01*
X287938667Y-140741044D01*
X287836522Y-140405091D01*
X287737052Y-140054424D01*
X287644237Y-139734546D01*
X287575870Y-139506655D01*
X287568231Y-139482322D01*
X287477344Y-138927936D01*
X287548315Y-138376561D01*
X287775195Y-137853888D01*
X288022715Y-137519834D01*
X288181452Y-137400974D01*
X288366128Y-137336126D01*
X288519990Y-137335944D01*
X288586289Y-137411086D01*
X288586289Y-137411086D01*
G37*
X288586289Y-137411086D02*
X288586334Y-137414000D01*
X288522018Y-137496208D01*
X288501822Y-137498667D01*
X288413913Y-137564898D01*
X288275948Y-137735717D01*
X288164764Y-137900834D01*
X288036844Y-138122055D01*
X287960878Y-138320162D01*
X287923500Y-138553325D01*
X287911342Y-138879715D01*
X287910609Y-139006830D01*
X287919164Y-139399036D01*
X287955777Y-139690391D01*
X288033680Y-139948726D01*
X288141834Y-140192163D01*
X288340963Y-140520353D01*
X288640612Y-140912303D01*
X289005762Y-141330267D01*
X289401395Y-141736498D01*
X289792493Y-142093251D01*
X290144038Y-142362779D01*
X290173408Y-142382027D01*
X290437113Y-142574542D01*
X290656605Y-142774546D01*
X290757045Y-142898496D01*
X290913671Y-143147113D01*
X291053008Y-143357329D01*
X291156067Y-143541111D01*
X291137988Y-143611299D01*
X291002668Y-143568493D01*
X290754006Y-143413289D01*
X290575444Y-143284057D01*
X290298584Y-143062317D01*
X289953121Y-142764545D01*
X289589546Y-142435083D01*
X289348334Y-142206466D01*
X289031488Y-141905562D01*
X288726502Y-141626951D01*
X288471605Y-141404950D01*
X288325457Y-141288259D01*
X288160504Y-141148250D01*
X288040339Y-140981678D01*
X287938667Y-140741044D01*
X287836522Y-140405091D01*
X287737052Y-140054424D01*
X287644237Y-139734546D01*
X287575870Y-139506655D01*
X287568231Y-139482322D01*
X287477344Y-138927936D01*
X287548315Y-138376561D01*
X287775195Y-137853888D01*
X288022715Y-137519834D01*
X288181452Y-137400974D01*
X288366128Y-137336126D01*
X288519990Y-137335944D01*
X288586289Y-137411086D01*
G36*
X302172941Y-141381012D02*
G01*
X302301749Y-141555321D01*
X302379558Y-141767500D01*
X302387000Y-141844500D01*
X302357708Y-142027184D01*
X302267150Y-142053374D01*
X302111307Y-141924081D01*
X302103789Y-141915833D01*
X302016396Y-141759509D01*
X301969232Y-141564667D01*
X301969369Y-141393936D01*
X302023883Y-141309948D01*
X302035211Y-141308667D01*
X302172941Y-141381012D01*
X302172941Y-141381012D01*
G37*
X302172941Y-141381012D02*
X302301749Y-141555321D01*
X302379558Y-141767500D01*
X302387000Y-141844500D01*
X302357708Y-142027184D01*
X302267150Y-142053374D01*
X302111307Y-141924081D01*
X302103789Y-141915833D01*
X302016396Y-141759509D01*
X301969232Y-141564667D01*
X301969369Y-141393936D01*
X302023883Y-141309948D01*
X302035211Y-141308667D01*
X302172941Y-141381012D01*
G36*
X298171737Y-133125537D02*
G01*
X298404047Y-133229223D01*
X298495595Y-133286500D01*
X298657246Y-133428050D01*
X298887759Y-133671963D01*
X299156199Y-133983807D01*
X299427428Y-134323667D01*
X299716390Y-134683554D01*
X299975740Y-134975032D01*
X300181959Y-135173061D01*
X300296155Y-135248598D01*
X300535955Y-135278585D01*
X300878371Y-135224447D01*
X301006676Y-135191214D01*
X301731856Y-135021314D01*
X302358718Y-134944219D01*
X302928072Y-134956211D01*
X303191278Y-134992235D01*
X303506451Y-135052773D01*
X303703593Y-135117126D01*
X303832337Y-135212819D01*
X303942317Y-135367379D01*
X303978895Y-135429037D01*
X304070665Y-135604335D01*
X304125410Y-135776227D01*
X304149738Y-135991635D01*
X304150260Y-136297486D01*
X304140562Y-136576821D01*
X304115044Y-137002596D01*
X304070570Y-137321344D01*
X303993809Y-137595279D01*
X303871431Y-137886614D01*
X303850300Y-137931488D01*
X303665227Y-138274831D01*
X303446667Y-138614919D01*
X303280554Y-138831430D01*
X303062601Y-139114230D01*
X302836161Y-139457991D01*
X302709843Y-139678097D01*
X302542153Y-139971570D01*
X302346400Y-140279017D01*
X302147162Y-140566038D01*
X301969015Y-140798234D01*
X301836536Y-140941207D01*
X301786810Y-140970000D01*
X301721301Y-140900060D01*
X301687206Y-140808589D01*
X301718646Y-140621984D01*
X301880751Y-140389065D01*
X301882796Y-140386821D01*
X302032298Y-140210300D01*
X302127099Y-140046757D01*
X302197825Y-139830807D01*
X302253391Y-139595575D01*
X302335710Y-139412839D01*
X302499291Y-139165940D01*
X302685075Y-138936040D01*
X302936989Y-138616621D01*
X303189741Y-138239682D01*
X303337520Y-137982132D01*
X303469369Y-137712670D01*
X303549783Y-137489213D01*
X303590897Y-137252703D01*
X303604845Y-136944082D01*
X303605109Y-136679779D01*
X303578231Y-136155694D01*
X303502458Y-135785457D01*
X303374261Y-135559772D01*
X303190111Y-135469343D01*
X303144634Y-135466667D01*
X302981565Y-135503183D01*
X302729133Y-135598085D01*
X302490419Y-135707484D01*
X302041837Y-135902582D01*
X301458583Y-136111960D01*
X300773340Y-136324082D01*
X300620700Y-136367570D01*
X300568233Y-136393166D01*
X300541887Y-136452007D01*
X300544268Y-136571648D01*
X300577979Y-136779644D01*
X300645627Y-137103551D01*
X300723311Y-137452983D01*
X300782412Y-137748593D01*
X300814025Y-137974495D01*
X300811941Y-138085233D01*
X300810039Y-138087850D01*
X300729584Y-138068669D01*
X300613129Y-137913956D01*
X300476653Y-137649336D01*
X300360640Y-137367306D01*
X300211894Y-137025948D01*
X300023407Y-136664456D01*
X299937248Y-136520165D01*
X299794438Y-136273895D01*
X299700155Y-136070894D01*
X299677667Y-135983890D01*
X299622613Y-135844681D01*
X299486167Y-135659101D01*
X299444834Y-135613948D01*
X299259620Y-135341016D01*
X299206790Y-135044225D01*
X299131499Y-134709728D01*
X298929946Y-134325974D01*
X298624303Y-133925203D01*
X298236740Y-133539653D01*
X298085914Y-133414329D01*
X297928404Y-133252967D01*
X297907689Y-133145592D01*
X297997542Y-133100387D01*
X298171737Y-133125537D01*
X298171737Y-133125537D01*
G37*
X298171737Y-133125537D02*
X298404047Y-133229223D01*
X298495595Y-133286500D01*
X298657246Y-133428050D01*
X298887759Y-133671963D01*
X299156199Y-133983807D01*
X299427428Y-134323667D01*
X299716390Y-134683554D01*
X299975740Y-134975032D01*
X300181959Y-135173061D01*
X300296155Y-135248598D01*
X300535955Y-135278585D01*
X300878371Y-135224447D01*
X301006676Y-135191214D01*
X301731856Y-135021314D01*
X302358718Y-134944219D01*
X302928072Y-134956211D01*
X303191278Y-134992235D01*
X303506451Y-135052773D01*
X303703593Y-135117126D01*
X303832337Y-135212819D01*
X303942317Y-135367379D01*
X303978895Y-135429037D01*
X304070665Y-135604335D01*
X304125410Y-135776227D01*
X304149738Y-135991635D01*
X304150260Y-136297486D01*
X304140562Y-136576821D01*
X304115044Y-137002596D01*
X304070570Y-137321344D01*
X303993809Y-137595279D01*
X303871431Y-137886614D01*
X303850300Y-137931488D01*
X303665227Y-138274831D01*
X303446667Y-138614919D01*
X303280554Y-138831430D01*
X303062601Y-139114230D01*
X302836161Y-139457991D01*
X302709843Y-139678097D01*
X302542153Y-139971570D01*
X302346400Y-140279017D01*
X302147162Y-140566038D01*
X301969015Y-140798234D01*
X301836536Y-140941207D01*
X301786810Y-140970000D01*
X301721301Y-140900060D01*
X301687206Y-140808589D01*
X301718646Y-140621984D01*
X301880751Y-140389065D01*
X301882796Y-140386821D01*
X302032298Y-140210300D01*
X302127099Y-140046757D01*
X302197825Y-139830807D01*
X302253391Y-139595575D01*
X302335710Y-139412839D01*
X302499291Y-139165940D01*
X302685075Y-138936040D01*
X302936989Y-138616621D01*
X303189741Y-138239682D01*
X303337520Y-137982132D01*
X303469369Y-137712670D01*
X303549783Y-137489213D01*
X303590897Y-137252703D01*
X303604845Y-136944082D01*
X303605109Y-136679779D01*
X303578231Y-136155694D01*
X303502458Y-135785457D01*
X303374261Y-135559772D01*
X303190111Y-135469343D01*
X303144634Y-135466667D01*
X302981565Y-135503183D01*
X302729133Y-135598085D01*
X302490419Y-135707484D01*
X302041837Y-135902582D01*
X301458583Y-136111960D01*
X300773340Y-136324082D01*
X300620700Y-136367570D01*
X300568233Y-136393166D01*
X300541887Y-136452007D01*
X300544268Y-136571648D01*
X300577979Y-136779644D01*
X300645627Y-137103551D01*
X300723311Y-137452983D01*
X300782412Y-137748593D01*
X300814025Y-137974495D01*
X300811941Y-138085233D01*
X300810039Y-138087850D01*
X300729584Y-138068669D01*
X300613129Y-137913956D01*
X300476653Y-137649336D01*
X300360640Y-137367306D01*
X300211894Y-137025948D01*
X300023407Y-136664456D01*
X299937248Y-136520165D01*
X299794438Y-136273895D01*
X299700155Y-136070894D01*
X299677667Y-135983890D01*
X299622613Y-135844681D01*
X299486167Y-135659101D01*
X299444834Y-135613948D01*
X299259620Y-135341016D01*
X299206790Y-135044225D01*
X299131499Y-134709728D01*
X298929946Y-134325974D01*
X298624303Y-133925203D01*
X298236740Y-133539653D01*
X298085914Y-133414329D01*
X297928404Y-133252967D01*
X297907689Y-133145592D01*
X297997542Y-133100387D01*
X298171737Y-133125537D01*
G36*
X293535510Y-136752756D02*
G01*
X293642729Y-136838928D01*
X293836424Y-136990326D01*
X294102562Y-137162743D01*
X294239795Y-137241095D01*
X294515500Y-137418731D01*
X294655350Y-137572000D01*
X294654552Y-137686236D01*
X294508314Y-137746773D01*
X294406967Y-137752667D01*
X294105839Y-137821127D01*
X293913925Y-137972573D01*
X293697029Y-138160066D01*
X293432587Y-138333240D01*
X293393475Y-138354116D01*
X293078283Y-138515754D01*
X292939237Y-138303544D01*
X292777559Y-138154834D01*
X292578881Y-138089905D01*
X292407225Y-138122707D01*
X292354000Y-138176000D01*
X292217652Y-138246390D01*
X291953805Y-138256812D01*
X291591876Y-138210951D01*
X291161279Y-138112491D01*
X290703000Y-137969218D01*
X290146103Y-137772401D01*
X289726813Y-137624505D01*
X289423130Y-137517885D01*
X289213053Y-137444898D01*
X289074583Y-137397901D01*
X288985720Y-137369248D01*
X288925000Y-137351444D01*
X288877287Y-137290048D01*
X288954527Y-137187148D01*
X289124504Y-137064258D01*
X289355000Y-136942895D01*
X289613801Y-136844574D01*
X289730099Y-136813761D01*
X290398237Y-136750093D01*
X291119048Y-136846569D01*
X291700627Y-137026273D01*
X292317255Y-137259323D01*
X292653371Y-136955661D01*
X292977324Y-136726209D01*
X293267822Y-136658993D01*
X293535510Y-136752756D01*
X293535510Y-136752756D01*
G37*
X293535510Y-136752756D02*
X293642729Y-136838928D01*
X293836424Y-136990326D01*
X294102562Y-137162743D01*
X294239795Y-137241095D01*
X294515500Y-137418731D01*
X294655350Y-137572000D01*
X294654552Y-137686236D01*
X294508314Y-137746773D01*
X294406967Y-137752667D01*
X294105839Y-137821127D01*
X293913925Y-137972573D01*
X293697029Y-138160066D01*
X293432587Y-138333240D01*
X293393475Y-138354116D01*
X293078283Y-138515754D01*
X292939237Y-138303544D01*
X292777559Y-138154834D01*
X292578881Y-138089905D01*
X292407225Y-138122707D01*
X292354000Y-138176000D01*
X292217652Y-138246390D01*
X291953805Y-138256812D01*
X291591876Y-138210951D01*
X291161279Y-138112491D01*
X290703000Y-137969218D01*
X290146103Y-137772401D01*
X289726813Y-137624505D01*
X289423130Y-137517885D01*
X289213053Y-137444898D01*
X289074583Y-137397901D01*
X288985720Y-137369248D01*
X288925000Y-137351444D01*
X288877287Y-137290048D01*
X288954527Y-137187148D01*
X289124504Y-137064258D01*
X289355000Y-136942895D01*
X289613801Y-136844574D01*
X289730099Y-136813761D01*
X290398237Y-136750093D01*
X291119048Y-136846569D01*
X291700627Y-137026273D01*
X292317255Y-137259323D01*
X292653371Y-136955661D01*
X292977324Y-136726209D01*
X293267822Y-136658993D01*
X293535510Y-136752756D01*
G36*
X296398248Y-134555177D02*
G01*
X296616125Y-134782811D01*
X296750238Y-135142852D01*
X296770276Y-135262330D01*
X296779705Y-135505589D01*
X296705318Y-135680016D01*
X296570512Y-135824996D01*
X296258917Y-136032564D01*
X295921413Y-136111191D01*
X295640368Y-136061947D01*
X295419785Y-135888210D01*
X295300000Y-135624870D01*
X295286289Y-135438255D01*
X295471694Y-135438255D01*
X295612923Y-135641832D01*
X295652152Y-135682182D01*
X295863257Y-135848628D01*
X296053187Y-135870226D01*
X296276084Y-135749589D01*
X296321915Y-135714522D01*
X296506217Y-135484039D01*
X296526221Y-135219391D01*
X296413199Y-134977506D01*
X296212983Y-134817766D01*
X295966428Y-134795237D01*
X295723329Y-134907727D01*
X295619812Y-135012418D01*
X295474862Y-135246499D01*
X295471694Y-135438255D01*
X295286289Y-135438255D01*
X295277271Y-135315535D01*
X295347855Y-135003812D01*
X295508009Y-134733308D01*
X295753990Y-134547631D01*
X295770969Y-134540317D01*
X296111548Y-134470747D01*
X296398248Y-134555177D01*
X296398248Y-134555177D01*
G37*
X296398248Y-134555177D02*
X296616125Y-134782811D01*
X296750238Y-135142852D01*
X296770276Y-135262330D01*
X296779705Y-135505589D01*
X296705318Y-135680016D01*
X296570512Y-135824996D01*
X296258917Y-136032564D01*
X295921413Y-136111191D01*
X295640368Y-136061947D01*
X295419785Y-135888210D01*
X295300000Y-135624870D01*
X295286289Y-135438255D01*
X295471694Y-135438255D01*
X295612923Y-135641832D01*
X295652152Y-135682182D01*
X295863257Y-135848628D01*
X296053187Y-135870226D01*
X296276084Y-135749589D01*
X296321915Y-135714522D01*
X296506217Y-135484039D01*
X296526221Y-135219391D01*
X296413199Y-134977506D01*
X296212983Y-134817766D01*
X295966428Y-134795237D01*
X295723329Y-134907727D01*
X295619812Y-135012418D01*
X295474862Y-135246499D01*
X295471694Y-135438255D01*
X295286289Y-135438255D01*
X295277271Y-135315535D01*
X295347855Y-135003812D01*
X295508009Y-134733308D01*
X295753990Y-134547631D01*
X295770969Y-134540317D01*
X296111548Y-134470747D01*
X296398248Y-134555177D01*
G36*
X295914661Y-132282741D02*
G01*
X296075496Y-132366033D01*
X296254107Y-132535250D01*
X296263675Y-132700472D01*
X296104086Y-132865215D01*
X296058167Y-132894616D01*
X295855937Y-133021185D01*
X295585353Y-133195385D01*
X295402000Y-133315536D01*
X295069499Y-133500854D01*
X294695309Y-133660511D01*
X294513000Y-133718744D01*
X294232937Y-133795972D01*
X294008424Y-133863133D01*
X293920121Y-133893461D01*
X293772297Y-134019471D01*
X293590227Y-134277129D01*
X293391291Y-134636812D01*
X293192872Y-135068898D01*
X293110857Y-135272642D01*
X292945319Y-135656280D01*
X292804983Y-135879294D01*
X292685173Y-135947735D01*
X292616278Y-135912389D01*
X292568343Y-135764006D01*
X292583649Y-135523637D01*
X292656267Y-135253860D01*
X292685365Y-135183129D01*
X292793222Y-134916013D01*
X292897915Y-134617400D01*
X292908036Y-134585385D01*
X293046059Y-134316327D01*
X293319020Y-133957046D01*
X293697395Y-133539481D01*
X294157093Y-133092184D01*
X294573511Y-132763418D01*
X294988386Y-132525268D01*
X295443456Y-132349823D01*
X295503996Y-132331284D01*
X295748818Y-132272006D01*
X295914661Y-132282741D01*
X295914661Y-132282741D01*
G37*
X295914661Y-132282741D02*
X296075496Y-132366033D01*
X296254107Y-132535250D01*
X296263675Y-132700472D01*
X296104086Y-132865215D01*
X296058167Y-132894616D01*
X295855937Y-133021185D01*
X295585353Y-133195385D01*
X295402000Y-133315536D01*
X295069499Y-133500854D01*
X294695309Y-133660511D01*
X294513000Y-133718744D01*
X294232937Y-133795972D01*
X294008424Y-133863133D01*
X293920121Y-133893461D01*
X293772297Y-134019471D01*
X293590227Y-134277129D01*
X293391291Y-134636812D01*
X293192872Y-135068898D01*
X293110857Y-135272642D01*
X292945319Y-135656280D01*
X292804983Y-135879294D01*
X292685173Y-135947735D01*
X292616278Y-135912389D01*
X292568343Y-135764006D01*
X292583649Y-135523637D01*
X292656267Y-135253860D01*
X292685365Y-135183129D01*
X292793222Y-134916013D01*
X292897915Y-134617400D01*
X292908036Y-134585385D01*
X293046059Y-134316327D01*
X293319020Y-133957046D01*
X293697395Y-133539481D01*
X294157093Y-133092184D01*
X294573511Y-132763418D01*
X294988386Y-132525268D01*
X295443456Y-132349823D01*
X295503996Y-132331284D01*
X295748818Y-132272006D01*
X295914661Y-132282741D01*
G36*
X294312252Y-135496547D02*
G01*
X294309228Y-135614384D01*
X294289279Y-135639588D01*
X294176921Y-135670722D01*
X294098901Y-135604793D01*
X294041741Y-135483541D01*
X294092933Y-135422315D01*
X294221308Y-135411670D01*
X294312252Y-135496547D01*
X294312252Y-135496547D01*
G37*
X294312252Y-135496547D02*
X294309228Y-135614384D01*
X294289279Y-135639588D01*
X294176921Y-135670722D01*
X294098901Y-135604793D01*
X294041741Y-135483541D01*
X294092933Y-135422315D01*
X294221308Y-135411670D01*
X294312252Y-135496547D01*
G36*
X297815708Y-134789797D02*
G01*
X297894222Y-134865229D01*
X297847088Y-134960445D01*
X297796945Y-135012970D01*
X297684196Y-135110511D01*
X297626322Y-135082457D01*
X297595202Y-135010341D01*
X297585028Y-134839826D01*
X297679639Y-134756760D01*
X297815708Y-134789797D01*
X297815708Y-134789797D01*
G37*
X297815708Y-134789797D02*
X297894222Y-134865229D01*
X297847088Y-134960445D01*
X297796945Y-135012970D01*
X297684196Y-135110511D01*
X297626322Y-135082457D01*
X297595202Y-135010341D01*
X297585028Y-134839826D01*
X297679639Y-134756760D01*
X297815708Y-134789797D01*
%TD*%
D14*
%TO.C,MX_#BKSP2*%
X325546461Y-59448248D03*
X319196461Y-61988248D03*
D15*
X323006461Y-64528248D03*
D16*
X317926461Y-64528248D03*
X328086461Y-64528248D03*
D15*
X311106461Y-56288248D03*
X334906461Y-56288248D03*
D17*
X334906461Y-71528248D03*
X311106461Y-71528248D03*
%TD*%
D14*
%TO.C,MX_RETURN1*%
X331606635Y-97553194D03*
X325256635Y-100093194D03*
D15*
X329066635Y-102633194D03*
D16*
X323986635Y-102633194D03*
X334146635Y-102633194D03*
D15*
X317166635Y-94393194D03*
X340966635Y-94393194D03*
D17*
X340966635Y-109633194D03*
X317166635Y-109633194D03*
%TD*%
D14*
%TO.C,MX_LSHIFT1*%
X59195547Y-116601100D03*
X52845547Y-119141100D03*
D15*
X56655547Y-121681100D03*
D16*
X51575547Y-121681100D03*
X61735547Y-121681100D03*
D15*
X44755547Y-113441100D03*
X68555547Y-113441100D03*
D17*
X68555547Y-128681100D03*
X44755547Y-128681100D03*
%TD*%
D14*
%TO.C,MX_SPACE2*%
X142639155Y-145762581D03*
X135899822Y-146926837D03*
D15*
X139098469Y-150203475D03*
D16*
X134129479Y-149147284D03*
X144067459Y-151259667D03*
D15*
X129171705Y-139669390D03*
X152451617Y-144617688D03*
D17*
X149283043Y-159524657D03*
X126003130Y-154576359D03*
%TD*%
D14*
%TO.C,MX_SPACE1*%
X144970081Y-146258035D03*
X138230748Y-147422291D03*
D15*
X141429395Y-150698929D03*
D16*
X136460405Y-149642738D03*
X146398385Y-151755121D03*
D15*
X131502631Y-140164844D03*
X154782543Y-145113142D03*
D17*
X151613969Y-160020111D03*
X128334056Y-155071813D03*
%TD*%
D15*
%TO.C,MX_SPACE3*%
X208875928Y-146598326D03*
X232155841Y-141650028D03*
D17*
X235324415Y-156556998D03*
X212044502Y-161505296D03*
D16*
X227198066Y-151127922D03*
X217260087Y-153240305D03*
D15*
X222229076Y-152184114D03*
D14*
X217974238Y-150491762D03*
X223657380Y-146687028D03*
%TD*%
D16*
%TO.C,MX_#7*%
X204367789Y-78079300D03*
X194429810Y-80191683D03*
D15*
X199398799Y-79135492D03*
D14*
X195143961Y-77443140D03*
X200827103Y-73638406D03*
%TD*%
D16*
%TO.C,MX_#-1*%
X280462079Y-63031615D03*
X270302079Y-63031615D03*
D15*
X275382079Y-63031615D03*
D14*
X271572079Y-60491615D03*
X277922079Y-57951615D03*
%TD*%
D18*
%TO.C,USB1*%
X188214000Y-56542000D03*
X182434000Y-56542000D03*
D19*
X181004000Y-57072000D03*
X189644000Y-57072000D03*
D20*
X181004000Y-52892000D03*
X189644000Y-52892000D03*
%TD*%
D16*
%TO.C,MX_BCKSP1*%
X337024773Y-83585067D03*
X326864773Y-83585067D03*
D15*
X331944773Y-83585067D03*
D14*
X328134773Y-81045067D03*
X334484773Y-78505067D03*
%TD*%
D16*
%TO.C,MX_RALT1*%
X266796416Y-142711033D03*
X256858437Y-144823416D03*
D15*
X261827426Y-143767225D03*
D14*
X257572588Y-142074873D03*
X263255730Y-138270139D03*
%TD*%
D16*
%TO.C,MX_LCTRL1*%
X54603553Y-140733134D03*
X44443553Y-140733134D03*
D15*
X49523553Y-140733134D03*
D14*
X45713553Y-138193134D03*
X52063553Y-135653134D03*
%TD*%
D16*
%TO.C,MX_LALT2*%
X113785965Y-144823137D03*
X103847985Y-142710754D03*
D15*
X108816975Y-143766945D03*
D14*
X105618328Y-140490307D03*
X112357661Y-139326051D03*
%TD*%
D16*
%TO.C,MX_#TAB1*%
X62830104Y-83579603D03*
X52670104Y-83579603D03*
D15*
X57750104Y-83579603D03*
D14*
X53940104Y-81039603D03*
X60290104Y-78499603D03*
%TD*%
D16*
%TO.C,MX_CAPS2*%
X54007556Y-102636034D03*
X43847556Y-102636034D03*
D15*
X48927556Y-102636034D03*
D14*
X45117556Y-100096034D03*
X51467556Y-97556034D03*
%TD*%
D16*
%TO.C,MX_Z1*%
X92688103Y-121689963D03*
X82528103Y-121689963D03*
D15*
X87608103Y-121689963D03*
D14*
X83798103Y-119149963D03*
X90148103Y-116609963D03*
%TD*%
D16*
%TO.C,MX_Y1*%
X199011651Y-98693371D03*
X189073672Y-100805754D03*
D15*
X194042661Y-99749563D03*
D14*
X189787823Y-98057211D03*
X195470965Y-94252477D03*
%TD*%
D16*
%TO.C,MX_X1*%
X113090848Y-125195913D03*
X103152868Y-123083530D03*
D15*
X108121858Y-124139721D03*
D14*
X104923211Y-120863083D03*
X111662544Y-119698827D03*
%TD*%
D16*
%TO.C,MX_W1*%
X107038329Y-84963654D03*
X97100349Y-82851271D03*
D15*
X102069339Y-83907462D03*
D14*
X98870692Y-80630824D03*
X105610025Y-79466568D03*
%TD*%
D16*
%TO.C,MX_V1*%
X150358271Y-133117348D03*
X140420291Y-131004965D03*
D15*
X145389281Y-132061156D03*
D14*
X142190634Y-128784518D03*
X148929967Y-127620262D03*
%TD*%
D16*
%TO.C,MX_UP1*%
X350814687Y-126448250D03*
X340654687Y-126448250D03*
D15*
X345734687Y-126448250D03*
D14*
X341924687Y-123908250D03*
X348274687Y-121368250D03*
%TD*%
D16*
%TO.C,MX_U1*%
X217645363Y-94732653D03*
X207707384Y-96845036D03*
D15*
X212676373Y-95788845D03*
D14*
X208421535Y-94096493D03*
X214104677Y-90291759D03*
%TD*%
D16*
%TO.C,MX_T1*%
X162939464Y-96845807D03*
X153001484Y-94733424D03*
D15*
X157970474Y-95789615D03*
D14*
X154771827Y-92512977D03*
X161511160Y-91348721D03*
%TD*%
D16*
%TO.C,MX_S1*%
X107734710Y-104581842D03*
X97796730Y-102469459D03*
D15*
X102765720Y-103525650D03*
D14*
X99567073Y-100249012D03*
X106306406Y-99084756D03*
%TD*%
D16*
%TO.C,MX_RSHIFT1*%
X319855635Y-121683194D03*
X309695635Y-121683194D03*
D15*
X314775635Y-121683194D03*
D14*
X310965635Y-119143194D03*
X317315635Y-116603194D03*
%TD*%
D16*
%TO.C,MX_RIGHT1*%
X369864687Y-145498250D03*
X359704687Y-145498250D03*
D15*
X364784687Y-145498250D03*
D14*
X360974687Y-142958250D03*
X367324687Y-140418250D03*
%TD*%
D16*
%TO.C,MX_R1*%
X144305752Y-92885089D03*
X134367772Y-90772706D03*
D15*
X139336762Y-91828897D03*
D14*
X136138115Y-88552259D03*
X142877448Y-87388003D03*
%TD*%
D16*
%TO.C,MX_Q1*%
X86640794Y-83583458D03*
X76480794Y-83583458D03*
D15*
X81560794Y-83583458D03*
D14*
X77750794Y-81043458D03*
X84100794Y-78503458D03*
%TD*%
D16*
%TO.C,MX_PGDN1*%
X365596399Y-78821926D03*
X355436399Y-78821926D03*
D15*
X360516399Y-78821926D03*
D14*
X356706399Y-76281926D03*
X363056399Y-73741926D03*
%TD*%
D16*
%TO.C,MX_P1*%
X273546498Y-82850500D03*
X263608519Y-84962883D03*
D15*
X268577508Y-83906692D03*
D14*
X264322670Y-82214340D03*
X270005812Y-78409606D03*
%TD*%
D16*
%TO.C,MX_O1*%
X254912786Y-86811218D03*
X244974807Y-88923601D03*
D15*
X249943796Y-87867410D03*
D14*
X245688958Y-86175058D03*
X251372100Y-82370324D03*
%TD*%
D16*
%TO.C,MX_N1*%
X216244623Y-133981919D03*
X206306644Y-136094302D03*
D15*
X211275633Y-135038111D03*
D14*
X207020795Y-133345759D03*
X212703937Y-129541025D03*
%TD*%
D16*
%TO.C,MX_M1*%
X234878335Y-130021201D03*
X224940356Y-132133584D03*
D15*
X229909345Y-131077393D03*
D14*
X225654507Y-129385041D03*
X231337649Y-125580307D03*
%TD*%
D16*
%TO.C,MX_LWIN1*%
X174348952Y-157696197D03*
X164410972Y-155583814D03*
D15*
X169379962Y-156640005D03*
D14*
X166181315Y-153363367D03*
X172920648Y-152199111D03*
%TD*%
D16*
%TO.C,MX_LEFT1*%
X331764687Y-145498250D03*
X321604687Y-145498250D03*
D15*
X326684687Y-145498250D03*
D14*
X322874687Y-142958250D03*
X329224687Y-140418250D03*
%TD*%
D16*
%TO.C,MX_LALT1*%
X111457974Y-144328307D03*
X101519994Y-142215924D03*
D15*
X106488984Y-143272115D03*
D14*
X103290337Y-139995477D03*
X110029670Y-138831221D03*
%TD*%
D16*
%TO.C,MX_L1*%
X263536255Y-104456498D03*
X253598276Y-106568881D03*
D15*
X258567265Y-105512690D03*
D14*
X254312427Y-103820338D03*
X259995569Y-100015604D03*
%TD*%
D16*
%TO.C,MX_K1*%
X244902543Y-108417216D03*
X234964564Y-110529599D03*
D15*
X239933553Y-109473408D03*
D14*
X235678715Y-107781056D03*
X241361857Y-103976322D03*
%TD*%
D16*
%TO.C,MX_J1*%
X226268832Y-112377933D03*
X216330853Y-114490316D03*
D15*
X221299842Y-113434125D03*
D14*
X217045004Y-111741773D03*
X222728146Y-107937039D03*
%TD*%
D16*
%TO.C,MX_I1*%
X236279074Y-90771935D03*
X226341095Y-92884318D03*
D15*
X231310084Y-91828127D03*
D14*
X227055246Y-90135775D03*
X232738388Y-86331041D03*
%TD*%
D16*
%TO.C,MX_H1*%
X207635120Y-116338651D03*
X197697141Y-118451034D03*
D15*
X202666130Y-117394843D03*
D14*
X198411292Y-115702491D03*
X204094434Y-111897757D03*
%TD*%
D16*
%TO.C,MX_G1*%
X163635845Y-116463995D03*
X153697865Y-114351612D03*
D15*
X158666855Y-115407803D03*
D14*
X155468208Y-112131165D03*
X162207541Y-110966909D03*
%TD*%
D16*
%TO.C,MX_FN1*%
X369863522Y-97868865D03*
X359703522Y-97868865D03*
D15*
X364783522Y-97868865D03*
D14*
X360973522Y-95328865D03*
X367323522Y-92788865D03*
%TD*%
D16*
%TO.C,MX_F1*%
X145002134Y-112503278D03*
X135064154Y-110390895D03*
D15*
X140033144Y-111447086D03*
D14*
X136834497Y-108170448D03*
X143573830Y-107006192D03*
%TD*%
D16*
%TO.C,MX_ESC1*%
X62230073Y-64532918D03*
X52070073Y-64532918D03*
D15*
X57150073Y-64532918D03*
D14*
X53340073Y-61992918D03*
X59690073Y-59452918D03*
%TD*%
D16*
%TO.C,MX_E1*%
X125672041Y-88924371D03*
X115734061Y-86811988D03*
D15*
X120703051Y-87868179D03*
D14*
X117504404Y-84591541D03*
X124243737Y-83427285D03*
%TD*%
D16*
%TO.C,MX_DOWN1*%
X350814687Y-145498250D03*
X340654687Y-145498250D03*
D15*
X345734687Y-145498250D03*
D14*
X341924687Y-142958250D03*
X348274687Y-140418250D03*
%TD*%
D16*
%TO.C,MX_D1*%
X126368421Y-108542560D03*
X116430441Y-106430177D03*
D15*
X121399431Y-107486368D03*
D14*
X118200784Y-104209730D03*
X124940117Y-103045474D03*
%TD*%
D16*
%TO.C,MX_CAPS1*%
X61147691Y-102634495D03*
X50987691Y-102634495D03*
D15*
X56067691Y-102634495D03*
D14*
X52257691Y-100094495D03*
X58607691Y-97554495D03*
%TD*%
D16*
%TO.C,MX_C1*%
X131724559Y-129156630D03*
X121786579Y-127044247D03*
D15*
X126755569Y-128100438D03*
D14*
X123556922Y-124823800D03*
X130296255Y-123659544D03*
%TD*%
D16*
%TO.C,MX_B1*%
X168991983Y-137078066D03*
X159054003Y-134965683D03*
D15*
X164022993Y-136021874D03*
D14*
X160824346Y-132745236D03*
X167563679Y-131580980D03*
%TD*%
D16*
%TO.C,MX_A1*%
X87344249Y-102637839D03*
X77184249Y-102637839D03*
D15*
X82264249Y-102637839D03*
D14*
X78454249Y-100097839D03*
X84804249Y-97557839D03*
%TD*%
D16*
%TO.C,MX_]1*%
X313208773Y-83585067D03*
X303048773Y-83585067D03*
D15*
X308128773Y-83585067D03*
D14*
X304318773Y-81045067D03*
X310668773Y-78505067D03*
%TD*%
D16*
%TO.C,MX_[1*%
X294158773Y-83585067D03*
X283998773Y-83585067D03*
D15*
X289078773Y-83585067D03*
D14*
X285268773Y-81045067D03*
X291618773Y-78505067D03*
%TD*%
D16*
%TO.C,MX_?1*%
X293663635Y-121683194D03*
X283503635Y-121683194D03*
D15*
X288583635Y-121683194D03*
D14*
X284773635Y-119143194D03*
X291123635Y-116603194D03*
%TD*%
D16*
%TO.C,MX_>1*%
X272145758Y-122099766D03*
X262207779Y-124212149D03*
D15*
X267176768Y-123155958D03*
D14*
X262921930Y-121463606D03*
X268605072Y-117658872D03*
%TD*%
D16*
%TO.C,MX_<1*%
X253512046Y-126060484D03*
X243574067Y-128172867D03*
D15*
X248543056Y-127116676D03*
D14*
X244288218Y-125424324D03*
X249971360Y-121619590D03*
%TD*%
D16*
%TO.C,MX_:1*%
X284138635Y-102633194D03*
X273978635Y-102633194D03*
D15*
X279058635Y-102633194D03*
D14*
X275248635Y-100093194D03*
X281598635Y-97553194D03*
%TD*%
D16*
%TO.C,MX_#|1*%
X337611461Y-64528248D03*
X327451461Y-64528248D03*
D15*
X332531461Y-64528248D03*
D14*
X328721461Y-61988248D03*
X335071461Y-59448248D03*
%TD*%
D16*
%TO.C,MX_#PGUP1*%
X361421029Y-59767181D03*
X351261029Y-59767181D03*
D15*
X356341029Y-59767181D03*
D14*
X352531029Y-57227181D03*
X358881029Y-54687181D03*
%TD*%
D16*
%TO.C,MX_#`1*%
X318561461Y-64528248D03*
X308401461Y-64528248D03*
D15*
X313481461Y-64528248D03*
D14*
X309671461Y-61988248D03*
X316021461Y-59448248D03*
%TD*%
D16*
%TO.C,MX_#+1*%
X299511461Y-64528248D03*
X289351461Y-64528248D03*
D15*
X294431461Y-64528248D03*
D14*
X290621461Y-61988248D03*
X296971461Y-59448248D03*
%TD*%
D16*
%TO.C,MX_#9*%
X241635213Y-70157865D03*
X231697234Y-72270248D03*
D15*
X236666223Y-71214057D03*
D14*
X232411385Y-69521705D03*
X238094527Y-65716971D03*
%TD*%
D16*
%TO.C,MX_#8*%
X223001501Y-74118582D03*
X213063522Y-76230965D03*
D15*
X218032511Y-75174774D03*
D14*
X213777673Y-73482422D03*
X219460815Y-69677688D03*
%TD*%
D16*
%TO.C,MX_#6*%
X176217038Y-80192454D03*
X166279058Y-78080071D03*
D15*
X171248048Y-79136262D03*
D14*
X168049401Y-75859624D03*
X174788734Y-74695368D03*
%TD*%
D16*
%TO.C,MX_#5*%
X157583326Y-76231736D03*
X147645346Y-74119353D03*
D15*
X152614336Y-75175544D03*
D14*
X149415689Y-71898906D03*
X156155022Y-70734650D03*
%TD*%
D16*
%TO.C,MX_#4*%
X138949614Y-72271019D03*
X129011634Y-70158636D03*
D15*
X133980624Y-71214827D03*
D14*
X130781977Y-67938189D03*
X137521310Y-66773933D03*
%TD*%
D16*
%TO.C,MX_#3*%
X120315902Y-68310301D03*
X110377922Y-66197918D03*
D15*
X115346912Y-67254109D03*
D14*
X112148265Y-63977471D03*
X118887598Y-62813215D03*
%TD*%
D16*
%TO.C,MX_#2*%
X100336075Y-63030941D03*
X90176075Y-63030941D03*
D15*
X95256075Y-63030941D03*
D14*
X91446075Y-60490941D03*
X97796075Y-57950941D03*
%TD*%
D16*
%TO.C,MX_#1*%
X81282273Y-64533345D03*
X71122273Y-64533345D03*
D15*
X76202273Y-64533345D03*
D14*
X72392273Y-61993345D03*
X78742273Y-59453345D03*
%TD*%
D16*
%TO.C,MX_#0*%
X260268924Y-66197147D03*
X250330945Y-68309530D03*
D15*
X255299934Y-67253339D03*
D14*
X251045096Y-65560987D03*
X256728238Y-61756253D03*
%TD*%
D16*
%TO.C,MX_"1*%
X303188635Y-102633194D03*
X293028635Y-102633194D03*
D15*
X298108635Y-102633194D03*
D14*
X294298635Y-100093194D03*
X300648635Y-97553194D03*
%TD*%
M02*
