%TF.GenerationSoftware,KiCad,Pcbnew,(5.1.4)-1*%
%TF.CreationDate,2020-09-06T20:16:22+12:00*%
%TF.ProjectId,puffazz-arisu-v2,70756666-617a-47a2-9d61-726973752d76,rev?*%
%TF.SameCoordinates,Original*%
%TF.FileFunction,Soldermask,Top*%
%TF.FilePolarity,Negative*%
%FSLAX46Y46*%
G04 Gerber Fmt 4.6, Leading zero omitted, Abs format (unit mm)*
G04 Created by KiCad (PCBNEW (5.1.4)-1) date 2020-09-06 20:16:22*
%MOMM*%
%LPD*%
G04 APERTURE LIST*
%ADD10C,0.010000*%
%ADD11C,2.300000*%
%ADD12C,4.100000*%
%ADD13C,1.800000*%
%ADD14C,3.150000*%
%ADD15C,0.750000*%
%ADD16O,1.100000X2.200000*%
%ADD17O,1.100000X1.700000*%
G04 APERTURE END LIST*
D10*
%TO.C,G\002A\002A\002A*%
G36*
X292564806Y-145516643D02*
G01*
X292650245Y-145626667D01*
X292879467Y-146068953D01*
X293112225Y-146425470D01*
X293389572Y-146763097D01*
X293622563Y-147052830D01*
X293879404Y-147415072D01*
X294105258Y-147772392D01*
X294109164Y-147779097D01*
X294288224Y-148073449D01*
X294451002Y-148317262D01*
X294568066Y-148467024D01*
X294586123Y-148484167D01*
X294734449Y-148534651D01*
X295009681Y-148569038D01*
X295370129Y-148586991D01*
X295774101Y-148588177D01*
X296179906Y-148572258D01*
X296545852Y-148538901D01*
X296771374Y-148501742D01*
X296978981Y-148467792D01*
X297192415Y-148463094D01*
X297453671Y-148491672D01*
X297804745Y-148557547D01*
X298153667Y-148634172D01*
X298659385Y-148735770D01*
X299221569Y-148828185D01*
X299754816Y-148898166D01*
X300016334Y-148923188D01*
X300425212Y-148965515D01*
X300804821Y-149024026D01*
X301101684Y-149089557D01*
X301220114Y-149129425D01*
X301481315Y-149220193D01*
X301718867Y-149265997D01*
X301752095Y-149267334D01*
X302006851Y-149322014D01*
X302363603Y-149478108D01*
X302798533Y-149723692D01*
X303233667Y-150008974D01*
X303582434Y-150294423D01*
X303834080Y-150618831D01*
X303942728Y-150815886D01*
X304107755Y-151107106D01*
X304254603Y-151269465D01*
X304394945Y-151296722D01*
X304540455Y-151182636D01*
X304702807Y-150920966D01*
X304893675Y-150505472D01*
X304997970Y-150251749D01*
X305147510Y-149862350D01*
X305230026Y-149574502D01*
X305247918Y-149335310D01*
X305203588Y-149091877D01*
X305099437Y-148791310D01*
X305067943Y-148710246D01*
X304949488Y-148371975D01*
X304852602Y-148031945D01*
X304811585Y-147839035D01*
X304656770Y-147327634D01*
X304379990Y-146898654D01*
X304014785Y-146593117D01*
X303816779Y-146456302D01*
X303708625Y-146341930D01*
X303702281Y-146299230D01*
X303841520Y-146224232D01*
X304079700Y-146254389D01*
X304387116Y-146384748D01*
X304459609Y-146425514D01*
X304791371Y-146714063D01*
X305077833Y-147164537D01*
X305319226Y-147777407D01*
X305515783Y-148553143D01*
X305522393Y-148585951D01*
X305699183Y-149470903D01*
X305387279Y-150346347D01*
X305208419Y-150828128D01*
X305059711Y-151169105D01*
X304924911Y-151391327D01*
X304787774Y-151516843D01*
X304632056Y-151567703D01*
X304486023Y-151569649D01*
X304191228Y-151609292D01*
X304004042Y-151749280D01*
X303934651Y-151951457D01*
X303993240Y-152177668D01*
X304189996Y-152389756D01*
X304255701Y-152432430D01*
X304458155Y-152530501D01*
X304637357Y-152539981D01*
X304843217Y-152484375D01*
X305024444Y-152435693D01*
X305190831Y-152430647D01*
X305395409Y-152476457D01*
X305691208Y-152580348D01*
X305771313Y-152610767D01*
X306169495Y-152793836D01*
X306426523Y-152980928D01*
X306533965Y-153163018D01*
X306483388Y-153331084D01*
X306464071Y-153352130D01*
X306323526Y-153417161D01*
X306045381Y-153486620D01*
X305661127Y-153555806D01*
X305202250Y-153620017D01*
X304700239Y-153674552D01*
X304186583Y-153714708D01*
X303952184Y-153727185D01*
X303556741Y-153741398D01*
X303287251Y-153738097D01*
X303100721Y-153711245D01*
X302954161Y-153654803D01*
X302810735Y-153566891D01*
X302534013Y-153285203D01*
X302335966Y-152884138D01*
X302233041Y-152401805D01*
X302222271Y-152203410D01*
X302143881Y-151748123D01*
X301914491Y-151292737D01*
X301527230Y-150824881D01*
X301373159Y-150674546D01*
X300957541Y-150285784D01*
X299534437Y-150302731D01*
X298945265Y-150301264D01*
X298341047Y-150285027D01*
X297778250Y-150256372D01*
X297313344Y-150217649D01*
X297214565Y-150206108D01*
X296805009Y-150157406D01*
X296525830Y-150135051D01*
X296340046Y-150139619D01*
X296210672Y-150171687D01*
X296113898Y-150223252D01*
X296008971Y-150277018D01*
X295877750Y-150306751D01*
X295686821Y-150313036D01*
X295402769Y-150296461D01*
X294992178Y-150257612D01*
X294871348Y-150245065D01*
X293832695Y-150136165D01*
X293326181Y-149624915D01*
X293094466Y-149377307D01*
X292918454Y-149163087D01*
X292826640Y-149017942D01*
X292819667Y-148990544D01*
X292786313Y-148856180D01*
X292698566Y-148618660D01*
X292574899Y-148327679D01*
X292565667Y-148307237D01*
X292389580Y-147835305D01*
X292313691Y-147430152D01*
X292311667Y-147365408D01*
X292287994Y-147025697D01*
X292229658Y-146678662D01*
X292215867Y-146622715D01*
X292179256Y-146352163D01*
X292197792Y-146076561D01*
X292258546Y-145825558D01*
X292348586Y-145628804D01*
X292454983Y-145515949D01*
X292564806Y-145516643D01*
X292564806Y-145516643D01*
G37*
X292564806Y-145516643D02*
X292650245Y-145626667D01*
X292879467Y-146068953D01*
X293112225Y-146425470D01*
X293389572Y-146763097D01*
X293622563Y-147052830D01*
X293879404Y-147415072D01*
X294105258Y-147772392D01*
X294109164Y-147779097D01*
X294288224Y-148073449D01*
X294451002Y-148317262D01*
X294568066Y-148467024D01*
X294586123Y-148484167D01*
X294734449Y-148534651D01*
X295009681Y-148569038D01*
X295370129Y-148586991D01*
X295774101Y-148588177D01*
X296179906Y-148572258D01*
X296545852Y-148538901D01*
X296771374Y-148501742D01*
X296978981Y-148467792D01*
X297192415Y-148463094D01*
X297453671Y-148491672D01*
X297804745Y-148557547D01*
X298153667Y-148634172D01*
X298659385Y-148735770D01*
X299221569Y-148828185D01*
X299754816Y-148898166D01*
X300016334Y-148923188D01*
X300425212Y-148965515D01*
X300804821Y-149024026D01*
X301101684Y-149089557D01*
X301220114Y-149129425D01*
X301481315Y-149220193D01*
X301718867Y-149265997D01*
X301752095Y-149267334D01*
X302006851Y-149322014D01*
X302363603Y-149478108D01*
X302798533Y-149723692D01*
X303233667Y-150008974D01*
X303582434Y-150294423D01*
X303834080Y-150618831D01*
X303942728Y-150815886D01*
X304107755Y-151107106D01*
X304254603Y-151269465D01*
X304394945Y-151296722D01*
X304540455Y-151182636D01*
X304702807Y-150920966D01*
X304893675Y-150505472D01*
X304997970Y-150251749D01*
X305147510Y-149862350D01*
X305230026Y-149574502D01*
X305247918Y-149335310D01*
X305203588Y-149091877D01*
X305099437Y-148791310D01*
X305067943Y-148710246D01*
X304949488Y-148371975D01*
X304852602Y-148031945D01*
X304811585Y-147839035D01*
X304656770Y-147327634D01*
X304379990Y-146898654D01*
X304014785Y-146593117D01*
X303816779Y-146456302D01*
X303708625Y-146341930D01*
X303702281Y-146299230D01*
X303841520Y-146224232D01*
X304079700Y-146254389D01*
X304387116Y-146384748D01*
X304459609Y-146425514D01*
X304791371Y-146714063D01*
X305077833Y-147164537D01*
X305319226Y-147777407D01*
X305515783Y-148553143D01*
X305522393Y-148585951D01*
X305699183Y-149470903D01*
X305387279Y-150346347D01*
X305208419Y-150828128D01*
X305059711Y-151169105D01*
X304924911Y-151391327D01*
X304787774Y-151516843D01*
X304632056Y-151567703D01*
X304486023Y-151569649D01*
X304191228Y-151609292D01*
X304004042Y-151749280D01*
X303934651Y-151951457D01*
X303993240Y-152177668D01*
X304189996Y-152389756D01*
X304255701Y-152432430D01*
X304458155Y-152530501D01*
X304637357Y-152539981D01*
X304843217Y-152484375D01*
X305024444Y-152435693D01*
X305190831Y-152430647D01*
X305395409Y-152476457D01*
X305691208Y-152580348D01*
X305771313Y-152610767D01*
X306169495Y-152793836D01*
X306426523Y-152980928D01*
X306533965Y-153163018D01*
X306483388Y-153331084D01*
X306464071Y-153352130D01*
X306323526Y-153417161D01*
X306045381Y-153486620D01*
X305661127Y-153555806D01*
X305202250Y-153620017D01*
X304700239Y-153674552D01*
X304186583Y-153714708D01*
X303952184Y-153727185D01*
X303556741Y-153741398D01*
X303287251Y-153738097D01*
X303100721Y-153711245D01*
X302954161Y-153654803D01*
X302810735Y-153566891D01*
X302534013Y-153285203D01*
X302335966Y-152884138D01*
X302233041Y-152401805D01*
X302222271Y-152203410D01*
X302143881Y-151748123D01*
X301914491Y-151292737D01*
X301527230Y-150824881D01*
X301373159Y-150674546D01*
X300957541Y-150285784D01*
X299534437Y-150302731D01*
X298945265Y-150301264D01*
X298341047Y-150285027D01*
X297778250Y-150256372D01*
X297313344Y-150217649D01*
X297214565Y-150206108D01*
X296805009Y-150157406D01*
X296525830Y-150135051D01*
X296340046Y-150139619D01*
X296210672Y-150171687D01*
X296113898Y-150223252D01*
X296008971Y-150277018D01*
X295877750Y-150306751D01*
X295686821Y-150313036D01*
X295402769Y-150296461D01*
X294992178Y-150257612D01*
X294871348Y-150245065D01*
X293832695Y-150136165D01*
X293326181Y-149624915D01*
X293094466Y-149377307D01*
X292918454Y-149163087D01*
X292826640Y-149017942D01*
X292819667Y-148990544D01*
X292786313Y-148856180D01*
X292698566Y-148618660D01*
X292574899Y-148327679D01*
X292565667Y-148307237D01*
X292389580Y-147835305D01*
X292313691Y-147430152D01*
X292311667Y-147365408D01*
X292287994Y-147025697D01*
X292229658Y-146678662D01*
X292215867Y-146622715D01*
X292179256Y-146352163D01*
X292197792Y-146076561D01*
X292258546Y-145825558D01*
X292348586Y-145628804D01*
X292454983Y-145515949D01*
X292564806Y-145516643D01*
G36*
X295039685Y-144994308D02*
G01*
X295155547Y-145078084D01*
X295240719Y-145246391D01*
X295306593Y-145530110D01*
X295349954Y-145835278D01*
X295394538Y-146076125D01*
X295451928Y-146227822D01*
X295486667Y-146255493D01*
X295563163Y-146182485D01*
X295689656Y-145994566D01*
X295841688Y-145728911D01*
X295876602Y-145662826D01*
X296037982Y-145380759D01*
X296188680Y-145165317D01*
X296300571Y-145055737D01*
X296315896Y-145049961D01*
X296489161Y-145091531D01*
X296657717Y-145243501D01*
X296773991Y-145452454D01*
X296799000Y-145592430D01*
X296749620Y-145819964D01*
X296638450Y-146037665D01*
X296506897Y-146277368D01*
X296447466Y-146501342D01*
X296468850Y-146660855D01*
X296519601Y-146703942D01*
X296633061Y-146670280D01*
X296821015Y-146547275D01*
X296985268Y-146411816D01*
X297360030Y-146110889D01*
X297654531Y-145954476D01*
X297873472Y-145940614D01*
X297970726Y-146000107D01*
X298047671Y-146172094D01*
X297971826Y-146386048D01*
X297740541Y-146646323D01*
X297417506Y-146908893D01*
X297079434Y-147167021D01*
X296707349Y-147463265D01*
X296448837Y-147677163D01*
X296156501Y-147907106D01*
X295932043Y-148033668D01*
X295730979Y-148080154D01*
X295676037Y-148082000D01*
X295453573Y-148053769D01*
X295305884Y-147984922D01*
X295298063Y-147976167D01*
X295112823Y-147660959D01*
X294961058Y-147263780D01*
X294879550Y-146896667D01*
X294823573Y-146616842D01*
X294742176Y-146380362D01*
X294714535Y-146328146D01*
X294617679Y-146078801D01*
X294589315Y-145787550D01*
X294619964Y-145493275D01*
X294700147Y-145234861D01*
X294820386Y-145051190D01*
X294971202Y-144981148D01*
X295039685Y-144994308D01*
X295039685Y-144994308D01*
G37*
X295039685Y-144994308D02*
X295155547Y-145078084D01*
X295240719Y-145246391D01*
X295306593Y-145530110D01*
X295349954Y-145835278D01*
X295394538Y-146076125D01*
X295451928Y-146227822D01*
X295486667Y-146255493D01*
X295563163Y-146182485D01*
X295689656Y-145994566D01*
X295841688Y-145728911D01*
X295876602Y-145662826D01*
X296037982Y-145380759D01*
X296188680Y-145165317D01*
X296300571Y-145055737D01*
X296315896Y-145049961D01*
X296489161Y-145091531D01*
X296657717Y-145243501D01*
X296773991Y-145452454D01*
X296799000Y-145592430D01*
X296749620Y-145819964D01*
X296638450Y-146037665D01*
X296506897Y-146277368D01*
X296447466Y-146501342D01*
X296468850Y-146660855D01*
X296519601Y-146703942D01*
X296633061Y-146670280D01*
X296821015Y-146547275D01*
X296985268Y-146411816D01*
X297360030Y-146110889D01*
X297654531Y-145954476D01*
X297873472Y-145940614D01*
X297970726Y-146000107D01*
X298047671Y-146172094D01*
X297971826Y-146386048D01*
X297740541Y-146646323D01*
X297417506Y-146908893D01*
X297079434Y-147167021D01*
X296707349Y-147463265D01*
X296448837Y-147677163D01*
X296156501Y-147907106D01*
X295932043Y-148033668D01*
X295730979Y-148080154D01*
X295676037Y-148082000D01*
X295453573Y-148053769D01*
X295305884Y-147984922D01*
X295298063Y-147976167D01*
X295112823Y-147660959D01*
X294961058Y-147263780D01*
X294879550Y-146896667D01*
X294823573Y-146616842D01*
X294742176Y-146380362D01*
X294714535Y-146328146D01*
X294617679Y-146078801D01*
X294589315Y-145787550D01*
X294619964Y-145493275D01*
X294700147Y-145234861D01*
X294820386Y-145051190D01*
X294971202Y-144981148D01*
X295039685Y-144994308D01*
G36*
X302850467Y-142993093D02*
G01*
X302946239Y-143192992D01*
X303052594Y-143475957D01*
X303156256Y-143800919D01*
X303243945Y-144126805D01*
X303302384Y-144412544D01*
X303319162Y-144589500D01*
X303305350Y-144808999D01*
X303271594Y-144935663D01*
X303254834Y-144948091D01*
X303193889Y-144874792D01*
X303098083Y-144684964D01*
X303000704Y-144451268D01*
X302905224Y-144156226D01*
X302825223Y-143824215D01*
X302766427Y-143494795D01*
X302734567Y-143207525D01*
X302735372Y-143001964D01*
X302774570Y-142917673D01*
X302778558Y-142917334D01*
X302850467Y-142993093D01*
X302850467Y-142993093D01*
G37*
X302850467Y-142993093D02*
X302946239Y-143192992D01*
X303052594Y-143475957D01*
X303156256Y-143800919D01*
X303243945Y-144126805D01*
X303302384Y-144412544D01*
X303319162Y-144589500D01*
X303305350Y-144808999D01*
X303271594Y-144935663D01*
X303254834Y-144948091D01*
X303193889Y-144874792D01*
X303098083Y-144684964D01*
X303000704Y-144451268D01*
X302905224Y-144156226D01*
X302825223Y-143824215D01*
X302766427Y-143494795D01*
X302734567Y-143207525D01*
X302735372Y-143001964D01*
X302774570Y-142917673D01*
X302778558Y-142917334D01*
X302850467Y-142993093D01*
G36*
X292445272Y-144616149D02*
G01*
X292523646Y-144733751D01*
X292517405Y-144789593D01*
X292398948Y-144861675D01*
X292275740Y-144789779D01*
X292269334Y-144780000D01*
X292246498Y-144643426D01*
X292329301Y-144575667D01*
X292445272Y-144616149D01*
X292445272Y-144616149D01*
G37*
X292445272Y-144616149D02*
X292523646Y-144733751D01*
X292517405Y-144789593D01*
X292398948Y-144861675D01*
X292275740Y-144789779D01*
X292269334Y-144780000D01*
X292246498Y-144643426D01*
X292329301Y-144575667D01*
X292445272Y-144616149D01*
G36*
X288586289Y-137411086D02*
G01*
X288586334Y-137414000D01*
X288522018Y-137496208D01*
X288501822Y-137498667D01*
X288413913Y-137564898D01*
X288275948Y-137735717D01*
X288164764Y-137900834D01*
X288036844Y-138122055D01*
X287960878Y-138320162D01*
X287923500Y-138553325D01*
X287911342Y-138879715D01*
X287910609Y-139006830D01*
X287919164Y-139399036D01*
X287955777Y-139690391D01*
X288033680Y-139948726D01*
X288141834Y-140192163D01*
X288340963Y-140520353D01*
X288640612Y-140912303D01*
X289005762Y-141330267D01*
X289401395Y-141736498D01*
X289792493Y-142093251D01*
X290144038Y-142362779D01*
X290173408Y-142382027D01*
X290437113Y-142574542D01*
X290656605Y-142774546D01*
X290757045Y-142898496D01*
X290913671Y-143147113D01*
X291053008Y-143357329D01*
X291156067Y-143541111D01*
X291137988Y-143611299D01*
X291002668Y-143568493D01*
X290754006Y-143413289D01*
X290575444Y-143284057D01*
X290298584Y-143062317D01*
X289953121Y-142764545D01*
X289589546Y-142435083D01*
X289348334Y-142206466D01*
X289031488Y-141905562D01*
X288726502Y-141626951D01*
X288471605Y-141404950D01*
X288325457Y-141288259D01*
X288160504Y-141148250D01*
X288040339Y-140981678D01*
X287938667Y-140741044D01*
X287836522Y-140405091D01*
X287737052Y-140054424D01*
X287644237Y-139734546D01*
X287575870Y-139506655D01*
X287568231Y-139482322D01*
X287477344Y-138927936D01*
X287548315Y-138376561D01*
X287775195Y-137853888D01*
X288022715Y-137519834D01*
X288181452Y-137400974D01*
X288366128Y-137336126D01*
X288519990Y-137335944D01*
X288586289Y-137411086D01*
X288586289Y-137411086D01*
G37*
X288586289Y-137411086D02*
X288586334Y-137414000D01*
X288522018Y-137496208D01*
X288501822Y-137498667D01*
X288413913Y-137564898D01*
X288275948Y-137735717D01*
X288164764Y-137900834D01*
X288036844Y-138122055D01*
X287960878Y-138320162D01*
X287923500Y-138553325D01*
X287911342Y-138879715D01*
X287910609Y-139006830D01*
X287919164Y-139399036D01*
X287955777Y-139690391D01*
X288033680Y-139948726D01*
X288141834Y-140192163D01*
X288340963Y-140520353D01*
X288640612Y-140912303D01*
X289005762Y-141330267D01*
X289401395Y-141736498D01*
X289792493Y-142093251D01*
X290144038Y-142362779D01*
X290173408Y-142382027D01*
X290437113Y-142574542D01*
X290656605Y-142774546D01*
X290757045Y-142898496D01*
X290913671Y-143147113D01*
X291053008Y-143357329D01*
X291156067Y-143541111D01*
X291137988Y-143611299D01*
X291002668Y-143568493D01*
X290754006Y-143413289D01*
X290575444Y-143284057D01*
X290298584Y-143062317D01*
X289953121Y-142764545D01*
X289589546Y-142435083D01*
X289348334Y-142206466D01*
X289031488Y-141905562D01*
X288726502Y-141626951D01*
X288471605Y-141404950D01*
X288325457Y-141288259D01*
X288160504Y-141148250D01*
X288040339Y-140981678D01*
X287938667Y-140741044D01*
X287836522Y-140405091D01*
X287737052Y-140054424D01*
X287644237Y-139734546D01*
X287575870Y-139506655D01*
X287568231Y-139482322D01*
X287477344Y-138927936D01*
X287548315Y-138376561D01*
X287775195Y-137853888D01*
X288022715Y-137519834D01*
X288181452Y-137400974D01*
X288366128Y-137336126D01*
X288519990Y-137335944D01*
X288586289Y-137411086D01*
G36*
X302172941Y-141381012D02*
G01*
X302301749Y-141555321D01*
X302379558Y-141767500D01*
X302387000Y-141844500D01*
X302357708Y-142027184D01*
X302267150Y-142053374D01*
X302111307Y-141924081D01*
X302103789Y-141915833D01*
X302016396Y-141759509D01*
X301969232Y-141564667D01*
X301969369Y-141393936D01*
X302023883Y-141309948D01*
X302035211Y-141308667D01*
X302172941Y-141381012D01*
X302172941Y-141381012D01*
G37*
X302172941Y-141381012D02*
X302301749Y-141555321D01*
X302379558Y-141767500D01*
X302387000Y-141844500D01*
X302357708Y-142027184D01*
X302267150Y-142053374D01*
X302111307Y-141924081D01*
X302103789Y-141915833D01*
X302016396Y-141759509D01*
X301969232Y-141564667D01*
X301969369Y-141393936D01*
X302023883Y-141309948D01*
X302035211Y-141308667D01*
X302172941Y-141381012D01*
G36*
X298171737Y-133125537D02*
G01*
X298404047Y-133229223D01*
X298495595Y-133286500D01*
X298657246Y-133428050D01*
X298887759Y-133671963D01*
X299156199Y-133983807D01*
X299427428Y-134323667D01*
X299716390Y-134683554D01*
X299975740Y-134975032D01*
X300181959Y-135173061D01*
X300296155Y-135248598D01*
X300535955Y-135278585D01*
X300878371Y-135224447D01*
X301006676Y-135191214D01*
X301731856Y-135021314D01*
X302358718Y-134944219D01*
X302928072Y-134956211D01*
X303191278Y-134992235D01*
X303506451Y-135052773D01*
X303703593Y-135117126D01*
X303832337Y-135212819D01*
X303942317Y-135367379D01*
X303978895Y-135429037D01*
X304070665Y-135604335D01*
X304125410Y-135776227D01*
X304149738Y-135991635D01*
X304150260Y-136297486D01*
X304140562Y-136576821D01*
X304115044Y-137002596D01*
X304070570Y-137321344D01*
X303993809Y-137595279D01*
X303871431Y-137886614D01*
X303850300Y-137931488D01*
X303665227Y-138274831D01*
X303446667Y-138614919D01*
X303280554Y-138831430D01*
X303062601Y-139114230D01*
X302836161Y-139457991D01*
X302709843Y-139678097D01*
X302542153Y-139971570D01*
X302346400Y-140279017D01*
X302147162Y-140566038D01*
X301969015Y-140798234D01*
X301836536Y-140941207D01*
X301786810Y-140970000D01*
X301721301Y-140900060D01*
X301687206Y-140808589D01*
X301718646Y-140621984D01*
X301880751Y-140389065D01*
X301882796Y-140386821D01*
X302032298Y-140210300D01*
X302127099Y-140046757D01*
X302197825Y-139830807D01*
X302253391Y-139595575D01*
X302335710Y-139412839D01*
X302499291Y-139165940D01*
X302685075Y-138936040D01*
X302936989Y-138616621D01*
X303189741Y-138239682D01*
X303337520Y-137982132D01*
X303469369Y-137712670D01*
X303549783Y-137489213D01*
X303590897Y-137252703D01*
X303604845Y-136944082D01*
X303605109Y-136679779D01*
X303578231Y-136155694D01*
X303502458Y-135785457D01*
X303374261Y-135559772D01*
X303190111Y-135469343D01*
X303144634Y-135466667D01*
X302981565Y-135503183D01*
X302729133Y-135598085D01*
X302490419Y-135707484D01*
X302041837Y-135902582D01*
X301458583Y-136111960D01*
X300773340Y-136324082D01*
X300620700Y-136367570D01*
X300568233Y-136393166D01*
X300541887Y-136452007D01*
X300544268Y-136571648D01*
X300577979Y-136779644D01*
X300645627Y-137103551D01*
X300723311Y-137452983D01*
X300782412Y-137748593D01*
X300814025Y-137974495D01*
X300811941Y-138085233D01*
X300810039Y-138087850D01*
X300729584Y-138068669D01*
X300613129Y-137913956D01*
X300476653Y-137649336D01*
X300360640Y-137367306D01*
X300211894Y-137025948D01*
X300023407Y-136664456D01*
X299937248Y-136520165D01*
X299794438Y-136273895D01*
X299700155Y-136070894D01*
X299677667Y-135983890D01*
X299622613Y-135844681D01*
X299486167Y-135659101D01*
X299444834Y-135613948D01*
X299259620Y-135341016D01*
X299206790Y-135044225D01*
X299131499Y-134709728D01*
X298929946Y-134325974D01*
X298624303Y-133925203D01*
X298236740Y-133539653D01*
X298085914Y-133414329D01*
X297928404Y-133252967D01*
X297907689Y-133145592D01*
X297997542Y-133100387D01*
X298171737Y-133125537D01*
X298171737Y-133125537D01*
G37*
X298171737Y-133125537D02*
X298404047Y-133229223D01*
X298495595Y-133286500D01*
X298657246Y-133428050D01*
X298887759Y-133671963D01*
X299156199Y-133983807D01*
X299427428Y-134323667D01*
X299716390Y-134683554D01*
X299975740Y-134975032D01*
X300181959Y-135173061D01*
X300296155Y-135248598D01*
X300535955Y-135278585D01*
X300878371Y-135224447D01*
X301006676Y-135191214D01*
X301731856Y-135021314D01*
X302358718Y-134944219D01*
X302928072Y-134956211D01*
X303191278Y-134992235D01*
X303506451Y-135052773D01*
X303703593Y-135117126D01*
X303832337Y-135212819D01*
X303942317Y-135367379D01*
X303978895Y-135429037D01*
X304070665Y-135604335D01*
X304125410Y-135776227D01*
X304149738Y-135991635D01*
X304150260Y-136297486D01*
X304140562Y-136576821D01*
X304115044Y-137002596D01*
X304070570Y-137321344D01*
X303993809Y-137595279D01*
X303871431Y-137886614D01*
X303850300Y-137931488D01*
X303665227Y-138274831D01*
X303446667Y-138614919D01*
X303280554Y-138831430D01*
X303062601Y-139114230D01*
X302836161Y-139457991D01*
X302709843Y-139678097D01*
X302542153Y-139971570D01*
X302346400Y-140279017D01*
X302147162Y-140566038D01*
X301969015Y-140798234D01*
X301836536Y-140941207D01*
X301786810Y-140970000D01*
X301721301Y-140900060D01*
X301687206Y-140808589D01*
X301718646Y-140621984D01*
X301880751Y-140389065D01*
X301882796Y-140386821D01*
X302032298Y-140210300D01*
X302127099Y-140046757D01*
X302197825Y-139830807D01*
X302253391Y-139595575D01*
X302335710Y-139412839D01*
X302499291Y-139165940D01*
X302685075Y-138936040D01*
X302936989Y-138616621D01*
X303189741Y-138239682D01*
X303337520Y-137982132D01*
X303469369Y-137712670D01*
X303549783Y-137489213D01*
X303590897Y-137252703D01*
X303604845Y-136944082D01*
X303605109Y-136679779D01*
X303578231Y-136155694D01*
X303502458Y-135785457D01*
X303374261Y-135559772D01*
X303190111Y-135469343D01*
X303144634Y-135466667D01*
X302981565Y-135503183D01*
X302729133Y-135598085D01*
X302490419Y-135707484D01*
X302041837Y-135902582D01*
X301458583Y-136111960D01*
X300773340Y-136324082D01*
X300620700Y-136367570D01*
X300568233Y-136393166D01*
X300541887Y-136452007D01*
X300544268Y-136571648D01*
X300577979Y-136779644D01*
X300645627Y-137103551D01*
X300723311Y-137452983D01*
X300782412Y-137748593D01*
X300814025Y-137974495D01*
X300811941Y-138085233D01*
X300810039Y-138087850D01*
X300729584Y-138068669D01*
X300613129Y-137913956D01*
X300476653Y-137649336D01*
X300360640Y-137367306D01*
X300211894Y-137025948D01*
X300023407Y-136664456D01*
X299937248Y-136520165D01*
X299794438Y-136273895D01*
X299700155Y-136070894D01*
X299677667Y-135983890D01*
X299622613Y-135844681D01*
X299486167Y-135659101D01*
X299444834Y-135613948D01*
X299259620Y-135341016D01*
X299206790Y-135044225D01*
X299131499Y-134709728D01*
X298929946Y-134325974D01*
X298624303Y-133925203D01*
X298236740Y-133539653D01*
X298085914Y-133414329D01*
X297928404Y-133252967D01*
X297907689Y-133145592D01*
X297997542Y-133100387D01*
X298171737Y-133125537D01*
G36*
X293535510Y-136752756D02*
G01*
X293642729Y-136838928D01*
X293836424Y-136990326D01*
X294102562Y-137162743D01*
X294239795Y-137241095D01*
X294515500Y-137418731D01*
X294655350Y-137572000D01*
X294654552Y-137686236D01*
X294508314Y-137746773D01*
X294406967Y-137752667D01*
X294105839Y-137821127D01*
X293913925Y-137972573D01*
X293697029Y-138160066D01*
X293432587Y-138333240D01*
X293393475Y-138354116D01*
X293078283Y-138515754D01*
X292939237Y-138303544D01*
X292777559Y-138154834D01*
X292578881Y-138089905D01*
X292407225Y-138122707D01*
X292354000Y-138176000D01*
X292217652Y-138246390D01*
X291953805Y-138256812D01*
X291591876Y-138210951D01*
X291161279Y-138112491D01*
X290703000Y-137969218D01*
X290146103Y-137772401D01*
X289726813Y-137624505D01*
X289423130Y-137517885D01*
X289213053Y-137444898D01*
X289074583Y-137397901D01*
X288985720Y-137369248D01*
X288925000Y-137351444D01*
X288877287Y-137290048D01*
X288954527Y-137187148D01*
X289124504Y-137064258D01*
X289355000Y-136942895D01*
X289613801Y-136844574D01*
X289730099Y-136813761D01*
X290398237Y-136750093D01*
X291119048Y-136846569D01*
X291700627Y-137026273D01*
X292317255Y-137259323D01*
X292653371Y-136955661D01*
X292977324Y-136726209D01*
X293267822Y-136658993D01*
X293535510Y-136752756D01*
X293535510Y-136752756D01*
G37*
X293535510Y-136752756D02*
X293642729Y-136838928D01*
X293836424Y-136990326D01*
X294102562Y-137162743D01*
X294239795Y-137241095D01*
X294515500Y-137418731D01*
X294655350Y-137572000D01*
X294654552Y-137686236D01*
X294508314Y-137746773D01*
X294406967Y-137752667D01*
X294105839Y-137821127D01*
X293913925Y-137972573D01*
X293697029Y-138160066D01*
X293432587Y-138333240D01*
X293393475Y-138354116D01*
X293078283Y-138515754D01*
X292939237Y-138303544D01*
X292777559Y-138154834D01*
X292578881Y-138089905D01*
X292407225Y-138122707D01*
X292354000Y-138176000D01*
X292217652Y-138246390D01*
X291953805Y-138256812D01*
X291591876Y-138210951D01*
X291161279Y-138112491D01*
X290703000Y-137969218D01*
X290146103Y-137772401D01*
X289726813Y-137624505D01*
X289423130Y-137517885D01*
X289213053Y-137444898D01*
X289074583Y-137397901D01*
X288985720Y-137369248D01*
X288925000Y-137351444D01*
X288877287Y-137290048D01*
X288954527Y-137187148D01*
X289124504Y-137064258D01*
X289355000Y-136942895D01*
X289613801Y-136844574D01*
X289730099Y-136813761D01*
X290398237Y-136750093D01*
X291119048Y-136846569D01*
X291700627Y-137026273D01*
X292317255Y-137259323D01*
X292653371Y-136955661D01*
X292977324Y-136726209D01*
X293267822Y-136658993D01*
X293535510Y-136752756D01*
G36*
X296398248Y-134555177D02*
G01*
X296616125Y-134782811D01*
X296750238Y-135142852D01*
X296770276Y-135262330D01*
X296779705Y-135505589D01*
X296705318Y-135680016D01*
X296570512Y-135824996D01*
X296258917Y-136032564D01*
X295921413Y-136111191D01*
X295640368Y-136061947D01*
X295419785Y-135888210D01*
X295300000Y-135624870D01*
X295286289Y-135438255D01*
X295471694Y-135438255D01*
X295612923Y-135641832D01*
X295652152Y-135682182D01*
X295863257Y-135848628D01*
X296053187Y-135870226D01*
X296276084Y-135749589D01*
X296321915Y-135714522D01*
X296506217Y-135484039D01*
X296526221Y-135219391D01*
X296413199Y-134977506D01*
X296212983Y-134817766D01*
X295966428Y-134795237D01*
X295723329Y-134907727D01*
X295619812Y-135012418D01*
X295474862Y-135246499D01*
X295471694Y-135438255D01*
X295286289Y-135438255D01*
X295277271Y-135315535D01*
X295347855Y-135003812D01*
X295508009Y-134733308D01*
X295753990Y-134547631D01*
X295770969Y-134540317D01*
X296111548Y-134470747D01*
X296398248Y-134555177D01*
X296398248Y-134555177D01*
G37*
X296398248Y-134555177D02*
X296616125Y-134782811D01*
X296750238Y-135142852D01*
X296770276Y-135262330D01*
X296779705Y-135505589D01*
X296705318Y-135680016D01*
X296570512Y-135824996D01*
X296258917Y-136032564D01*
X295921413Y-136111191D01*
X295640368Y-136061947D01*
X295419785Y-135888210D01*
X295300000Y-135624870D01*
X295286289Y-135438255D01*
X295471694Y-135438255D01*
X295612923Y-135641832D01*
X295652152Y-135682182D01*
X295863257Y-135848628D01*
X296053187Y-135870226D01*
X296276084Y-135749589D01*
X296321915Y-135714522D01*
X296506217Y-135484039D01*
X296526221Y-135219391D01*
X296413199Y-134977506D01*
X296212983Y-134817766D01*
X295966428Y-134795237D01*
X295723329Y-134907727D01*
X295619812Y-135012418D01*
X295474862Y-135246499D01*
X295471694Y-135438255D01*
X295286289Y-135438255D01*
X295277271Y-135315535D01*
X295347855Y-135003812D01*
X295508009Y-134733308D01*
X295753990Y-134547631D01*
X295770969Y-134540317D01*
X296111548Y-134470747D01*
X296398248Y-134555177D01*
G36*
X295914661Y-132282741D02*
G01*
X296075496Y-132366033D01*
X296254107Y-132535250D01*
X296263675Y-132700472D01*
X296104086Y-132865215D01*
X296058167Y-132894616D01*
X295855937Y-133021185D01*
X295585353Y-133195385D01*
X295402000Y-133315536D01*
X295069499Y-133500854D01*
X294695309Y-133660511D01*
X294513000Y-133718744D01*
X294232937Y-133795972D01*
X294008424Y-133863133D01*
X293920121Y-133893461D01*
X293772297Y-134019471D01*
X293590227Y-134277129D01*
X293391291Y-134636812D01*
X293192872Y-135068898D01*
X293110857Y-135272642D01*
X292945319Y-135656280D01*
X292804983Y-135879294D01*
X292685173Y-135947735D01*
X292616278Y-135912389D01*
X292568343Y-135764006D01*
X292583649Y-135523637D01*
X292656267Y-135253860D01*
X292685365Y-135183129D01*
X292793222Y-134916013D01*
X292897915Y-134617400D01*
X292908036Y-134585385D01*
X293046059Y-134316327D01*
X293319020Y-133957046D01*
X293697395Y-133539481D01*
X294157093Y-133092184D01*
X294573511Y-132763418D01*
X294988386Y-132525268D01*
X295443456Y-132349823D01*
X295503996Y-132331284D01*
X295748818Y-132272006D01*
X295914661Y-132282741D01*
X295914661Y-132282741D01*
G37*
X295914661Y-132282741D02*
X296075496Y-132366033D01*
X296254107Y-132535250D01*
X296263675Y-132700472D01*
X296104086Y-132865215D01*
X296058167Y-132894616D01*
X295855937Y-133021185D01*
X295585353Y-133195385D01*
X295402000Y-133315536D01*
X295069499Y-133500854D01*
X294695309Y-133660511D01*
X294513000Y-133718744D01*
X294232937Y-133795972D01*
X294008424Y-133863133D01*
X293920121Y-133893461D01*
X293772297Y-134019471D01*
X293590227Y-134277129D01*
X293391291Y-134636812D01*
X293192872Y-135068898D01*
X293110857Y-135272642D01*
X292945319Y-135656280D01*
X292804983Y-135879294D01*
X292685173Y-135947735D01*
X292616278Y-135912389D01*
X292568343Y-135764006D01*
X292583649Y-135523637D01*
X292656267Y-135253860D01*
X292685365Y-135183129D01*
X292793222Y-134916013D01*
X292897915Y-134617400D01*
X292908036Y-134585385D01*
X293046059Y-134316327D01*
X293319020Y-133957046D01*
X293697395Y-133539481D01*
X294157093Y-133092184D01*
X294573511Y-132763418D01*
X294988386Y-132525268D01*
X295443456Y-132349823D01*
X295503996Y-132331284D01*
X295748818Y-132272006D01*
X295914661Y-132282741D01*
G36*
X294312252Y-135496547D02*
G01*
X294309228Y-135614384D01*
X294289279Y-135639588D01*
X294176921Y-135670722D01*
X294098901Y-135604793D01*
X294041741Y-135483541D01*
X294092933Y-135422315D01*
X294221308Y-135411670D01*
X294312252Y-135496547D01*
X294312252Y-135496547D01*
G37*
X294312252Y-135496547D02*
X294309228Y-135614384D01*
X294289279Y-135639588D01*
X294176921Y-135670722D01*
X294098901Y-135604793D01*
X294041741Y-135483541D01*
X294092933Y-135422315D01*
X294221308Y-135411670D01*
X294312252Y-135496547D01*
G36*
X297815708Y-134789797D02*
G01*
X297894222Y-134865229D01*
X297847088Y-134960445D01*
X297796945Y-135012970D01*
X297684196Y-135110511D01*
X297626322Y-135082457D01*
X297595202Y-135010341D01*
X297585028Y-134839826D01*
X297679639Y-134756760D01*
X297815708Y-134789797D01*
X297815708Y-134789797D01*
G37*
X297815708Y-134789797D02*
X297894222Y-134865229D01*
X297847088Y-134960445D01*
X297796945Y-135012970D01*
X297684196Y-135110511D01*
X297626322Y-135082457D01*
X297595202Y-135010341D01*
X297585028Y-134839826D01*
X297679639Y-134756760D01*
X297815708Y-134789797D01*
%TD*%
D11*
%TO.C,MX_#BKSP2*%
X325546461Y-59448248D03*
X319196461Y-61988248D03*
D12*
X323006461Y-64528248D03*
D13*
X317926461Y-64528248D03*
X328086461Y-64528248D03*
D12*
X311106461Y-56288248D03*
X334906461Y-56288248D03*
D14*
X334906461Y-71528248D03*
X311106461Y-71528248D03*
%TD*%
D11*
%TO.C,MX_RETURN1*%
X331606635Y-97553194D03*
X325256635Y-100093194D03*
D12*
X329066635Y-102633194D03*
D13*
X323986635Y-102633194D03*
X334146635Y-102633194D03*
D12*
X317166635Y-94393194D03*
X340966635Y-94393194D03*
D14*
X340966635Y-109633194D03*
X317166635Y-109633194D03*
%TD*%
D11*
%TO.C,MX_LSHIFT1*%
X59195547Y-116601100D03*
X52845547Y-119141100D03*
D12*
X56655547Y-121681100D03*
D13*
X51575547Y-121681100D03*
X61735547Y-121681100D03*
D12*
X44755547Y-113441100D03*
X68555547Y-113441100D03*
D14*
X68555547Y-128681100D03*
X44755547Y-128681100D03*
%TD*%
D11*
%TO.C,MX_SPACE2*%
X142639155Y-145762581D03*
X135899822Y-146926837D03*
D12*
X139098469Y-150203475D03*
D13*
X134129479Y-149147284D03*
X144067459Y-151259667D03*
D12*
X129171705Y-139669390D03*
X152451617Y-144617688D03*
D14*
X149283043Y-159524657D03*
X126003130Y-154576359D03*
%TD*%
D11*
%TO.C,MX_SPACE1*%
X144970081Y-146258035D03*
X138230748Y-147422291D03*
D12*
X141429395Y-150698929D03*
D13*
X136460405Y-149642738D03*
X146398385Y-151755121D03*
D12*
X131502631Y-140164844D03*
X154782543Y-145113142D03*
D14*
X151613969Y-160020111D03*
X128334056Y-155071813D03*
%TD*%
D12*
%TO.C,MX_SPACE3*%
X208875928Y-146598326D03*
X232155841Y-141650028D03*
D14*
X235324415Y-156556998D03*
X212044502Y-161505296D03*
D13*
X227198066Y-151127922D03*
X217260087Y-153240305D03*
D12*
X222229076Y-152184114D03*
D11*
X217974238Y-150491762D03*
X223657380Y-146687028D03*
%TD*%
D13*
%TO.C,MX_#7*%
X204367789Y-78079300D03*
X194429810Y-80191683D03*
D12*
X199398799Y-79135492D03*
D11*
X195143961Y-77443140D03*
X200827103Y-73638406D03*
%TD*%
D13*
%TO.C,MX_#-1*%
X280462079Y-63031615D03*
X270302079Y-63031615D03*
D12*
X275382079Y-63031615D03*
D11*
X271572079Y-60491615D03*
X277922079Y-57951615D03*
%TD*%
D15*
%TO.C,USB1*%
X188214000Y-56542000D03*
X182434000Y-56542000D03*
D16*
X181004000Y-57072000D03*
X189644000Y-57072000D03*
D17*
X181004000Y-52892000D03*
X189644000Y-52892000D03*
%TD*%
D13*
%TO.C,MX_BCKSP1*%
X337024773Y-83585067D03*
X326864773Y-83585067D03*
D12*
X331944773Y-83585067D03*
D11*
X328134773Y-81045067D03*
X334484773Y-78505067D03*
%TD*%
D13*
%TO.C,MX_RALT1*%
X266796416Y-142711033D03*
X256858437Y-144823416D03*
D12*
X261827426Y-143767225D03*
D11*
X257572588Y-142074873D03*
X263255730Y-138270139D03*
%TD*%
D13*
%TO.C,MX_LCTRL1*%
X54603553Y-140733134D03*
X44443553Y-140733134D03*
D12*
X49523553Y-140733134D03*
D11*
X45713553Y-138193134D03*
X52063553Y-135653134D03*
%TD*%
D13*
%TO.C,MX_LALT2*%
X113785965Y-144823137D03*
X103847985Y-142710754D03*
D12*
X108816975Y-143766945D03*
D11*
X105618328Y-140490307D03*
X112357661Y-139326051D03*
%TD*%
D13*
%TO.C,MX_#TAB1*%
X62830104Y-83579603D03*
X52670104Y-83579603D03*
D12*
X57750104Y-83579603D03*
D11*
X53940104Y-81039603D03*
X60290104Y-78499603D03*
%TD*%
D13*
%TO.C,MX_CAPS2*%
X54007556Y-102636034D03*
X43847556Y-102636034D03*
D12*
X48927556Y-102636034D03*
D11*
X45117556Y-100096034D03*
X51467556Y-97556034D03*
%TD*%
D13*
%TO.C,MX_Z1*%
X92688103Y-121689963D03*
X82528103Y-121689963D03*
D12*
X87608103Y-121689963D03*
D11*
X83798103Y-119149963D03*
X90148103Y-116609963D03*
%TD*%
D13*
%TO.C,MX_Y1*%
X199011651Y-98693371D03*
X189073672Y-100805754D03*
D12*
X194042661Y-99749563D03*
D11*
X189787823Y-98057211D03*
X195470965Y-94252477D03*
%TD*%
D13*
%TO.C,MX_X1*%
X113090848Y-125195913D03*
X103152868Y-123083530D03*
D12*
X108121858Y-124139721D03*
D11*
X104923211Y-120863083D03*
X111662544Y-119698827D03*
%TD*%
D13*
%TO.C,MX_W1*%
X107038329Y-84963654D03*
X97100349Y-82851271D03*
D12*
X102069339Y-83907462D03*
D11*
X98870692Y-80630824D03*
X105610025Y-79466568D03*
%TD*%
D13*
%TO.C,MX_V1*%
X150358271Y-133117348D03*
X140420291Y-131004965D03*
D12*
X145389281Y-132061156D03*
D11*
X142190634Y-128784518D03*
X148929967Y-127620262D03*
%TD*%
D13*
%TO.C,MX_UP1*%
X350814687Y-126448250D03*
X340654687Y-126448250D03*
D12*
X345734687Y-126448250D03*
D11*
X341924687Y-123908250D03*
X348274687Y-121368250D03*
%TD*%
D13*
%TO.C,MX_U1*%
X217645363Y-94732653D03*
X207707384Y-96845036D03*
D12*
X212676373Y-95788845D03*
D11*
X208421535Y-94096493D03*
X214104677Y-90291759D03*
%TD*%
D13*
%TO.C,MX_T1*%
X162939464Y-96845807D03*
X153001484Y-94733424D03*
D12*
X157970474Y-95789615D03*
D11*
X154771827Y-92512977D03*
X161511160Y-91348721D03*
%TD*%
D13*
%TO.C,MX_S1*%
X107734710Y-104581842D03*
X97796730Y-102469459D03*
D12*
X102765720Y-103525650D03*
D11*
X99567073Y-100249012D03*
X106306406Y-99084756D03*
%TD*%
D13*
%TO.C,MX_RSHIFT1*%
X319855635Y-121683194D03*
X309695635Y-121683194D03*
D12*
X314775635Y-121683194D03*
D11*
X310965635Y-119143194D03*
X317315635Y-116603194D03*
%TD*%
D13*
%TO.C,MX_RIGHT1*%
X369864687Y-145498250D03*
X359704687Y-145498250D03*
D12*
X364784687Y-145498250D03*
D11*
X360974687Y-142958250D03*
X367324687Y-140418250D03*
%TD*%
D13*
%TO.C,MX_R1*%
X144305752Y-92885089D03*
X134367772Y-90772706D03*
D12*
X139336762Y-91828897D03*
D11*
X136138115Y-88552259D03*
X142877448Y-87388003D03*
%TD*%
D13*
%TO.C,MX_Q1*%
X86640794Y-83583458D03*
X76480794Y-83583458D03*
D12*
X81560794Y-83583458D03*
D11*
X77750794Y-81043458D03*
X84100794Y-78503458D03*
%TD*%
D13*
%TO.C,MX_PGDN1*%
X365596399Y-78821926D03*
X355436399Y-78821926D03*
D12*
X360516399Y-78821926D03*
D11*
X356706399Y-76281926D03*
X363056399Y-73741926D03*
%TD*%
D13*
%TO.C,MX_P1*%
X273546498Y-82850500D03*
X263608519Y-84962883D03*
D12*
X268577508Y-83906692D03*
D11*
X264322670Y-82214340D03*
X270005812Y-78409606D03*
%TD*%
D13*
%TO.C,MX_O1*%
X254912786Y-86811218D03*
X244974807Y-88923601D03*
D12*
X249943796Y-87867410D03*
D11*
X245688958Y-86175058D03*
X251372100Y-82370324D03*
%TD*%
D13*
%TO.C,MX_N1*%
X216244623Y-133981919D03*
X206306644Y-136094302D03*
D12*
X211275633Y-135038111D03*
D11*
X207020795Y-133345759D03*
X212703937Y-129541025D03*
%TD*%
D13*
%TO.C,MX_M1*%
X234878335Y-130021201D03*
X224940356Y-132133584D03*
D12*
X229909345Y-131077393D03*
D11*
X225654507Y-129385041D03*
X231337649Y-125580307D03*
%TD*%
D13*
%TO.C,MX_LWIN1*%
X174348952Y-157696197D03*
X164410972Y-155583814D03*
D12*
X169379962Y-156640005D03*
D11*
X166181315Y-153363367D03*
X172920648Y-152199111D03*
%TD*%
D13*
%TO.C,MX_LEFT1*%
X331764687Y-145498250D03*
X321604687Y-145498250D03*
D12*
X326684687Y-145498250D03*
D11*
X322874687Y-142958250D03*
X329224687Y-140418250D03*
%TD*%
D13*
%TO.C,MX_LALT1*%
X111457974Y-144328307D03*
X101519994Y-142215924D03*
D12*
X106488984Y-143272115D03*
D11*
X103290337Y-139995477D03*
X110029670Y-138831221D03*
%TD*%
D13*
%TO.C,MX_L1*%
X263536255Y-104456498D03*
X253598276Y-106568881D03*
D12*
X258567265Y-105512690D03*
D11*
X254312427Y-103820338D03*
X259995569Y-100015604D03*
%TD*%
D13*
%TO.C,MX_K1*%
X244902543Y-108417216D03*
X234964564Y-110529599D03*
D12*
X239933553Y-109473408D03*
D11*
X235678715Y-107781056D03*
X241361857Y-103976322D03*
%TD*%
D13*
%TO.C,MX_J1*%
X226268832Y-112377933D03*
X216330853Y-114490316D03*
D12*
X221299842Y-113434125D03*
D11*
X217045004Y-111741773D03*
X222728146Y-107937039D03*
%TD*%
D13*
%TO.C,MX_I1*%
X236279074Y-90771935D03*
X226341095Y-92884318D03*
D12*
X231310084Y-91828127D03*
D11*
X227055246Y-90135775D03*
X232738388Y-86331041D03*
%TD*%
D13*
%TO.C,MX_H1*%
X207635120Y-116338651D03*
X197697141Y-118451034D03*
D12*
X202666130Y-117394843D03*
D11*
X198411292Y-115702491D03*
X204094434Y-111897757D03*
%TD*%
D13*
%TO.C,MX_G1*%
X163635845Y-116463995D03*
X153697865Y-114351612D03*
D12*
X158666855Y-115407803D03*
D11*
X155468208Y-112131165D03*
X162207541Y-110966909D03*
%TD*%
D13*
%TO.C,MX_FN1*%
X369863522Y-97868865D03*
X359703522Y-97868865D03*
D12*
X364783522Y-97868865D03*
D11*
X360973522Y-95328865D03*
X367323522Y-92788865D03*
%TD*%
D13*
%TO.C,MX_F1*%
X145002134Y-112503278D03*
X135064154Y-110390895D03*
D12*
X140033144Y-111447086D03*
D11*
X136834497Y-108170448D03*
X143573830Y-107006192D03*
%TD*%
D13*
%TO.C,MX_ESC1*%
X62230073Y-64532918D03*
X52070073Y-64532918D03*
D12*
X57150073Y-64532918D03*
D11*
X53340073Y-61992918D03*
X59690073Y-59452918D03*
%TD*%
D13*
%TO.C,MX_E1*%
X125672041Y-88924371D03*
X115734061Y-86811988D03*
D12*
X120703051Y-87868179D03*
D11*
X117504404Y-84591541D03*
X124243737Y-83427285D03*
%TD*%
D13*
%TO.C,MX_DOWN1*%
X350814687Y-145498250D03*
X340654687Y-145498250D03*
D12*
X345734687Y-145498250D03*
D11*
X341924687Y-142958250D03*
X348274687Y-140418250D03*
%TD*%
D13*
%TO.C,MX_D1*%
X126368421Y-108542560D03*
X116430441Y-106430177D03*
D12*
X121399431Y-107486368D03*
D11*
X118200784Y-104209730D03*
X124940117Y-103045474D03*
%TD*%
D13*
%TO.C,MX_CAPS1*%
X61147691Y-102634495D03*
X50987691Y-102634495D03*
D12*
X56067691Y-102634495D03*
D11*
X52257691Y-100094495D03*
X58607691Y-97554495D03*
%TD*%
D13*
%TO.C,MX_C1*%
X131724559Y-129156630D03*
X121786579Y-127044247D03*
D12*
X126755569Y-128100438D03*
D11*
X123556922Y-124823800D03*
X130296255Y-123659544D03*
%TD*%
D13*
%TO.C,MX_B1*%
X168991983Y-137078066D03*
X159054003Y-134965683D03*
D12*
X164022993Y-136021874D03*
D11*
X160824346Y-132745236D03*
X167563679Y-131580980D03*
%TD*%
D13*
%TO.C,MX_A1*%
X87344249Y-102637839D03*
X77184249Y-102637839D03*
D12*
X82264249Y-102637839D03*
D11*
X78454249Y-100097839D03*
X84804249Y-97557839D03*
%TD*%
D13*
%TO.C,MX_]1*%
X313208773Y-83585067D03*
X303048773Y-83585067D03*
D12*
X308128773Y-83585067D03*
D11*
X304318773Y-81045067D03*
X310668773Y-78505067D03*
%TD*%
D13*
%TO.C,MX_[1*%
X294158773Y-83585067D03*
X283998773Y-83585067D03*
D12*
X289078773Y-83585067D03*
D11*
X285268773Y-81045067D03*
X291618773Y-78505067D03*
%TD*%
D13*
%TO.C,MX_?1*%
X293663635Y-121683194D03*
X283503635Y-121683194D03*
D12*
X288583635Y-121683194D03*
D11*
X284773635Y-119143194D03*
X291123635Y-116603194D03*
%TD*%
D13*
%TO.C,MX_>1*%
X272145758Y-122099766D03*
X262207779Y-124212149D03*
D12*
X267176768Y-123155958D03*
D11*
X262921930Y-121463606D03*
X268605072Y-117658872D03*
%TD*%
D13*
%TO.C,MX_<1*%
X253512046Y-126060484D03*
X243574067Y-128172867D03*
D12*
X248543056Y-127116676D03*
D11*
X244288218Y-125424324D03*
X249971360Y-121619590D03*
%TD*%
D13*
%TO.C,MX_:1*%
X284138635Y-102633194D03*
X273978635Y-102633194D03*
D12*
X279058635Y-102633194D03*
D11*
X275248635Y-100093194D03*
X281598635Y-97553194D03*
%TD*%
D13*
%TO.C,MX_#|1*%
X337611461Y-64528248D03*
X327451461Y-64528248D03*
D12*
X332531461Y-64528248D03*
D11*
X328721461Y-61988248D03*
X335071461Y-59448248D03*
%TD*%
D13*
%TO.C,MX_#PGUP1*%
X361421029Y-59767181D03*
X351261029Y-59767181D03*
D12*
X356341029Y-59767181D03*
D11*
X352531029Y-57227181D03*
X358881029Y-54687181D03*
%TD*%
D13*
%TO.C,MX_#`1*%
X318561461Y-64528248D03*
X308401461Y-64528248D03*
D12*
X313481461Y-64528248D03*
D11*
X309671461Y-61988248D03*
X316021461Y-59448248D03*
%TD*%
D13*
%TO.C,MX_#+1*%
X299511461Y-64528248D03*
X289351461Y-64528248D03*
D12*
X294431461Y-64528248D03*
D11*
X290621461Y-61988248D03*
X296971461Y-59448248D03*
%TD*%
D13*
%TO.C,MX_#9*%
X241635213Y-70157865D03*
X231697234Y-72270248D03*
D12*
X236666223Y-71214057D03*
D11*
X232411385Y-69521705D03*
X238094527Y-65716971D03*
%TD*%
D13*
%TO.C,MX_#8*%
X223001501Y-74118582D03*
X213063522Y-76230965D03*
D12*
X218032511Y-75174774D03*
D11*
X213777673Y-73482422D03*
X219460815Y-69677688D03*
%TD*%
D13*
%TO.C,MX_#6*%
X176217038Y-80192454D03*
X166279058Y-78080071D03*
D12*
X171248048Y-79136262D03*
D11*
X168049401Y-75859624D03*
X174788734Y-74695368D03*
%TD*%
D13*
%TO.C,MX_#5*%
X157583326Y-76231736D03*
X147645346Y-74119353D03*
D12*
X152614336Y-75175544D03*
D11*
X149415689Y-71898906D03*
X156155022Y-70734650D03*
%TD*%
D13*
%TO.C,MX_#4*%
X138949614Y-72271019D03*
X129011634Y-70158636D03*
D12*
X133980624Y-71214827D03*
D11*
X130781977Y-67938189D03*
X137521310Y-66773933D03*
%TD*%
D13*
%TO.C,MX_#3*%
X120315902Y-68310301D03*
X110377922Y-66197918D03*
D12*
X115346912Y-67254109D03*
D11*
X112148265Y-63977471D03*
X118887598Y-62813215D03*
%TD*%
D13*
%TO.C,MX_#2*%
X100336075Y-63030941D03*
X90176075Y-63030941D03*
D12*
X95256075Y-63030941D03*
D11*
X91446075Y-60490941D03*
X97796075Y-57950941D03*
%TD*%
D13*
%TO.C,MX_#1*%
X81282273Y-64533345D03*
X71122273Y-64533345D03*
D12*
X76202273Y-64533345D03*
D11*
X72392273Y-61993345D03*
X78742273Y-59453345D03*
%TD*%
D13*
%TO.C,MX_#0*%
X260268924Y-66197147D03*
X250330945Y-68309530D03*
D12*
X255299934Y-67253339D03*
D11*
X251045096Y-65560987D03*
X256728238Y-61756253D03*
%TD*%
D13*
%TO.C,MX_"1*%
X303188635Y-102633194D03*
X293028635Y-102633194D03*
D12*
X298108635Y-102633194D03*
D11*
X294298635Y-100093194D03*
X300648635Y-97553194D03*
%TD*%
M02*
